Compagnon-Light.ufo
<glyph name="ampersand" format="2">
	<advance width="600"/>
	<unicode hex="0026"/>
	<note>
		ampersand
	</note>
	<outline>
		<contour>
			<point x="153" y="362" type="curve"/>
			<point x="80" y="289"/>
			<point x="18" y="246"/>
			<point x="18" y="163" type="curve" smooth="yes"/>
			<point x="18" y="65"/>
			<point x="92" y="-13"/>
			<point x="187" y="-13" type="curve" smooth="yes"/>
			<point x="253" y="-13"/>
			<point x="311" y="47"/>
			<point x="358" y="116" type="curve"/>
			<point x="420" y="39"/>
			<point x="456" y="-14"/>
			<point x="501" y="-14" type="curve" smooth="yes"/>
			<point x="557" y="-14"/>
			<point x="567" y="22"/>
			<point x="596" y="99" type="curve"/>
			<point x="568" y="109" type="line"/>
			<point x="543" y="34"/>
			<point x="534" y="16"/>
			<point x="501" y="16" type="curve" smooth="yes"/>
			<point x="473" y="16"/>
			<point x="417" y="88"/>
			<point x="371" y="151" type="curve"/>
			<point x="423" y="244"/>
			<point x="445" y="314"/>
			<point x="497" y="314" type="curve" smooth="yes"/>
			<point x="523" y="314"/>
			<point x="552" y="299"/>
			<point x="556" y="262" type="curve"/>
			<point x="551" y="269"/>
			<point x="542" y="270"/>
			<point x="535" y="270" type="curve" smooth="yes"/>
			<point x="521" y="270"/>
			<point x="505" y="256"/>
			<point x="505" y="239" type="curve" smooth="yes"/>
			<point x="505" y="219"/>
			<point x="522" y="202"/>
			<point x="542" y="202" type="curve" smooth="yes"/>
			<point x="565" y="202"/>
			<point x="585" y="221"/>
			<point x="585" y="247" type="curve" smooth="yes"/>
			<point x="585" y="307"/>
			<point x="546" y="344"/>
			<point x="497" y="344" type="curve" smooth="yes"/>
			<point x="426" y="344"/>
			<point x="396" y="256"/>
			<point x="351" y="175" type="curve"/>
			<point x="196" y="365" type="line"/>
			<point x="249" y="414"/>
			<point x="277" y="453"/>
			<point x="277" y="499" type="curve" smooth="yes"/>
			<point x="277" y="557"/>
			<point x="233" y="603"/>
			<point x="178" y="603" type="curve" smooth="yes"/>
			<point x="123" y="603"/>
			<point x="79" y="557"/>
			<point x="79" y="499" type="curve" smooth="yes"/>
			<point x="79" y="453"/>
			<point x="102" y="414"/>
		</contour>
		<contour>
			<point x="178" y="387" type="curve"/>
			<point x="131" y="433"/>
			<point x="109" y="463"/>
			<point x="109" y="499" type="curve" smooth="yes"/>
			<point x="109" y="542"/>
			<point x="138" y="573"/>
			<point x="178" y="573" type="curve" smooth="yes"/>
			<point x="218" y="573"/>
			<point x="247" y="542"/>
			<point x="247" y="499" type="curve" smooth="yes"/>
			<point x="247" y="463"/>
			<point x="225" y="433"/>
		</contour>
		<contour>
			<point x="51" y="163" type="curve" smooth="yes"/>
			<point x="51" y="226"/>
			<point x="101" y="273"/>
			<point x="174" y="337" type="curve"/>
			<point x="333" y="145" type="line"/>
			<point x="292" y="81"/>
			<point x="248" y="20"/>
			<point x="187" y="20" type="curve" smooth="yes"/>
			<point x="107" y="20"/>
			<point x="51" y="75"/>
		</contour>
	</outline>
</glyph>
<glyph name="quotesingle" format="2">
	<advance width="600"/>
	<unicode hex="0027"/>
	<note>
		quotesingle
	</note>
	<outline>
		<contour>
			<point x="192" y="466" type="curve" smooth="yes"/>
			<point x="225" y="466"/>
			<point x="252" y="494"/>
			<point x="252" y="522" type="curve" smooth="yes"/>
			<point x="252" y="541"/>
			<point x="246" y="558"/>
			<point x="235" y="567" type="curve"/>
			<point x="264" y="558"/>
			<point x="287" y="515"/>
			<point x="287" y="473" type="curve" smooth="yes"/>
			<point x="287" y="408"/>
			<point x="229" y="342"/>
			<point x="162" y="335" type="curve"/>
			<point x="166" y="310" type="line"/>
			<point x="238" y="317"/>
			<point x="312" y="388"/>
			<point x="312" y="473" type="curve" smooth="yes"/>
			<point x="312" y="548"/>
			<point x="265" y="603"/>
			<point x="204" y="603" type="curve" smooth="yes"/>
			<point x="164" y="603"/>
			<point x="126" y="575"/>
			<point x="126" y="534" type="curve" smooth="yes"/>
			<point x="126" y="495"/>
			<point x="155" y="466"/>
		</contour>
	</outline>
</glyph>
<glyph name="parenleft" format="2">
	<advance width="600"/>
	<unicode hex="0028"/>
	<note>
		parenleft
	</note>
	<outline>
		<contour>
			<point x="232" y="248" type="curve" smooth="yes"/>
			<point x="232" y="92"/>
			<point x="334" y="-55"/>
			<point x="492" y="-111" type="curve"/>
			<point x="500" y="-83" type="line"/>
			<point x="366" y="-36"/>
			<point x="262" y="100"/>
			<point x="262" y="248" type="curve" smooth="yes"/>
			<point x="262" y="394"/>
			<point x="365" y="533"/>
			<point x="500" y="580" type="curve"/>
			<point x="492" y="608" type="line"/>
			<point x="337" y="553"/>
			<point x="232" y="408"/>
		</contour>
	</outline>
</glyph>
<glyph name="plus" format="2">
	<advance width="600"/>
	<unicode hex="002B"/>
	<note>
		plus
	</note>
	<outline>
		<contour>
			<point x="285" y="200" type="line"/>
			<point x="85" y="200" type="line"/>
			<point x="85" y="230" type="line"/>
			<point x="285" y="230" type="line"/>
			<point x="285" y="430" type="line"/>
			<point x="315" y="430" type="line"/>
			<point x="315" y="230" type="line"/>
			<point x="515" y="230" type="line"/>
			<point x="515" y="200" type="line"/>
			<point x="315" y="200" type="line"/>
			<point x="315" y="0" type="line"/>
			<point x="285" y="0" type="line"/>
		</contour>
	</outline>
</glyph>
<glyph name="comma" format="2">
	<advance width="600"/>
	<unicode hex="002C"/>
	<note>
		comma
	</note>
	<outline>
		<contour>
			<point x="273" y="-12" type="curve" smooth="yes"/>
			<point x="306" y="-12"/>
			<point x="333" y="16"/>
			<point x="333" y="44" type="curve" smooth="yes"/>
			<point x="333" y="63"/>
			<point x="327" y="80"/>
			<point x="316" y="89" type="curve"/>
			<point x="345" y="80"/>
			<point x="368" y="37"/>
			<point x="368" y="-5" type="curve" smooth="yes"/>
			<point x="368" y="-70"/>
			<point x="310" y="-136"/>
			<point x="243" y="-143" type="curve"/>
			<point x="247" y="-168" type="line"/>
			<point x="319" y="-161"/>
			<point x="393" y="-90"/>
			<point x="393" y="-5" type="curve" smooth="yes"/>
			<point x="393" y="70"/>
			<point x="346" y="125"/>
			<point x="285" y="125" type="curve" smooth="yes"/>
			<point x="245" y="125"/>
			<point x="207" y="97"/>
			<point x="207" y="56" type="curve" smooth="yes"/>
			<point x="207" y="17"/>
			<point x="236" y="-12"/>
		</contour>
	</outline>
</glyph>
<glyph name="period" format="2">
	<advance width="600"/>
	<unicode hex="002E"/>
	<note>
		period
	</note>
	<outline>
		<contour>
			<point x="301" y="-13" type="curve" smooth="yes"/>
			<point x="337" y="-13"/>
			<point x="366" y="17"/>
			<point x="366" y="53" type="curve" smooth="yes"/>
			<point x="366" y="89"/>
			<point x="337" y="120"/>
			<point x="301" y="120" type="curve" smooth="yes"/>
			<point x="264" y="120"/>
			<point x="233" y="89"/>
			<point x="233" y="53" type="curve" smooth="yes"/>
			<point x="233" y="18"/>
			<point x="264" y="-13"/>
		</contour>
	</outline>
</glyph>
<glyph name="slash" format="2">
	<advance width="600"/>
	<unicode hex="002F"/>
	<note>
		slash
	</note>
	<outline>
		<contour>
			<point x="502" y="603" type="line"/>
			<point x="525" y="584" type="line"/>
			<point x="99" y="-13" type="line"/>
			<point x="76" y="6" type="line"/>
		</contour>
	</outline>
</glyph>
<glyph name="two" format="2">
	<advance width="600"/>
	<unicode hex="0032"/>
	<note>
		two
	</note>
	<outline>
		<contour>
			<point x="108" y="446" type="curve"/>
			<point x="110" y="517"/>
			<point x="210" y="573"/>
			<point x="293" y="573" type="curve" smooth="yes"/>
			<point x="384" y="573"/>
			<point x="470" y="531"/>
			<point x="470" y="448" type="curve" smooth="yes"/>
			<point x="470" y="374"/>
			<point x="440" y="344"/>
			<point x="339" y="301" type="curve" smooth="yes"/>
			<point x="228" y="254" type="line" smooth="yes"/>
			<point x="103" y="201"/>
			<point x="60" y="139"/>
			<point x="60" y="2" type="curve"/>
			<point x="92" y="-4" type="line"/>
			<point x="123" y="27"/>
			<point x="165" y="52"/>
			<point x="208" y="52" type="curve" smooth="yes"/>
			<point x="271" y="52"/>
			<point x="338" y="-13"/>
			<point x="416" y="-13" type="curve" smooth="yes"/>
			<point x="508" y="-13"/>
			<point x="541" y="44"/>
			<point x="541" y="155" type="curve" smooth="yes"/>
			<point x="541" y="171" type="line"/>
			<point x="513" y="174" type="line"/>
			<point x="513" y="150" type="line" smooth="yes"/>
			<point x="513" y="75"/>
			<point x="486" y="17"/>
			<point x="416" y="17" type="curve" smooth="yes"/>
			<point x="352" y="17"/>
			<point x="275" y="82"/>
			<point x="208" y="82" type="curve" smooth="yes"/>
			<point x="174" y="82"/>
			<point x="133" y="68"/>
			<point x="91" y="31" type="curve"/>
			<point x="91" y="137"/>
			<point x="144" y="187"/>
			<point x="247" y="230" type="curve" smooth="yes"/>
			<point x="354" y="275" type="line" smooth="yes"/>
			<point x="453" y="317"/>
			<point x="500" y="352"/>
			<point x="500" y="448" type="curve" smooth="yes"/>
			<point x="500" y="553"/>
			<point x="407" y="603"/>
			<point x="293" y="603" type="curve" smooth="yes"/>
			<point x="185" y="603"/>
			<point x="75" y="538"/>
			<point x="75" y="441" type="curve" smooth="yes"/>
			<point x="75" y="397"/>
			<point x="109" y="375"/>
			<point x="134" y="375" type="curve" smooth="yes"/>
			<point x="164" y="375"/>
			<point x="187" y="394"/>
			<point x="187" y="422" type="curve" smooth="yes"/>
			<point x="187" y="447"/>
			<point x="167" y="467"/>
			<point x="146" y="467" type="curve" smooth="yes"/>
			<point x="128" y="467"/>
			<point x="114" y="459"/>
		</contour>
	</outline>
</glyph>
<glyph name="five" format="2">
	<advance width="600"/>
	<unicode hex="0035"/>
	<note>
		five
	</note>
	<outline>
		<contour>
			<point x="122" y="152" type="curve"/>
			<point x="122" y="78"/>
			<point x="195" y="16"/>
			<point x="298" y="16" type="curve" smooth="yes"/>
			<point x="401" y="16"/>
			<point x="490" y="84"/>
			<point x="490" y="188" type="curve" smooth="yes"/>
			<point x="490" y="290"/>
			<point x="403" y="353"/>
			<point x="305" y="353" type="curve" smooth="yes"/>
			<point x="222" y="353"/>
			<point x="184" y="324"/>
			<point x="141" y="297" type="curve"/>
			<point x="108" y="314" type="line"/>
			<point x="149" y="590" type="line"/>
			<point x="487" y="590" type="line"/>
			<point x="487" y="560" type="line"/>
			<point x="175" y="560" type="line"/>
			<point x="141" y="330" type="line"/>
			<point x="195" y="367"/>
			<point x="238" y="383"/>
			<point x="315" y="383" type="curve" smooth="yes"/>
			<point x="429" y="383"/>
			<point x="520" y="301"/>
			<point x="520" y="188" type="curve" smooth="yes"/>
			<point x="520" y="64"/>
			<point x="418" y="-14"/>
			<point x="298" y="-14" type="curve" smooth="yes"/>
			<point x="178" y="-14"/>
			<point x="89" y="62"/>
			<point x="89" y="157" type="curve" smooth="yes"/>
			<point x="89" y="201"/>
			<point x="123" y="223"/>
			<point x="148" y="223" type="curve" smooth="yes"/>
			<point x="178" y="223"/>
			<point x="201" y="204"/>
			<point x="201" y="176" type="curve" smooth="yes"/>
			<point x="201" y="151"/>
			<point x="181" y="130"/>
			<point x="160" y="130" type="curve" smooth="yes"/>
			<point x="142" y="130"/>
			<point x="128" y="139"/>
		</contour>
	</outline>
</glyph>
<glyph name="semicolon" format="2">
	<advance width="600"/>
	<unicode hex="003B"/>
	<note>
		semicolon
	</note>
	<outline>
		<contour>
			<point x="262" y="310" type="curve" smooth="yes"/>
			<point x="298" y="310"/>
			<point x="327" y="340"/>
			<point x="327" y="376" type="curve" smooth="yes"/>
			<point x="327" y="412"/>
			<point x="298" y="443"/>
			<point x="262" y="443" type="curve" smooth="yes"/>
			<point x="225" y="443"/>
			<point x="194" y="412"/>
			<point x="194" y="376" type="curve" smooth="yes"/>
			<point x="194" y="341"/>
			<point x="225" y="310"/>
		</contour>
		<contour>
			<point x="259" y="-13" type="curve" smooth="yes"/>
			<point x="292" y="-13"/>
			<point x="319" y="15"/>
			<point x="319" y="43" type="curve" smooth="yes"/>
			<point x="319" y="62"/>
			<point x="313" y="79"/>
			<point x="302" y="88" type="curve"/>
			<point x="331" y="79"/>
			<point x="354" y="36"/>
			<point x="354" y="-6" type="curve" smooth="yes"/>
			<point x="354" y="-71"/>
			<point x="296" y="-137"/>
			<point x="229" y="-144" type="curve"/>
			<point x="233" y="-169" type="line"/>
			<point x="305" y="-162"/>
			<point x="379" y="-91"/>
			<point x="379" y="-6" type="curve" smooth="yes"/>
			<point x="379" y="69"/>
			<point x="332" y="124"/>
			<point x="271" y="124" type="curve" smooth="yes"/>
			<point x="231" y="124"/>
			<point x="193" y="96"/>
			<point x="193" y="55" type="curve" smooth="yes"/>
			<point x="193" y="16"/>
			<point x="222" y="-13"/>
		</contour>
	</outline>
</glyph>
<glyph name="question" format="2">
	<advance width="600"/>
	<unicode hex="003F"/>
	<note>
		question
	</note>
	<outline>
		<contour>
			<point x="506" y="446" type="curve" smooth="yes"/>
			<point x="507" y="561"/>
			<point x="393" y="603"/>
			<point x="300" y="603" type="curve" smooth="yes"/>
			<point x="180" y="603"/>
			<point x="84" y="542"/>
			<point x="84" y="453" type="curve" smooth="yes"/>
			<point x="84" y="413"/>
			<point x="115" y="392"/>
			<point x="140" y="392" type="curve" smooth="yes"/>
			<point x="166" y="392"/>
			<point x="187" y="412"/>
			<point x="187" y="438" type="curve" smooth="yes"/>
			<point x="187" y="457"/>
			<point x="168" y="480"/>
			<point x="146" y="480" type="curve" smooth="yes"/>
			<point x="127" y="480"/>
			<point x="118" y="470"/>
			<point x="113" y="467" type="curve"/>
			<point x="113" y="523"/>
			<point x="195" y="573"/>
			<point x="300" y="573" type="curve" smooth="yes"/>
			<point x="390" y="573"/>
			<point x="476" y="530"/>
			<point x="476" y="446" type="curve" smooth="yes"/>
			<point x="476" y="385"/>
			<point x="438" y="361"/>
			<point x="378" y="328" type="curve" smooth="yes"/>
			<point x="325" y="299" type="line" smooth="yes"/>
			<point x="250" y="258"/>
			<point x="207" y="241"/>
			<point x="207" y="194" type="curve" smooth="yes"/>
			<point x="207" y="167"/>
			<point x="233" y="134"/>
			<point x="273" y="134" type="curve" smooth="yes"/>
			<point x="302" y="134"/>
			<point x="322" y="143"/>
			<point x="350" y="169" type="curve"/>
			<point x="331" y="190" type="line"/>
			<point x="318" y="178"/>
			<point x="297" y="164"/>
			<point x="273" y="164" type="curve" smooth="yes"/>
			<point x="251" y="164"/>
			<point x="237" y="177"/>
			<point x="237" y="194" type="curve" smooth="yes"/>
			<point x="237" y="221"/>
			<point x="267" y="234"/>
			<point x="339" y="273" type="curve" smooth="yes"/>
			<point x="391" y="301" type="line" smooth="yes"/>
			<point x="451" y="333"/>
			<point x="505" y="364"/>
		</contour>
		<contour>
			<point x="283" y="-13" type="curve" smooth="yes"/>
			<point x="311" y="-13"/>
			<point x="334" y="11"/>
			<point x="334" y="38" type="curve" smooth="yes"/>
			<point x="334" y="65"/>
			<point x="311" y="89"/>
			<point x="283" y="89" type="curve" smooth="yes"/>
			<point x="255" y="89"/>
			<point x="231" y="65"/>
			<point x="231" y="38" type="curve" smooth="yes"/>
			<point x="231" y="11"/>
			<point x="255" y="-13"/>
		</contour>
	</outline>
</glyph>
<glyph name="at" format="2">
	<advance width="600"/>
	<unicode hex="0040"/>
	<note>
		at
	</note>
	<outline>
		<contour>
			<point x="456" y="176" type="curve"/>
			<point x="456" y="159" type="line" smooth="yes"/>
			<point x="457" y="97"/>
			<point x="482" y="80"/>
			<point x="511" y="80" type="curve" smooth="yes"/>
			<point x="542" y="80"/>
			<point x="563" y="110"/>
			<point x="583" y="152" type="curve"/>
			<point x="556" y="165" type="line"/>
			<point x="540" y="133"/>
			<point x="525" y="110"/>
			<point x="511" y="110" type="curve" smooth="yes"/>
			<point x="495" y="110"/>
			<point x="486" y="125"/>
			<point x="486" y="159" type="curve" smooth="yes"/>
			<point x="486" y="413" type="line" smooth="yes"/>
			<point x="486" y="496"/>
			<point x="414" y="532"/>
			<point x="322" y="532" type="curve" smooth="yes"/>
			<point x="148" y="532"/>
			<point x="29" y="412"/>
			<point x="29" y="224" type="curve" smooth="yes"/>
			<point x="29" y="40"/>
			<point x="124" y="-89"/>
			<point x="301" y="-92" type="curve" smooth="yes"/>
			<point x="351" y="-93"/>
			<point x="450" y="-79"/>
			<point x="490" y="-48" type="curve"/>
			<point x="476" y="-22" type="line"/>
			<point x="426" y="-54"/>
			<point x="345" y="-63"/>
			<point x="301" y="-62" type="curve" smooth="yes"/>
			<point x="143" y="-58"/>
			<point x="59" y="56"/>
			<point x="59" y="224" type="curve" smooth="yes"/>
			<point x="59" y="388"/>
			<point x="159" y="502"/>
			<point x="322" y="502" type="curve" smooth="yes"/>
			<point x="396" y="502"/>
			<point x="456" y="479"/>
			<point x="456" y="409" type="curve" smooth="yes"/>
			<point x="456" y="359"/>
			<point x="405" y="350"/>
			<point x="338" y="348" type="curve" smooth="yes"/>
			<point x="257" y="346"/>
			<point x="187" y="290"/>
			<point x="187" y="206" type="curve" smooth="yes"/>
			<point x="187" y="135"/>
			<point x="235" y="80"/>
			<point x="300" y="80" type="curve" smooth="yes"/>
			<point x="362" y="80"/>
			<point x="393" y="103"/>
		</contour>
		<contour>
			<point x="217" y="207" type="curve" smooth="yes"/>
			<point x="217" y="272"/>
			<point x="271" y="316"/>
			<point x="336" y="318" type="curve" smooth="yes"/>
			<point x="385" y="320"/>
			<point x="435" y="325"/>
			<point x="456" y="347" type="curve"/>
			<point x="456" y="224" type="line"/>
			<point x="408" y="165"/>
			<point x="367" y="110"/>
			<point x="301" y="110" type="curve" smooth="yes"/>
			<point x="251" y="110"/>
			<point x="217" y="153"/>
		</contour>
	</outline>
</glyph>
<glyph name="D" format="2">
	<advance width="600"/>
	<unicode hex="0044"/>
	<note>
		D
	</note>
	<outline>
		<contour>
			<point x="27" y="603" type="curve"/>
			<point x="20" y="575" type="line"/>
			<point x="52" y="568"/>
			<point x="99" y="560"/>
			<point x="130" y="560" type="curve" smooth="yes"/>
			<point x="131" y="560" type="line"/>
			<point x="131" y="30" type="line"/>
			<point x="38" y="30" type="line"/>
			<point x="38" y="0" type="line"/>
			<point x="279" y="0" type="line" smooth="yes"/>
			<point x="356" y="0"/>
			<point x="420" y="22"/>
			<point x="469" y="61" type="curve" smooth="yes"/>
			<point x="532" y="111"/>
			<point x="570" y="192"/>
			<point x="570" y="290" type="curve" smooth="yes"/>
			<point x="570" y="378"/>
			<point x="541" y="456"/>
			<point x="488" y="511" type="curve" smooth="yes"/>
			<point x="439" y="561"/>
			<point x="371" y="593"/>
			<point x="297" y="593" type="curve" smooth="yes"/>
			<point x="254" y="593"/>
			<point x="224" y="589"/>
			<point x="169" y="589" type="curve" smooth="yes"/>
			<point x="118" y="589"/>
			<point x="77" y="592"/>
		</contour>
		<contour>
			<point x="279" y="30" type="curve" smooth="yes"/>
			<point x="161" y="30" type="line"/>
			<point x="161" y="558" type="line"/>
			<point x="181" y="559"/>
			<point x="268" y="563"/>
			<point x="296" y="563" type="curve" smooth="yes"/>
			<point x="437" y="563"/>
			<point x="540" y="446"/>
			<point x="540" y="290" type="curve" smooth="yes"/>
			<point x="540" y="129"/>
			<point x="431" y="30"/>
		</contour>
	</outline>
</glyph>
<glyph name="G" format="2">
	<advance width="600"/>
	<unicode hex="0047"/>
	<note>
		G
	</note>
	<outline>
		<contour>
			<point x="474" y="455" type="curve"/>
			<point x="465" y="533"/>
			<point x="380" y="573"/>
			<point x="286" y="573" type="curve" smooth="yes"/>
			<point x="145" y="573"/>
			<point x="59" y="454"/>
			<point x="59" y="288" type="curve" smooth="yes"/>
			<point x="59" y="130"/>
			<point x="139" y="17"/>
			<point x="283" y="17" type="curve" smooth="yes"/>
			<point x="373" y="17"/>
			<point x="479" y="114"/>
			<point x="479" y="206" type="curve" smooth="yes"/>
			<point x="479" y="235" type="line"/>
			<point x="290" y="235" type="line"/>
			<point x="290" y="265" type="line"/>
			<point x="582" y="265" type="line"/>
			<point x="582" y="235" type="line"/>
			<point x="509" y="235" type="line"/>
			<point x="509" y="0" type="line"/>
			<point x="479" y="0" type="line"/>
			<point x="479" y="116" type="line"/>
			<point x="441" y="46"/>
			<point x="365" y="-13"/>
			<point x="283" y="-13" type="curve" smooth="yes"/>
			<point x="120" y="-13"/>
			<point x="29" y="117"/>
			<point x="29" y="288" type="curve" smooth="yes"/>
			<point x="29" y="465"/>
			<point x="123" y="603"/>
			<point x="286" y="603" type="curve" smooth="yes"/>
			<point x="420" y="603"/>
			<point x="505" y="536"/>
			<point x="505" y="439" type="curve" smooth="yes"/>
			<point x="505" y="398"/>
			<point x="482" y="367"/>
			<point x="448" y="367" type="curve" smooth="yes"/>
			<point x="410" y="367"/>
			<point x="388" y="392"/>
			<point x="388" y="424" type="curve" smooth="yes"/>
			<point x="388" y="473"/>
			<point x="451" y="488"/>
		</contour>
	</outline>
</glyph>
<glyph name="J" format="2">
	<advance width="600"/>
	<unicode hex="004A"/>
	<note>
		J
	</note>
	<outline>
		<contour>
			<point x="139" y="268" type="curve" smooth="yes"/>
			<point x="98" y="268"/>
			<point x="53" y="224"/>
			<point x="53" y="145" type="curve" smooth="yes"/>
			<point x="53" y="52"/>
			<point x="152" y="-13"/>
			<point x="245" y="-13" type="curve" smooth="yes"/>
			<point x="382" y="-13"/>
			<point x="447" y="84"/>
			<point x="447" y="243" type="curve" smooth="yes"/>
			<point x="447" y="560" type="line"/>
			<point x="582" y="560" type="line"/>
			<point x="582" y="590" type="line"/>
			<point x="172" y="590" type="line"/>
			<point x="172" y="560" type="line"/>
			<point x="417" y="560" type="line"/>
			<point x="417" y="243" type="line" smooth="yes"/>
			<point x="417" y="107"/>
			<point x="371" y="17"/>
			<point x="244" y="17" type="curve" smooth="yes"/>
			<point x="161" y="17"/>
			<point x="87" y="73"/>
			<point x="83" y="145" type="curve" smooth="yes"/>
			<point x="81" y="186"/>
			<point x="94" y="202"/>
			<point x="107" y="216" type="curve"/>
			<point x="101" y="194"/>
			<point x="119" y="165"/>
			<point x="152" y="165" type="curve" smooth="yes"/>
			<point x="181" y="165"/>
			<point x="200" y="184"/>
			<point x="199" y="215" type="curve" smooth="yes"/>
			<point x="198" y="244"/>
			<point x="179" y="268"/>
		</contour>
	</outline>
</glyph>
<glyph name="M" format="2">
	<advance width="600"/>
	<unicode hex="004D"/>
	<note>
		M
	</note>
	<outline>
		<contour>
			<point x="318" y="64" type="line"/>
			<point x="282" y="64" type="line"/>
			<point x="118" y="553" type="line"/>
			<point x="118" y="30" type="line"/>
			<point x="184" y="30" type="line"/>
			<point x="184" y="0" type="line"/>
			<point x="32" y="0" type="line"/>
			<point x="32" y="30" type="line"/>
			<point x="88" y="30" type="line"/>
			<point x="88" y="560" type="line"/>
			<point x="32" y="560" type="line"/>
			<point x="32" y="590" type="line"/>
			<point x="137" y="590" type="line"/>
			<point x="300" y="103" type="line"/>
			<point x="463" y="590" type="line"/>
			<point x="570" y="590" type="line"/>
			<point x="570" y="560" type="line"/>
			<point x="512" y="560" type="line"/>
			<point x="512" y="30" type="line"/>
			<point x="568" y="30" type="line"/>
			<point x="568" y="0" type="line"/>
			<point x="416" y="0" type="line"/>
			<point x="416" y="30" type="line"/>
			<point x="482" y="30" type="line"/>
			<point x="482" y="553" type="line"/>
		</contour>
	</outline>
</glyph>
<glyph name="P" format="2">
	<advance width="600"/>
	<unicode hex="0050"/>
	<note>
		P
	</note>
	<outline>
		<contour>
			<point x="331" y="593" type="curve" smooth="yes"/>
			<point x="303" y="593"/>
			<point x="215" y="592"/>
			<point x="172" y="590" type="curve"/>
			<point x="130" y="591"/>
			<point x="93" y="593"/>
			<point x="50" y="603" type="curve"/>
			<point x="43" y="575" type="line"/>
			<point x="72" y="569"/>
			<point x="113" y="561"/>
			<point x="144" y="560" type="curve"/>
			<point x="144" y="30" type="line"/>
			<point x="43" y="30" type="line"/>
			<point x="43" y="0" type="line"/>
			<point x="285" y="0" type="line"/>
			<point x="285" y="30" type="line"/>
			<point x="174" y="30" type="line"/>
			<point x="174" y="220" type="line"/>
			<point x="202" y="220"/>
			<point x="274" y="218"/>
			<point x="312" y="218" type="curve" smooth="yes"/>
			<point x="460" y="218"/>
			<point x="555" y="282"/>
			<point x="556" y="403" type="curve" smooth="yes"/>
			<point x="557" y="532"/>
			<point x="454" y="593"/>
		</contour>
		<contour>
			<point x="312" y="248" type="curve" smooth="yes"/>
			<point x="277" y="248"/>
			<point x="222" y="250"/>
			<point x="174" y="250" type="curve"/>
			<point x="174" y="559" type="line"/>
			<point x="201" y="559"/>
			<point x="307" y="563"/>
			<point x="331" y="563" type="curve" smooth="yes"/>
			<point x="434" y="563"/>
			<point x="526" y="517"/>
			<point x="526" y="403" type="curve" smooth="yes"/>
			<point x="526" y="296"/>
			<point x="437" y="248"/>
		</contour>
	</outline>
</glyph>
<glyph name="Q" format="2">
	<advance width="600"/>
	<unicode hex="0051"/>
	<note>
		Q
	</note>
	<outline>
		<contour>
			<point x="40" y="295" type="curve" smooth="yes"/>
			<point x="40" y="130"/>
			<point x="140" y="-5"/>
			<point x="288" y="-13" type="curve"/>
			<point x="288" y="-44" type="line" smooth="yes"/>
			<point x="288" y="-130"/>
			<point x="327" y="-172"/>
			<point x="387" y="-172" type="curve" smooth="yes"/>
			<point x="442" y="-172"/>
			<point x="484" y="-128"/>
			<point x="484" y="-30" type="curve"/>
			<point x="454" y="-30" type="line"/>
			<point x="453" y="-84"/>
			<point x="439" y="-142"/>
			<point x="387" y="-142" type="curve" smooth="yes"/>
			<point x="338" y="-142"/>
			<point x="318" y="-106"/>
			<point x="318" y="-45" type="curve" smooth="yes"/>
			<point x="318" y="-12" type="line"/>
			<point x="464" y="-3"/>
			<point x="561" y="131"/>
			<point x="561" y="295" type="curve" smooth="yes"/>
			<point x="561" y="465"/>
			<point x="456" y="603"/>
			<point x="301" y="603" type="curve" smooth="yes"/>
			<point x="146" y="603"/>
			<point x="40" y="465"/>
		</contour>
		<contour>
			<point x="70" y="295" type="curve" smooth="yes"/>
			<point x="70" y="450"/>
			<point x="168" y="573"/>
			<point x="301" y="573" type="curve" smooth="yes"/>
			<point x="434" y="573"/>
			<point x="531" y="450"/>
			<point x="531" y="295" type="curve" smooth="yes"/>
			<point x="531" y="147"/>
			<point x="442" y="28"/>
			<point x="318" y="18" type="curve"/>
			<point x="318" y="87" type="line" smooth="yes"/>
			<point x="318" y="191"/>
			<point x="286" y="255"/>
			<point x="205" y="255" type="curve" smooth="yes"/>
			<point x="146" y="255"/>
			<point x="110" y="213"/>
			<point x="99" y="156" type="curve"/>
			<point x="81" y="197"/>
			<point x="70" y="244"/>
		</contour>
		<contour>
			<point x="121" y="118" type="curve"/>
			<point x="130" y="185"/>
			<point x="159" y="225"/>
			<point x="205" y="225" type="curve" smooth="yes"/>
			<point x="265" y="225"/>
			<point x="288" y="184"/>
			<point x="288" y="87" type="curve" smooth="yes"/>
			<point x="288" y="17" type="line"/>
			<point x="219" y="22"/>
			<point x="160" y="60"/>
		</contour>
	</outline>
</glyph>
<glyph name="R" format="2">
	<advance width="600"/>
	<unicode hex="0052"/>
	<note>
		R
	</note>
	<outline>
		<contour>
			<point x="587" y="126" type="curve"/>
			<point x="557" y="126" type="line"/>
			<point x="557" y="61"/>
			<point x="547" y="17"/>
			<point x="501" y="17" type="curve" smooth="yes"/>
			<point x="458" y="17"/>
			<point x="437" y="81"/>
			<point x="412" y="184" type="curve" smooth="yes"/>
			<point x="407" y="205"/>
			<point x="390" y="254"/>
			<point x="350" y="275" type="curve"/>
			<point x="448" y="295"/>
			<point x="510" y="352"/>
			<point x="511" y="433" type="curve" smooth="yes"/>
			<point x="512" y="540"/>
			<point x="423" y="593"/>
			<point x="289" y="593" type="curve" smooth="yes"/>
			<point x="265" y="593"/>
			<point x="172" y="592"/>
			<point x="129" y="590" type="curve"/>
			<point x="95" y="590"/>
			<point x="65" y="592"/>
			<point x="32" y="598" type="curve"/>
			<point x="26" y="570" type="line"/>
			<point x="52" y="566"/>
			<point x="79" y="561"/>
			<point x="102" y="560" type="curve"/>
			<point x="102" y="30" type="line"/>
			<point x="24" y="30" type="line"/>
			<point x="24" y="0" type="line"/>
			<point x="223" y="0" type="line"/>
			<point x="223" y="30" type="line"/>
			<point x="132" y="30" type="line"/>
			<point x="132" y="270" type="line"/>
			<point x="158" y="270"/>
			<point x="218" y="268"/>
			<point x="261" y="268" type="curve" smooth="yes"/>
			<point x="333" y="268"/>
			<point x="370" y="239"/>
			<point x="385" y="170" type="curve"/>
			<point x="413" y="63"/>
			<point x="432" y="-13"/>
			<point x="501" y="-13" type="curve" smooth="yes"/>
			<point x="568" y="-13"/>
			<point x="587" y="43"/>
		</contour>
		<contour>
			<point x="132" y="300" type="curve"/>
			<point x="132" y="559" type="line"/>
			<point x="159" y="559"/>
			<point x="270" y="563"/>
			<point x="289" y="563" type="curve" smooth="yes"/>
			<point x="392" y="563"/>
			<point x="481" y="531"/>
			<point x="481" y="433" type="curve" smooth="yes"/>
			<point x="481" y="346"/>
			<point x="395" y="298"/>
			<point x="270" y="298" type="curve" smooth="yes"/>
			<point x="230" y="298"/>
			<point x="180" y="300"/>
		</contour>
	</outline>
</glyph>
<glyph name="S" format="2">
	<advance width="600"/>
	<unicode hex="0053"/>
	<note>
		S
	</note>
	<outline>
		<contour>
			<point x="485" y="487" type="curve"/>
			<point x="472" y="540"/>
			<point x="385" y="573"/>
			<point x="297" y="573" type="curve" smooth="yes"/>
			<point x="210" y="573"/>
			<point x="116" y="529"/>
			<point x="116" y="462" type="curve" smooth="yes"/>
			<point x="116" y="388"/>
			<point x="171" y="358"/>
			<point x="269" y="339" type="curve" smooth="yes"/>
			<point x="343" y="325" type="line" smooth="yes"/>
			<point x="453" y="304"/>
			<point x="535" y="252"/>
			<point x="535" y="156" type="curve" smooth="yes"/>
			<point x="535" y="44"/>
			<point x="425" y="-13"/>
			<point x="309" y="-13" type="curve" smooth="yes"/>
			<point x="195" y="-13"/>
			<point x="65" y="42"/>
			<point x="65" y="133" type="curve" smooth="yes"/>
			<point x="65" y="174"/>
			<point x="88" y="203"/>
			<point x="123" y="203" type="curve" smooth="yes"/>
			<point x="157" y="203"/>
			<point x="183" y="178"/>
			<point x="183" y="146" type="curve" smooth="yes"/>
			<point x="183" y="97"/>
			<point x="123" y="80"/>
			<point x="99" y="111" type="curve"/>
			<point x="134" y="42"/>
			<point x="210" y="17"/>
			<point x="309" y="17" type="curve" smooth="yes"/>
			<point x="420" y="17"/>
			<point x="505" y="70"/>
			<point x="505" y="156" type="curve" smooth="yes"/>
			<point x="505" y="233"/>
			<point x="435" y="278"/>
			<point x="341" y="295" type="curve" smooth="yes"/>
			<point x="263" y="309" type="line" smooth="yes"/>
			<point x="160" y="327"/>
			<point x="86" y="370"/>
			<point x="86" y="462" type="curve" smooth="yes"/>
			<point x="86" y="550"/>
			<point x="195" y="603"/>
			<point x="297" y="603" type="curve" smooth="yes"/>
			<point x="410" y="603"/>
			<point x="520" y="556"/>
			<point x="520" y="468" type="curve" smooth="yes"/>
			<point x="520" y="427"/>
			<point x="495" y="397"/>
			<point x="461" y="397" type="curve" smooth="yes"/>
			<point x="426" y="397"/>
			<point x="399" y="421"/>
			<point x="399" y="453" type="curve" smooth="yes"/>
			<point x="399" y="502"/>
			<point x="461" y="520"/>
		</contour>
	</outline>
</glyph>
<glyph name="T" format="2">
	<advance width="600"/>
	<unicode hex="0054"/>
	<note>
		T
	</note>
	<outline>
		<contour>
			<point x="70" y="300" type="line"/>
			<point x="40" y="303" type="line"/>
			<point x="63" y="590" type="line"/>
			<point x="542" y="590" type="line"/>
			<point x="566" y="303" type="line"/>
			<point x="536" y="300" type="line"/>
			<point x="514" y="560" type="line"/>
			<point x="318" y="560" type="line"/>
			<point x="318" y="30" type="line"/>
			<point x="443" y="30" type="line"/>
			<point x="443" y="0" type="line"/>
			<point x="163" y="0" type="line"/>
			<point x="163" y="30" type="line"/>
			<point x="288" y="30" type="line"/>
			<point x="288" y="560" type="line"/>
			<point x="92" y="560" type="line"/>
		</contour>
	</outline>
</glyph>
<glyph name="U" format="2">
	<advance width="600"/>
	<unicode hex="0055"/>
	<guideline x="320" y="301" angle="0"/>
	<anchor x="296" y="590" name="top"/>
	<note>
		U
	</note>
	<outline>
		<contour>
			<point x="33" y="590" type="line"/>
			<point x="33" y="560" type="line"/>
			<point x="104" y="560" type="line"/>
			<point x="104" y="208" type="line" smooth="yes"/>
			<point x="104" y="75"/>
			<point x="177" y="-13"/>
			<point x="300" y="-13" type="curve" smooth="yes"/>
			<point x="423" y="-13"/>
			<point x="496" y="75"/>
			<point x="496" y="208" type="curve" smooth="yes"/>
			<point x="496" y="560" type="line"/>
			<point x="567" y="560" type="line"/>
			<point x="567" y="590" type="line"/>
			<point x="368" y="590" type="line"/>
			<point x="368" y="560" type="line"/>
			<point x="466" y="560" type="line"/>
			<point x="466" y="208" type="line" smooth="yes"/>
			<point x="466" y="95"/>
			<point x="410" y="17"/>
			<point x="300" y="17" type="curve" smooth="yes"/>
			<point x="190" y="17"/>
			<point x="134" y="95"/>
			<point x="134" y="208" type="curve" smooth="yes"/>
			<point x="134" y="560" type="line"/>
			<point x="232" y="560" type="line"/>
			<point x="232" y="590" type="line"/>
		</contour>
	</outline>
</glyph>
<glyph name="V" format="2">
	<advance width="600"/>
	<unicode hex="0056"/>
	<note>
		V
	</note>
	<outline>
		<contour>
			<point x="29" y="590" type="line"/>
			<point x="29" y="560" type="line"/>
			<point x="74" y="560" type="line"/>
			<point x="279" y="0" type="line"/>
			<point x="321" y="0" type="line"/>
			<point x="526" y="560" type="line"/>
			<point x="571" y="560" type="line"/>
			<point x="571" y="590" type="line"/>
			<point x="386" y="590" type="line"/>
			<point x="386" y="560" type="line"/>
			<point x="494" y="560" type="line"/>
			<point x="300" y="29" type="line"/>
			<point x="106" y="560" type="line"/>
			<point x="214" y="560" type="line"/>
			<point x="214" y="590" type="line"/>
		</contour>
	</outline>
</glyph>
<glyph name="W" format="2">
	<advance width="600"/>
	<unicode hex="0057"/>
	<note>
		W
	</note>
	<outline>
		<contour>
			<point x="580" y="590" type="line"/>
			<point x="427" y="590" type="line"/>
			<point x="427" y="560" type="line"/>
			<point x="516" y="560" type="line"/>
			<point x="410" y="42" type="line"/>
			<point x="315" y="500" type="line"/>
			<point x="284" y="500" type="line"/>
			<point x="189" y="42" type="line"/>
			<point x="83" y="560" type="line"/>
			<point x="172" y="560" type="line"/>
			<point x="172" y="590" type="line"/>
			<point x="19" y="590" type="line"/>
			<point x="19" y="560" type="line"/>
			<point x="52" y="560" type="line"/>
			<point x="166" y="0" type="line"/>
			<point x="211" y="0" type="line"/>
			<point x="300" y="425" type="line"/>
			<point x="388" y="0" type="line"/>
			<point x="433" y="0" type="line"/>
			<point x="547" y="560" type="line"/>
			<point x="580" y="560" type="line"/>
		</contour>
	</outline>
</glyph>
<glyph name="X" format="2">
	<advance width="600"/>
	<unicode hex="0058"/>
	<note>
		X
	</note>
	<outline>
		<contour>
			<point x="490" y="560" type="line"/>
			<point x="559" y="560" type="line"/>
			<point x="559" y="590" type="line"/>
			<point x="375" y="590" type="line"/>
			<point x="375" y="560" type="line"/>
			<point x="454" y="560" type="line"/>
			<point x="299" y="323" type="line"/>
			<point x="144" y="560" type="line"/>
			<point x="223" y="560" type="line"/>
			<point x="223" y="590" type="line"/>
			<point x="39" y="590" type="line"/>
			<point x="39" y="560" type="line"/>
			<point x="108" y="560" type="line"/>
			<point x="281" y="295" type="line"/>
			<point x="108" y="30" type="line"/>
			<point x="39" y="30" type="line"/>
			<point x="39" y="0" type="line"/>
			<point x="223" y="0" type="line"/>
			<point x="223" y="30" type="line"/>
			<point x="144" y="30" type="line"/>
			<point x="299" y="267" type="line"/>
			<point x="454" y="30" type="line"/>
			<point x="375" y="30" type="line"/>
			<point x="375" y="0" type="line"/>
			<point x="559" y="0" type="line"/>
			<point x="559" y="30" type="line"/>
			<point x="490" y="30" type="line"/>
			<point x="317" y="295" type="line"/>
		</contour>
	</outline>
</glyph>
<glyph name="Y" format="2">
	<advance width="600"/>
	<unicode hex="0059"/>
	<anchor x="296" y="588" name="top"/>
	<note>
		Y
	</note>
	<outline>
		<contour>
			<point x="105" y="560" type="line"/>
			<point x="32" y="560" type="line"/>
			<point x="32" y="590" type="line"/>
			<point x="240" y="590" type="line"/>
			<point x="240" y="560" type="line"/>
			<point x="139" y="560" type="line"/>
			<point x="300" y="263" type="line"/>
			<point x="461" y="560" type="line"/>
			<point x="360" y="560" type="line"/>
			<point x="360" y="590" type="line"/>
			<point x="568" y="590" type="line"/>
			<point x="568" y="560" type="line"/>
			<point x="495" y="560" type="line"/>
			<point x="316" y="229" type="line"/>
			<point x="316" y="30" type="line"/>
			<point x="435" y="30" type="line"/>
			<point x="435" y="0" type="line"/>
			<point x="165" y="0" type="line"/>
			<point x="165" y="30" type="line"/>
			<point x="284" y="30" type="line"/>
			<point x="284" y="229" type="line"/>
		</contour>
	</outline>
</glyph>
<glyph name="Z" format="2">
	<advance width="600"/>
	<unicode hex="005A"/>
	<note>
		Z
	</note>
	<outline>
		<contour>
			<point x="97" y="590" type="line"/>
			<point x="73" y="303" type="line"/>
			<point x="103" y="301" type="line"/>
			<point x="125" y="560" type="line"/>
			<point x="476" y="560" type="line"/>
			<point x="80" y="30" type="line"/>
			<point x="80" y="0" type="line"/>
			<point x="498" y="0" type="line"/>
			<point x="522" y="287" type="line"/>
			<point x="492" y="290" type="line"/>
			<point x="470" y="30" type="line"/>
			<point x="117" y="30" type="line"/>
			<point x="514" y="560" type="line"/>
			<point x="514" y="590" type="line"/>
		</contour>
	</outline>
</glyph>
<glyph name="bracketleft" format="2">
	<advance width="600"/>
	<unicode hex="005B"/>
	<note>
		bracketleft
	</note>
	<outline>
		<contour>
			<point x="519" y="-63" type="line"/>
			<point x="519" y="-93" type="line"/>
			<point x="260" y="-93" type="line"/>
			<point x="260" y="590" type="line"/>
			<point x="519" y="590" type="line"/>
			<point x="519" y="560" type="line"/>
			<point x="290" y="560" type="line"/>
			<point x="290" y="-63" type="line"/>
		</contour>
	</outline>
</glyph>
<glyph name="backslash" format="2">
	<advance width="600"/>
	<unicode hex="005C"/>
	<note>
		backslash
	</note>
	<outline>
		<contour>
			<point x="502" y="-13" type="line"/>
			<point x="76" y="584" type="line"/>
			<point x="99" y="603" type="line"/>
			<point x="525" y="6" type="line"/>
		</contour>
	</outline>
</glyph>
<glyph name="asciicircum" format="2">
	<advance width="600"/>
	<unicode hex="005E"/>
	<note>
		asciicircum
	</note>
	<outline>
		<contour>
			<point x="150" y="360" type="line"/>
			<point x="282" y="603" type="line"/>
			<point x="318" y="603" type="line"/>
			<point x="450" y="360" type="line"/>
			<point x="423" y="346" type="line"/>
			<point x="300" y="574" type="line"/>
			<point x="177" y="346" type="line"/>
		</contour>
	</outline>
</glyph>
<glyph name="grave" format="2">
	<advance width="600"/>
	<unicode hex="0060"/>
	<note>
		grave
	</note>
	<outline>
		<contour>
			<point x="133" y="580" type="line"/>
			<point x="442" y="499" type="line"/>
			<point x="438" y="479" type="line"/>
			<point x="124" y="542" type="line"/>
		</contour>
	</outline>
</glyph>
<glyph name="d" format="2">
	<advance width="600"/>
	<unicode hex="0064"/>
	<note>
		d
	</note>
	<outline>
		<contour>
			<point x="433" y="560" type="line"/>
			<point x="433" y="320" type="line"/>
			<point x="378" y="388"/>
			<point x="318" y="443"/>
			<point x="244" y="443" type="curve" smooth="yes"/>
			<point x="124" y="443"/>
			<point x="38" y="346"/>
			<point x="38" y="215" type="curve" smooth="yes"/>
			<point x="38" y="90"/>
			<point x="124" y="-13"/>
			<point x="244" y="-13" type="curve" smooth="yes"/>
			<point x="312" y="-13"/>
			<point x="380" y="44"/>
			<point x="433" y="109" type="curve"/>
			<point x="432" y="67" type="line"/>
			<point x="433" y="5"/>
			<point x="458" y="-13"/>
			<point x="487" y="-13" type="curve" smooth="yes"/>
			<point x="529" y="-13"/>
			<point x="552" y="44"/>
			<point x="580" y="107" type="curve"/>
			<point x="553" y="120" type="line"/>
			<point x="529" y="66"/>
			<point x="507" y="17"/>
			<point x="487" y="17" type="curve" smooth="yes"/>
			<point x="471" y="17"/>
			<point x="462" y="33"/>
			<point x="462" y="67" type="curve" smooth="yes"/>
			<point x="463" y="590" type="line"/>
			<point x="310" y="590" type="line"/>
			<point x="310" y="560" type="line"/>
		</contour>
		<contour>
			<point x="432" y="278" type="curve"/>
			<point x="432" y="152" type="line"/>
			<point x="368" y="78"/>
			<point x="312" y="17"/>
			<point x="244" y="17" type="curve" smooth="yes"/>
			<point x="142" y="17"/>
			<point x="68" y="104"/>
			<point x="68" y="215" type="curve" smooth="yes"/>
			<point x="68" y="329"/>
			<point x="142" y="413"/>
			<point x="244" y="413" type="curve" smooth="yes"/>
			<point x="312" y="413"/>
			<point x="366" y="356"/>
		</contour>
	</outline>
</glyph>
<glyph name="g" format="2">
	<advance width="600"/>
	<unicode hex="0067"/>
	<note>
		g
	</note>
	<outline>
		<contour>
			<point x="26" y="-58" type="curve" smooth="yes"/>
			<point x="26" y="-122"/>
			<point x="84" y="-173"/>
			<point x="181" y="-173" type="curve" smooth="yes"/>
			<point x="385" y="-173" type="line" smooth="yes"/>
			<point x="479" y="-173"/>
			<point x="555" y="-132"/>
			<point x="555" y="-54" type="curve" smooth="yes"/>
			<point x="555" y="15"/>
			<point x="516" y="50"/>
			<point x="430" y="50" type="curve" smooth="yes"/>
			<point x="206" y="50" type="line" smooth="yes"/>
			<point x="131" y="50"/>
			<point x="58" y="74"/>
			<point x="58" y="123" type="curve" smooth="yes"/>
			<point x="58" y="162"/>
			<point x="95" y="182"/>
			<point x="140" y="199" type="curve"/>
			<point x="156" y="206" type="line"/>
			<point x="187" y="158"/>
			<point x="239" y="125"/>
			<point x="299" y="125" type="curve" smooth="yes"/>
			<point x="384" y="125"/>
			<point x="450" y="197"/>
			<point x="450" y="279" type="curve" smooth="yes"/>
			<point x="450" y="314"/>
			<point x="444" y="348"/>
			<point x="426" y="376" type="curve"/>
			<point x="449" y="392"/>
			<point x="472" y="403"/>
			<point x="492" y="403" type="curve" smooth="yes"/>
			<point x="509" y="403"/>
			<point x="541" y="387"/>
			<point x="549" y="358" type="curve"/>
			<point x="515" y="378"/>
			<point x="482" y="355"/>
			<point x="482" y="322" type="curve" smooth="yes"/>
			<point x="482" y="294"/>
			<point x="509" y="277"/>
			<point x="532" y="277" type="curve" smooth="yes"/>
			<point x="559" y="277"/>
			<point x="585" y="301"/>
			<point x="585" y="334" type="curve" smooth="yes"/>
			<point x="585" y="389"/>
			<point x="539" y="433"/>
			<point x="492" y="433" type="curve" smooth="yes"/>
			<point x="463" y="433"/>
			<point x="435" y="418"/>
			<point x="408" y="401" type="curve"/>
			<point x="376" y="429"/>
			<point x="343" y="443"/>
			<point x="298" y="443" type="curve" smooth="yes"/>
			<point x="210" y="443"/>
			<point x="135" y="374"/>
			<point x="135" y="287" type="curve" smooth="yes"/>
			<point x="135" y="272"/>
			<point x="137" y="252"/>
			<point x="143" y="233" type="curve"/>
			<point x="75" y="210"/>
			<point x="28" y="176"/>
			<point x="28" y="123" type="curve" smooth="yes"/>
			<point x="28" y="84"/>
			<point x="51" y="59"/>
			<point x="98" y="40" type="curve"/>
			<point x="47" y="24"/>
			<point x="26" y="-19"/>
		</contour>
		<contour>
			<point x="165" y="284" type="curve" smooth="yes"/>
			<point x="165" y="358"/>
			<point x="225" y="413"/>
			<point x="298" y="413" type="curve" smooth="yes"/>
			<point x="382" y="413"/>
			<point x="420" y="354"/>
			<point x="420" y="284" type="curve" smooth="yes"/>
			<point x="420" y="217"/>
			<point x="372" y="155"/>
			<point x="297" y="155" type="curve" smooth="yes"/>
			<point x="225" y="155"/>
			<point x="165" y="215"/>
		</contour>
		<contour>
			<point x="56" y="-58" type="curve" smooth="yes"/>
			<point x="56" y="-14"/>
			<point x="87" y="22"/>
			<point x="155" y="22" type="curve" smooth="yes"/>
			<point x="431" y="20" type="line" smooth="yes"/>
			<point x="499" y="20"/>
			<point x="526" y="-3"/>
			<point x="525" y="-58" type="curve" smooth="yes"/>
			<point x="524" y="-114"/>
			<point x="461" y="-143"/>
			<point x="382" y="-143" type="curve" smooth="yes"/>
			<point x="189" y="-143" type="line" smooth="yes"/>
			<point x="99" y="-143"/>
			<point x="56" y="-103"/>
		</contour>
	</outline>
</glyph>
<glyph name="i" format="2">
	<advance width="600"/>
	<unicode hex="0069"/>
	<note>
		i
	</note>
	<outline>
		<contour>
			<point x="305" y="488" type="curve" smooth="yes"/>
			<point x="333" y="488"/>
			<point x="356" y="512"/>
			<point x="356" y="539" type="curve" smooth="yes"/>
			<point x="356" y="566"/>
			<point x="333" y="590"/>
			<point x="305" y="590" type="curve" smooth="yes"/>
			<point x="277" y="590"/>
			<point x="253" y="566"/>
			<point x="253" y="539" type="curve" smooth="yes"/>
			<point x="253" y="512"/>
			<point x="277" y="488"/>
		</contour>
		<contour>
			<point x="328" y="430" type="line"/>
			<point x="97" y="430" type="line"/>
			<point x="97" y="400" type="line"/>
			<point x="298" y="400" type="line"/>
			<point x="298" y="30" type="line"/>
			<point x="97" y="30" type="line"/>
			<point x="97" y="0" type="line"/>
			<point x="516" y="0" type="line"/>
			<point x="516" y="30" type="line"/>
			<point x="328" y="30" type="line"/>
		</contour>
	</outline>
</glyph>
<glyph name="k" format="2">
	<advance width="600"/>
	<unicode hex="006B"/>
	<note>
		k
	</note>
	<outline>
		<contour>
			<point x="272" y="0" type="line"/>
			<point x="272" y="30" type="line"/>
			<point x="172" y="30" type="line"/>
			<point x="172" y="162" type="line"/>
			<point x="277" y="248" type="line"/>
			<point x="404" y="58" type="line" smooth="yes"/>
			<point x="429" y="21"/>
			<point x="458" y="-13"/>
			<point x="506" y="-13" type="curve" smooth="yes"/>
			<point x="533" y="-13"/>
			<point x="555" y="3"/>
			<point x="574" y="23" type="curve"/>
			<point x="551" y="42" type="line"/>
			<point x="540" y="30"/>
			<point x="525" y="17"/>
			<point x="506" y="17" type="curve" smooth="yes"/>
			<point x="470" y="17"/>
			<point x="450" y="45"/>
			<point x="422" y="86" type="curve" smooth="yes"/>
			<point x="300" y="268" type="line"/>
			<point x="461" y="400" type="line"/>
			<point x="565" y="400" type="line"/>
			<point x="565" y="430" type="line"/>
			<point x="323" y="430" type="line"/>
			<point x="323" y="400" type="line"/>
			<point x="415" y="400" type="line"/>
			<point x="172" y="201" type="line"/>
			<point x="172" y="590" type="line"/>
			<point x="20" y="590" type="line"/>
			<point x="20" y="560" type="line"/>
			<point x="142" y="560" type="line"/>
			<point x="142" y="30" type="line"/>
			<point x="20" y="30" type="line"/>
			<point x="20" y="0" type="line"/>
		</contour>
	</outline>
</glyph>
<glyph name="o" format="2">
	<advance width="600"/>
	<unicode hex="006F"/>
	<note>
		o
	</note>
	<outline>
		<contour>
			<point x="301" y="-13" type="curve" smooth="yes"/>
			<point x="427" y="-13"/>
			<point x="529" y="88"/>
			<point x="529" y="216" type="curve" smooth="yes"/>
			<point x="529" y="342"/>
			<point x="427" y="443"/>
			<point x="301" y="443" type="curve" smooth="yes"/>
			<point x="174" y="443"/>
			<point x="72" y="342"/>
			<point x="72" y="216" type="curve" smooth="yes"/>
			<point x="72" y="88"/>
			<point x="174" y="-13"/>
		</contour>
		<contour>
			<point x="301" y="17" type="curve" smooth="yes"/>
			<point x="191" y="17"/>
			<point x="102" y="105"/>
			<point x="102" y="216" type="curve" smooth="yes"/>
			<point x="102" y="325"/>
			<point x="191" y="413"/>
			<point x="301" y="413" type="curve" smooth="yes"/>
			<point x="410" y="413"/>
			<point x="499" y="325"/>
			<point x="499" y="216" type="curve" smooth="yes"/>
			<point x="499" y="105"/>
			<point x="410" y="17"/>
		</contour>
	</outline>
</glyph>
<glyph name="p" format="2">
	<advance width="600"/>
	<unicode hex="0070"/>
	<note>
		p
	</note>
	<outline>
		<contour>
			<point x="136" y="363" type="curve" smooth="yes"/>
			<point x="136" y="-127" type="line"/>
			<point x="44" y="-127" type="line"/>
			<point x="44" y="-160" type="line"/>
			<point x="275" y="-160" type="line"/>
			<point x="275" y="-127" type="line"/>
			<point x="166" y="-127" type="line"/>
			<point x="166" y="109" type="line"/>
			<point x="216" y="44"/>
			<point x="286" y="-13"/>
			<point x="354" y="-13" type="curve" smooth="yes"/>
			<point x="474" y="-13"/>
			<point x="560" y="90"/>
			<point x="560" y="215" type="curve" smooth="yes"/>
			<point x="560" y="346"/>
			<point x="474" y="443"/>
			<point x="354" y="443" type="curve" smooth="yes"/>
			<point x="286" y="443"/>
			<point x="216" y="390"/>
			<point x="166" y="320" type="curve"/>
			<point x="166" y="363" type="line"/>
			<point x="165" y="425"/>
			<point x="140" y="443"/>
			<point x="111" y="443" type="curve" smooth="yes"/>
			<point x="67" y="443"/>
			<point x="46" y="386"/>
			<point x="18" y="323" type="curve"/>
			<point x="45" y="310" type="line"/>
			<point x="69" y="364"/>
			<point x="89" y="413"/>
			<point x="111" y="413" type="curve" smooth="yes"/>
			<point x="127" y="413"/>
			<point x="136" y="397"/>
		</contour>
		<contour>
			<point x="166" y="152" type="curve"/>
			<point x="166" y="278" type="line"/>
			<point x="230" y="358"/>
			<point x="286" y="413"/>
			<point x="354" y="413" type="curve" smooth="yes"/>
			<point x="456" y="413"/>
			<point x="530" y="329"/>
			<point x="530" y="215" type="curve" smooth="yes"/>
			<point x="530" y="104"/>
			<point x="456" y="17"/>
			<point x="354" y="17" type="curve" smooth="yes"/>
			<point x="286" y="17"/>
			<point x="228" y="76"/>
		</contour>
	</outline>
</glyph>
<glyph name="t" format="2">
	<advance width="600"/>
	<unicode hex="0074"/>
	<note>
		t
	</note>
	<outline>
		<contour>
			<point x="173" y="400" type="line"/>
			<point x="173" y="97" type="line" smooth="yes"/>
			<point x="173" y="23"/>
			<point x="222" y="-13"/>
			<point x="299" y="-13" type="curve" smooth="yes"/>
			<point x="355" y="-13"/>
			<point x="425" y="30"/>
			<point x="497" y="74" type="curve" smooth="yes"/>
			<point x="553" y="108" type="line"/>
			<point x="536" y="133" type="line"/>
			<point x="477" y="96" type="line" smooth="yes"/>
			<point x="400" y="49"/>
			<point x="350" y="17"/>
			<point x="299" y="17" type="curve" smooth="yes"/>
			<point x="236" y="17"/>
			<point x="203" y="40"/>
			<point x="203" y="110" type="curve" smooth="yes"/>
			<point x="203" y="400" type="line"/>
			<point x="499" y="400" type="line"/>
			<point x="499" y="430" type="line"/>
			<point x="203" y="430" type="line"/>
			<point x="203" y="590" type="line"/>
			<point x="173" y="590" type="line"/>
			<point x="173" y="430" type="line"/>
			<point x="37" y="430" type="line"/>
			<point x="37" y="400" type="line"/>
		</contour>
	</outline>
</glyph>
<glyph name="v" format="2">
	<advance width="600"/>
	<unicode hex="0076"/>
	<note>
		v
	</note>
	<outline>
		<contour>
			<point x="104" y="400" type="line"/>
			<point x="31" y="400" type="line"/>
			<point x="31" y="430" type="line"/>
			<point x="217" y="430" type="line"/>
			<point x="217" y="400" type="line"/>
			<point x="136" y="400" type="line"/>
			<point x="299" y="31" type="line"/>
			<point x="462" y="400" type="line"/>
			<point x="381" y="400" type="line"/>
			<point x="381" y="430" type="line"/>
			<point x="568" y="430" type="line"/>
			<point x="568" y="400" type="line"/>
			<point x="495" y="400" type="line"/>
			<point x="318" y="0" type="line"/>
			<point x="280" y="0" type="line"/>
		</contour>
	</outline>
</glyph>
<glyph name="w" format="2">
	<advance width="600"/>
	<unicode hex="0077"/>
	<note>
		w
	</note>
	<outline>
		<contour>
			<point x="585" y="430" type="line"/>
			<point x="431" y="430" type="line"/>
			<point x="431" y="400" type="line"/>
			<point x="513" y="400" type="line"/>
			<point x="424" y="37" type="line"/>
			<point x="316" y="355" type="line"/>
			<point x="284" y="355" type="line"/>
			<point x="176" y="37" type="line"/>
			<point x="87" y="400" type="line"/>
			<point x="169" y="400" type="line"/>
			<point x="169" y="430" type="line"/>
			<point x="15" y="430" type="line"/>
			<point x="15" y="400" type="line"/>
			<point x="56" y="400" type="line"/>
			<point x="154" y="0" type="line"/>
			<point x="195" y="0" type="line"/>
			<point x="300" y="308" type="line"/>
			<point x="405" y="0" type="line"/>
			<point x="446" y="0" type="line"/>
			<point x="544" y="400" type="line"/>
			<point x="585" y="400" type="line"/>
		</contour>
	</outline>
</glyph>
<glyph name="braceright" format="2">
	<advance width="600"/>
	<unicode hex="007D"/>
	<note>
		braceright
	</note>
	<outline>
		<contour>
			<point x="440" y="203" type="curve"/>
			<point x="440" y="233" type="line"/>
			<point x="386" y="254"/>
			<point x="336" y="284"/>
			<point x="346" y="338" type="curve" smooth="yes"/>
			<point x="360" y="414" type="line" smooth="yes"/>
			<point x="379" y="519"/>
			<point x="315" y="603"/>
			<point x="223" y="603" type="curve" smooth="yes"/>
			<point x="156" y="603"/>
			<point x="100" y="556"/>
			<point x="100" y="491" type="curve" smooth="yes"/>
			<point x="100" y="461"/>
			<point x="119" y="435"/>
			<point x="147" y="435" type="curve" smooth="yes"/>
			<point x="173" y="435"/>
			<point x="196" y="451"/>
			<point x="196" y="479" type="curve" smooth="yes"/>
			<point x="196" y="501"/>
			<point x="178" y="522"/>
			<point x="156" y="522" type="curve" smooth="yes"/>
			<point x="147" y="522"/>
			<point x="136" y="519"/>
			<point x="129" y="511" type="curve"/>
			<point x="136" y="551"/>
			<point x="182" y="573"/>
			<point x="222" y="573" type="curve" smooth="yes"/>
			<point x="297" y="573"/>
			<point x="345" y="508"/>
			<point x="330" y="418" type="curve" smooth="yes"/>
			<point x="317" y="340" type="line" smooth="yes"/>
			<point x="306" y="273"/>
			<point x="359" y="230"/>
			<point x="404" y="218" type="curve"/>
			<point x="359" y="206"/>
			<point x="306" y="163"/>
			<point x="317" y="96" type="curve" smooth="yes"/>
			<point x="330" y="18" type="line" smooth="yes"/>
			<point x="345" y="-72"/>
			<point x="297" y="-137"/>
			<point x="222" y="-137" type="curve" smooth="yes"/>
			<point x="182" y="-137"/>
			<point x="136" y="-115"/>
			<point x="129" y="-75" type="curve"/>
			<point x="136" y="-83"/>
			<point x="147" y="-86"/>
			<point x="156" y="-86" type="curve" smooth="yes"/>
			<point x="178" y="-86"/>
			<point x="196" y="-65"/>
			<point x="196" y="-43" type="curve" smooth="yes"/>
			<point x="196" y="-15"/>
			<point x="173" y="1"/>
			<point x="147" y="1" type="curve" smooth="yes"/>
			<point x="119" y="1"/>
			<point x="100" y="-25"/>
			<point x="100" y="-55" type="curve" smooth="yes"/>
			<point x="100" y="-120"/>
			<point x="156" y="-167"/>
			<point x="223" y="-167" type="curve" smooth="yes"/>
			<point x="315" y="-167"/>
			<point x="379" y="-83"/>
			<point x="360" y="22" type="curve" smooth="yes"/>
			<point x="346" y="98" type="line" smooth="yes"/>
			<point x="336" y="152"/>
			<point x="386" y="182"/>
		</contour>
	</outline>
</glyph>
<glyph name="asciitilde" format="2">
	<advance width="600"/>
	<unicode hex="007E"/>
	<note>
		asciitilde
	</note>
	<outline>
		<contour>
			<point x="400" y="239" type="curve" smooth="yes"/>
			<point x="468" y="239"/>
			<point x="508" y="292"/>
			<point x="508" y="396" type="curve" smooth="yes"/>
			<point x="508" y="430" type="line"/>
			<point x="478" y="430" type="line"/>
			<point x="478" y="396" type="line" smooth="yes"/>
			<point x="478" y="314"/>
			<point x="448" y="269"/>
			<point x="400" y="269" type="curve" smooth="yes"/>
			<point x="361" y="269"/>
			<point x="343" y="289"/>
			<point x="319" y="345" type="curve" smooth="yes"/>
			<point x="295" y="401"/>
			<point x="269" y="443"/>
			<point x="206" y="443" type="curve" smooth="yes"/>
			<point x="138" y="443"/>
			<point x="93" y="388"/>
			<point x="93" y="285" type="curve" smooth="yes"/>
			<point x="93" y="250" type="line"/>
			<point x="123" y="250" type="line"/>
			<point x="123" y="285" type="line" smooth="yes"/>
			<point x="123" y="366"/>
			<point x="159" y="413"/>
			<point x="206" y="413" type="curve" smooth="yes"/>
			<point x="242" y="413"/>
			<point x="264" y="393"/>
			<point x="292" y="331" type="curve" smooth="yes"/>
			<point x="317" y="275"/>
			<point x="345" y="239"/>
		</contour>
	</outline>
</glyph>
<glyph name="sterling" format="2">
	<advance width="600"/>
	<unicode hex="00A3"/>
	<note>
		sterling
	</note>
	<outline>
		<contour>
			<point x="393" y="17" type="curve" smooth="yes"/>
			<point x="331" y="17"/>
			<point x="286" y="57"/>
			<point x="249" y="109" type="curve"/>
			<point x="249" y="266" type="line"/>
			<point x="403" y="266" type="line"/>
			<point x="403" y="299" type="line"/>
			<point x="249" y="299" type="line"/>
			<point x="249" y="390" type="line"/>
			<point x="404" y="390" type="line"/>
			<point x="404" y="423" type="line"/>
			<point x="250" y="423" type="line"/>
			<point x="263" y="515"/>
			<point x="318" y="573"/>
			<point x="409" y="573" type="curve" smooth="yes"/>
			<point x="485" y="573"/>
			<point x="549" y="532"/>
			<point x="552" y="472" type="curve"/>
			<point x="545" y="488"/>
			<point x="530" y="497"/>
			<point x="511" y="497" type="curve" smooth="yes"/>
			<point x="488" y="497"/>
			<point x="465" y="480"/>
			<point x="465" y="450" type="curve" smooth="yes"/>
			<point x="465" y="420"/>
			<point x="488" y="397"/>
			<point x="521" y="397" type="curve" smooth="yes"/>
			<point x="553" y="397"/>
			<point x="578" y="424"/>
			<point x="578" y="467" type="curve" smooth="yes"/>
			<point x="578" y="537"/>
			<point x="507" y="603"/>
			<point x="410" y="603" type="curve" smooth="yes"/>
			<point x="305" y="603"/>
			<point x="234" y="535"/>
			<point x="220" y="423" type="curve"/>
			<point x="76" y="423" type="line"/>
			<point x="76" y="390" type="line"/>
			<point x="219" y="390" type="line"/>
			<point x="219" y="299" type="line"/>
			<point x="75" y="299" type="line"/>
			<point x="75" y="266" type="line"/>
			<point x="219" y="266" type="line"/>
			<point x="219" y="153" type="line"/>
			<point x="201" y="174"/>
			<point x="177" y="190"/>
			<point x="144" y="190" type="curve" smooth="yes"/>
			<point x="92" y="190"/>
			<point x="48" y="157"/>
			<point x="48" y="88" type="curve" smooth="yes"/>
			<point x="48" y="20"/>
			<point x="104" y="-13"/>
			<point x="144" y="-13" type="curve" smooth="yes"/>
			<point x="189" y="-13"/>
			<point x="224" y="12"/>
			<point x="241" y="58" type="curve" smooth="yes"/>
			<point x="244" y="66" type="line"/>
			<point x="242" y="68" type="line"/>
			<point x="279" y="26"/>
			<point x="334" y="-13"/>
			<point x="393" y="-13" type="curve" smooth="yes"/>
			<point x="491" y="-13"/>
			<point x="536" y="45"/>
			<point x="573" y="136" type="curve"/>
			<point x="545" y="148" type="line"/>
			<point x="509" y="57"/>
			<point x="467" y="17"/>
		</contour>
		<contour>
			<point x="144" y="17" type="curve" smooth="yes"/>
			<point x="105" y="17"/>
			<point x="78" y="51"/>
			<point x="78" y="88" type="curve" smooth="yes"/>
			<point x="78" y="126"/>
			<point x="99" y="160"/>
			<point x="144" y="160" type="curve" smooth="yes"/>
			<point x="177" y="160"/>
			<point x="205" y="136"/>
			<point x="219" y="98" type="curve"/>
			<point x="216" y="51"/>
			<point x="190" y="17"/>
		</contour>
	</outline>
</glyph>
<glyph name="yen" format="2">
	<advance width="600"/>
	<unicode hex="00A5"/>
	<note>
		yen
	</note>
	<outline>
		<contour>
			<point x="18" y="558" type="line"/>
			<point x="18" y="590" type="line"/>
			<point x="227" y="590" type="line"/>
			<point x="227" y="558" type="line"/>
			<point x="128" y="558" type="line"/>
			<point x="300" y="245" type="line"/>
			<point x="470" y="558" type="line"/>
			<point x="372" y="558" type="line"/>
			<point x="372" y="590" type="line"/>
			<point x="581" y="590" type="line"/>
			<point x="581" y="558" type="line"/>
			<point x="503" y="558" type="line"/>
			<point x="323.208" y="229" type="line"/>
			<point x="463" y="229" type="line"/>
			<point x="463" y="199" type="line"/>
			<point x="315" y="199" type="line"/>
			<point x="315" y="30" type="line"/>
			<point x="443" y="30" type="line"/>
			<point x="443" y="0" type="line"/>
			<point x="157" y="0" type="line"/>
			<point x="157" y="30" type="line"/>
			<point x="285" y="30" type="line"/>
			<point x="285" y="199" type="line"/>
			<point x="137" y="199" type="line"/>
			<point x="137" y="229" type="line"/>
			<point x="274.865" y="229" type="line"/>
			<point x="96" y="558" type="line"/>
		</contour>
	</outline>
</glyph>
<glyph name="section" format="2">
	<advance width="600"/>
	<unicode hex="00A7"/>
	<note>
		section
	</note>
	<outline>
		<contour>
			<point x="552" y="161" type="curve" smooth="yes"/>
			<point x="552" y="70"/>
			<point x="472" y="26"/>
			<point x="399" y="41" type="curve"/>
			<point x="416" y="31"/>
			<point x="442" y="2"/>
			<point x="442" y="-50" type="curve" smooth="yes"/>
			<point x="442" y="-105"/>
			<point x="403" y="-173"/>
			<point x="320" y="-173" type="curve" smooth="yes"/>
			<point x="248" y="-173"/>
			<point x="199" y="-126"/>
			<point x="199" y="-53" type="curve" smooth="yes"/>
			<point x="199" y="-13"/>
			<point x="226" y="15"/>
			<point x="257" y="15" type="curve" smooth="yes"/>
			<point x="283" y="15"/>
			<point x="309" y="-4"/>
			<point x="309" y="-31" type="curve" smooth="yes"/>
			<point x="309" y="-58"/>
			<point x="288" y="-77"/>
			<point x="266" y="-77" type="curve" smooth="yes"/>
			<point x="253" y="-77"/>
			<point x="237" y="-72"/>
			<point x="225" y="-56" type="curve"/>
			<point x="228" y="-114"/>
			<point x="267" y="-143"/>
			<point x="320" y="-143" type="curve" smooth="yes"/>
			<point x="377" y="-143"/>
			<point x="412" y="-101"/>
			<point x="412" y="-50" type="curve" smooth="yes"/>
			<point x="412" y="17"/>
			<point x="363" y="40"/>
			<point x="288" y="76" type="curve" smooth="yes"/>
			<point x="211" y="113" type="line" smooth="yes"/>
			<point x="145" y="145"/>
			<point x="79" y="189"/>
			<point x="79" y="268" type="curve" smooth="yes"/>
			<point x="79" y="360"/>
			<point x="159" y="404"/>
			<point x="232" y="389" type="curve"/>
			<point x="215" y="399"/>
			<point x="189" y="428"/>
			<point x="189" y="480" type="curve" smooth="yes"/>
			<point x="189" y="535"/>
			<point x="228" y="603"/>
			<point x="311" y="603" type="curve" smooth="yes"/>
			<point x="383" y="603"/>
			<point x="432" y="556"/>
			<point x="432" y="483" type="curve" smooth="yes"/>
			<point x="432" y="443"/>
			<point x="405" y="415"/>
			<point x="374" y="415" type="curve" smooth="yes"/>
			<point x="348" y="415"/>
			<point x="322" y="434"/>
			<point x="322" y="461" type="curve" smooth="yes"/>
			<point x="322" y="488"/>
			<point x="343" y="507"/>
			<point x="365" y="507" type="curve" smooth="yes"/>
			<point x="378" y="507"/>
			<point x="394" y="502"/>
			<point x="406" y="486" type="curve"/>
			<point x="403" y="544"/>
			<point x="364" y="573"/>
			<point x="311" y="573" type="curve" smooth="yes"/>
			<point x="254" y="573"/>
			<point x="219" y="531"/>
			<point x="219" y="480" type="curve" smooth="yes"/>
			<point x="219" y="413"/>
			<point x="268" y="390"/>
			<point x="343" y="354" type="curve" smooth="yes"/>
			<point x="420" y="317" type="line" smooth="yes"/>
			<point x="486" y="285"/>
			<point x="552" y="241"/>
		</contour>
		<contour>
			<point x="109" y="268" type="curve" smooth="yes"/>
			<point x="109" y="209"/>
			<point x="151" y="175"/>
			<point x="203" y="150" type="curve" smooth="yes"/>
			<point x="278" y="114" type="line" smooth="yes"/>
			<point x="304" y="102"/>
			<point x="335" y="84"/>
			<point x="362" y="69" type="curve"/>
			<point x="414" y="53"/>
			<point x="522" y="63"/>
			<point x="522" y="161" type="curve" smooth="yes"/>
			<point x="522" y="211"/>
			<point x="480" y="255"/>
			<point x="428" y="280" type="curve" smooth="yes"/>
			<point x="353" y="316" type="line" smooth="yes"/>
			<point x="327" y="328"/>
			<point x="296" y="346"/>
			<point x="269" y="361" type="curve"/>
			<point x="217" y="377"/>
			<point x="109" y="367"/>
		</contour>
	</outline>
</glyph>
<glyph name="dieresis" format="2">
	<advance width="600"/>
	<unicode hex="00A8"/>
	<guideline x="-213" y="590" angle="0"/>
	<guideline x="247" y="736" angle="0"/>
	<anchor x="297" y="442" name="_top"/>
	<note>
		dieresis
	</note>
	<outline>
		<contour>
			<point x="210" y="488" type="curve" smooth="yes"/>
			<point x="238" y="488"/>
			<point x="261" y="512"/>
			<point x="261" y="539" type="curve" smooth="yes"/>
			<point x="261" y="566"/>
			<point x="238" y="590"/>
			<point x="210" y="590" type="curve" smooth="yes"/>
			<point x="182" y="590"/>
			<point x="158" y="566"/>
			<point x="158" y="539" type="curve" smooth="yes"/>
			<point x="158" y="512"/>
			<point x="182" y="488"/>
		</contour>
		<contour>
			<point x="391" y="488" type="curve" smooth="yes"/>
			<point x="419" y="488"/>
			<point x="442" y="512"/>
			<point x="442" y="539" type="curve" smooth="yes"/>
			<point x="442" y="566"/>
			<point x="419" y="590"/>
			<point x="391" y="590" type="curve" smooth="yes"/>
			<point x="363" y="590"/>
			<point x="339" y="566"/>
			<point x="339" y="539" type="curve" smooth="yes"/>
			<point x="339" y="512"/>
			<point x="363" y="488"/>
		</contour>
	</outline>
</glyph>
<glyph name="copyright" format="2">
	<advance width="600"/>
	<unicode hex="00A9"/>
	<note>
		copyright
	</note>
	<outline>
		<contour>
			<point x="299" y="5" type="curve" smooth="yes"/>
			<point x="459" y="5"/>
			<point x="589" y="135"/>
			<point x="589" y="295" type="curve" smooth="yes"/>
			<point x="589" y="455"/>
			<point x="459" y="585"/>
			<point x="299" y="585" type="curve" smooth="yes"/>
			<point x="139" y="585"/>
			<point x="9" y="455"/>
			<point x="9" y="295" type="curve" smooth="yes"/>
			<point x="9" y="135"/>
			<point x="139" y="5"/>
		</contour>
		<contour>
			<point x="299" y="30" type="curve" smooth="yes"/>
			<point x="152" y="30"/>
			<point x="34" y="148"/>
			<point x="34" y="295" type="curve" smooth="yes"/>
			<point x="34" y="441"/>
			<point x="152" y="559"/>
			<point x="299" y="559" type="curve" smooth="yes"/>
			<point x="445" y="559"/>
			<point x="563" y="441"/>
			<point x="563" y="295" type="curve" smooth="yes"/>
			<point x="563" y="148"/>
			<point x="445" y="30"/>
		</contour>
		<contour>
			<point x="301" y="106" type="curve" smooth="yes"/>
			<point x="389" y="106"/>
			<point x="462" y="161"/>
			<point x="495" y="245" type="curve"/>
			<point x="468" y="257" type="line"/>
			<point x="442" y="188"/>
			<point x="376" y="136"/>
			<point x="301" y="136" type="curve" smooth="yes"/>
			<point x="211" y="136"/>
			<point x="138" y="204"/>
			<point x="138" y="300" type="curve" smooth="yes"/>
			<point x="138" y="392"/>
			<point x="201" y="455"/>
			<point x="297" y="455" type="curve" smooth="yes"/>
			<point x="356" y="455"/>
			<point x="414" y="418"/>
			<point x="414" y="360" type="curve"/>
			<point x="398" y="375"/>
			<point x="384" y="374"/>
			<point x="377" y="374" type="curve" smooth="yes"/>
			<point x="358" y="374"/>
			<point x="340" y="354"/>
			<point x="340" y="335" type="curve" smooth="yes"/>
			<point x="340" y="306"/>
			<point x="362" y="288"/>
			<point x="391" y="288" type="curve" smooth="yes"/>
			<point x="420" y="288"/>
			<point x="444" y="315"/>
			<point x="444" y="354" type="curve" smooth="yes"/>
			<point x="444" y="424"/>
			<point x="385" y="485"/>
			<point x="297" y="485" type="curve" smooth="yes"/>
			<point x="196" y="485"/>
			<point x="108" y="410"/>
			<point x="108" y="300" type="curve" smooth="yes"/>
			<point x="108" y="196"/>
			<point x="185" y="106"/>
		</contour>
	</outline>
</glyph>
<glyph name="guillemotleft" format="2">
	<advance width="600"/>
	<unicode hex="00AB"/>
	<note>
		guillemotleft
	</note>
	<outline>
		<contour>
			<point x="99" y="253" type="curve"/>
			<point x="151" y="208"/>
			<point x="242" y="144"/>
			<point x="303" y="63" type="curve"/>
			<point x="326" y="87" type="line"/>
			<point x="261" y="168"/>
			<point x="201" y="213"/>
			<point x="150" y="253" type="curve"/>
			<point x="201" y="293"/>
			<point x="261" y="338"/>
			<point x="326" y="419" type="curve"/>
			<point x="303" y="443" type="line"/>
			<point x="242" y="362"/>
			<point x="151" y="298"/>
		</contour>
		<contour>
			<point x="287" y="253" type="curve"/>
			<point x="339" y="208"/>
			<point x="430" y="144"/>
			<point x="491" y="63" type="curve"/>
			<point x="514" y="87" type="line"/>
			<point x="449" y="168"/>
			<point x="389" y="213"/>
			<point x="338" y="253" type="curve"/>
			<point x="389" y="293"/>
			<point x="449" y="338"/>
			<point x="514" y="419" type="curve"/>
			<point x="491" y="443" type="line"/>
			<point x="430" y="362"/>
			<point x="339" y="298"/>
		</contour>
	</outline>
</glyph>
<glyph name="logicalnot" format="2">
	<advance width="600"/>
	<unicode hex="00AC"/>
	<note>
		logicalnot
	</note>
	<outline>
		<contour>
			<point x="466" y="301" type="line"/>
			<point x="104" y="301" type="line"/>
			<point x="104" y="331" type="line"/>
			<point x="496" y="331" type="line"/>
			<point x="496" y="127" type="line"/>
			<point x="465" y="127" type="line"/>
		</contour>
	</outline>
</glyph>
<glyph name="macron" format="2">
	<advance width="600"/>
	<unicode hex="00AF"/>
	<note>
		macron
	</note>
	<outline>
		<contour>
			<point x="158" y="513" type="line"/>
			<point x="158" y="543" type="line"/>
			<point x="443" y="543" type="line"/>
			<point x="443" y="513" type="line"/>
		</contour>
	</outline>
</glyph>
<glyph name="cedilla" format="2">
	<advance width="600"/>
	<unicode hex="00B8"/>
	<note>
		cedilla
	</note>
	<outline>
		<contour>
			<point x="152" y="-83" type="curve"/>
			<point x="152" y="-129"/>
			<point x="218" y="-150"/>
			<point x="265" y="-150" type="curve" smooth="yes"/>
			<point x="313" y="-150"/>
			<point x="367" y="-137"/>
			<point x="367" y="-108" type="curve" smooth="yes"/>
			<point x="367" y="-80"/>
			<point x="335" y="-70"/>
			<point x="285" y="-67" type="curve"/>
			<point x="285" y="10" type="line"/>
			<point x="309" y="10" type="line"/>
			<point x="309" y="-47" type="line"/>
			<point x="353" y="-52"/>
			<point x="391" y="-68"/>
			<point x="391" y="-108" type="curve" smooth="yes"/>
			<point x="391" y="-156"/>
			<point x="320" y="-173"/>
			<point x="265" y="-173" type="curve" smooth="yes"/>
			<point x="196" y="-173"/>
			<point x="131" y="-138"/>
			<point x="131" y="-84" type="curve" smooth="yes"/>
			<point x="131" y="-56"/>
			<point x="146" y="-39"/>
			<point x="168" y="-39" type="curve" smooth="yes"/>
			<point x="182" y="-39"/>
			<point x="198" y="-50"/>
			<point x="198" y="-66" type="curve" smooth="yes"/>
			<point x="198" y="-82"/>
			<point x="186" y="-93"/>
			<point x="174" y="-93" type="curve" smooth="yes"/>
			<point x="168" y="-93"/>
			<point x="160" y="-92"/>
		</contour>
	</outline>
</glyph>
<glyph name="questiondown" format="2">
	<advance width="600"/>
	<unicode hex="00BF"/>
	<note>
		questiondown
	</note>
	<outline>
		<contour>
			<point x="307" y="443" type="curve" smooth="yes"/>
			<point x="279" y="443"/>
			<point x="256" y="419"/>
			<point x="256" y="392" type="curve" smooth="yes"/>
			<point x="256" y="365"/>
			<point x="279" y="341"/>
			<point x="307" y="341" type="curve" smooth="yes"/>
			<point x="335" y="341"/>
			<point x="359" y="365"/>
			<point x="359" y="392" type="curve" smooth="yes"/>
			<point x="359" y="419"/>
			<point x="335" y="443"/>
		</contour>
		<contour>
			<point x="84" y="-16" type="curve" smooth="yes"/>
			<point x="83" y="-131"/>
			<point x="197" y="-173"/>
			<point x="290" y="-173" type="curve" smooth="yes"/>
			<point x="410" y="-173"/>
			<point x="506" y="-112"/>
			<point x="506" y="-23" type="curve" smooth="yes"/>
			<point x="506" y="17"/>
			<point x="475" y="38"/>
			<point x="450" y="38" type="curve" smooth="yes"/>
			<point x="424" y="38"/>
			<point x="403" y="18"/>
			<point x="403" y="-8" type="curve" smooth="yes"/>
			<point x="403" y="-27"/>
			<point x="422" y="-50"/>
			<point x="444" y="-50" type="curve" smooth="yes"/>
			<point x="463" y="-50"/>
			<point x="472" y="-40"/>
			<point x="477" y="-37" type="curve"/>
			<point x="477" y="-93"/>
			<point x="395" y="-143"/>
			<point x="290" y="-143" type="curve" smooth="yes"/>
			<point x="200" y="-143"/>
			<point x="114" y="-100"/>
			<point x="114" y="-16" type="curve" smooth="yes"/>
			<point x="114" y="45"/>
			<point x="152" y="69"/>
			<point x="212" y="102" type="curve" smooth="yes"/>
			<point x="265" y="131" type="line" smooth="yes"/>
			<point x="340" y="172"/>
			<point x="383" y="189"/>
			<point x="383" y="236" type="curve" smooth="yes"/>
			<point x="383" y="263"/>
			<point x="357" y="296"/>
			<point x="317" y="296" type="curve" smooth="yes"/>
			<point x="288" y="296"/>
			<point x="268" y="287"/>
			<point x="240" y="261" type="curve"/>
			<point x="259" y="240" type="line"/>
			<point x="272" y="252"/>
			<point x="293" y="266"/>
			<point x="317" y="266" type="curve" smooth="yes"/>
			<point x="339" y="266"/>
			<point x="353" y="253"/>
			<point x="353" y="236" type="curve" smooth="yes"/>
			<point x="353" y="209"/>
			<point x="323" y="196"/>
			<point x="251" y="157" type="curve" smooth="yes"/>
			<point x="199" y="129" type="line" smooth="yes"/>
			<point x="139" y="97"/>
			<point x="85" y="66"/>
		</contour>
	</outline>
</glyph>
<glyph name="Aring" format="2">
	<advance width="600"/>
	<unicode hex="00C5"/>
	<note>
		Aring
	</note>
	<outline>
		<contour>
			<point x="299" y="641" type="curve" smooth="yes"/>
			<point x="334" y="641"/>
			<point x="366" y="670"/>
			<point x="366" y="705" type="curve" smooth="yes"/>
			<point x="366" y="741"/>
			<point x="334" y="769"/>
			<point x="299" y="769" type="curve" smooth="yes"/>
			<point x="264" y="769"/>
			<point x="233" y="741"/>
			<point x="233" y="705" type="curve" smooth="yes"/>
			<point x="233" y="670"/>
			<point x="264" y="641"/>
		</contour>
		<contour>
			<point x="299" y="661" type="curve" smooth="yes"/>
			<point x="274" y="661"/>
			<point x="255" y="680"/>
			<point x="255" y="705" type="curve" smooth="yes"/>
			<point x="255" y="729"/>
			<point x="274" y="748"/>
			<point x="299" y="748" type="curve" smooth="yes"/>
			<point x="323" y="748"/>
			<point x="342" y="729"/>
			<point x="342" y="705" type="curve" smooth="yes"/>
			<point x="342" y="680"/>
			<point x="323" y="661"/>
		</contour>
		<contour>
			<point x="24" y="30" type="line"/>
			<point x="24" y="0" type="line"/>
			<point x="212" y="0" type="line"/>
			<point x="212" y="30" type="line"/>
			<point x="123" y="30" type="line"/>
			<point x="190" y="226" type="line"/>
			<point x="409" y="226" type="line"/>
			<point x="476" y="30" type="line"/>
			<point x="387" y="30" type="line"/>
			<point x="387" y="0" type="line"/>
			<point x="575" y="0" type="line"/>
			<point x="575" y="30" type="line"/>
			<point x="508" y="30" type="line"/>
			<point x="321" y="590" type="line"/>
			<point x="319" y="590" type="line" smooth="yes"/>
			<point x="268" y="590"/>
			<point x="227" y="592"/>
			<point x="177" y="603" type="curve"/>
			<point x="170" y="575" type="line"/>
			<point x="202" y="568"/>
			<point x="234" y="565"/>
			<point x="269" y="562" type="curve"/>
			<point x="91" y="30" type="line"/>
		</contour>
		<contour>
			<point x="399" y="256" type="line"/>
			<point x="200" y="256" type="line"/>
			<point x="300" y="559" type="line"/>
		</contour>
	</outline>
</glyph>
<glyph name="Eacute" format="2">
	<advance width="600"/>
	<unicode hex="00C9"/>
	<anchor x="281" y="514" name="new anchor"/>
	<note>
		Eacute
	</note>
	<outline>
		<contour>
			<point x="157" y="633" type="line"/>
			<point x="153" y="655" type="line"/>
			<point x="462" y="736" type="line"/>
			<point x="471" y="696" type="line"/>
		</contour>
		<contour>
			<point x="41" y="0" type="line"/>
			<point x="41" y="30" type="line"/>
			<point x="165" y="30" type="line"/>
			<point x="165" y="560" type="line"/>
			<point x="41" y="560" type="line"/>
			<point x="41" y="590" type="line"/>
			<point x="531" y="590" type="line"/>
			<point x="550" y="373" type="line"/>
			<point x="520" y="370" type="line"/>
			<point x="504" y="560" type="line"/>
			<point x="195" y="560" type="line"/>
			<point x="195" y="307" type="line"/>
			<point x="365" y="307" type="line"/>
			<point x="365" y="427" type="line"/>
			<point x="395" y="427" type="line"/>
			<point x="395" y="162" type="line"/>
			<point x="365" y="162" type="line"/>
			<point x="365" y="277" type="line"/>
			<point x="195" y="277" type="line"/>
			<point x="195" y="30" type="line"/>
			<point x="504" y="30" type="line"/>
			<point x="522" y="220" type="line"/>
			<point x="552" y="217" type="line"/>
			<point x="531" y="0" type="line"/>
		</contour>
	</outline>
</glyph>
<glyph name="Ecircumflex" format="2">
	<advance width="600"/>
	<unicode hex="00CA"/>
	<note>
		Ecircumflex
	</note>
	<outline>
		<contour>
			<point x="113" y="641" type="line"/>
			<point x="318" y="747" type="line"/>
			<point x="524" y="641" type="line"/>
			<point x="518" y="624" type="line"/>
			<point x="318" y="709" type="line"/>
			<point x="118" y="624" type="line"/>
		</contour>
		<contour>
			<point x="41" y="0" type="line"/>
			<point x="41" y="30" type="line"/>
			<point x="165" y="30" type="line"/>
			<point x="165" y="560" type="line"/>
			<point x="41" y="560" type="line"/>
			<point x="41" y="590" type="line"/>
			<point x="531" y="590" type="line"/>
			<point x="550" y="373" type="line"/>
			<point x="520" y="370" type="line"/>
			<point x="504" y="560" type="line"/>
			<point x="195" y="560" type="line"/>
			<point x="195" y="307" type="line"/>
			<point x="365" y="307" type="line"/>
			<point x="365" y="427" type="line"/>
			<point x="395" y="427" type="line"/>
			<point x="395" y="162" type="line"/>
			<point x="365" y="162" type="line"/>
			<point x="365" y="277" type="line"/>
			<point x="195" y="277" type="line"/>
			<point x="195" y="30" type="line"/>
			<point x="504" y="30" type="line"/>
			<point x="522" y="220" type="line"/>
			<point x="552" y="217" type="line"/>
			<point x="531" y="0" type="line"/>
		</contour>
	</outline>
</glyph>
<glyph name="Igrave" format="2">
	<advance width="600"/>
	<unicode hex="00CC"/>
	<note>
		Igrave
	</note>
	<outline>
		<contour>
			<point x="143" y="736" type="line"/>
			<point x="452" y="655" type="line"/>
			<point x="448" y="633" type="line"/>
			<point x="134" y="696" type="line"/>
		</contour>
		<contour>
			<point x="498" y="560" type="line"/>
			<point x="315" y="560" type="line"/>
			<point x="315" y="30" type="line"/>
			<point x="498" y="30" type="line"/>
			<point x="498" y="0" type="line"/>
			<point x="102" y="0" type="line"/>
			<point x="102" y="30" type="line"/>
			<point x="285" y="30" type="line"/>
			<point x="285" y="560" type="line"/>
			<point x="102" y="560" type="line"/>
			<point x="102" y="590" type="line"/>
			<point x="498" y="590" type="line"/>
		</contour>
	</outline>
</glyph>
<glyph name="Ntilde" format="2">
	<advance width="600"/>
	<unicode hex="00D1"/>
	<note>
		Ntilde
	</note>
	<outline>
		<contour>
			<point x="246" y="699" type="curve" smooth="yes"/>
			<point x="299" y="699"/>
			<point x="316" y="626"/>
			<point x="388" y="626" type="curve" smooth="yes"/>
			<point x="417" y="626"/>
			<point x="454" y="647"/>
			<point x="501" y="703" type="curve"/>
			<point x="480" y="723" type="line"/>
			<point x="441" y="675"/>
			<point x="415" y="656"/>
			<point x="388" y="656" type="curve" smooth="yes"/>
			<point x="335" y="656"/>
			<point x="318" y="729"/>
			<point x="246" y="729" type="curve" smooth="yes"/>
			<point x="217" y="729"/>
			<point x="180" y="706"/>
			<point x="132" y="651" type="curve"/>
			<point x="153" y="631" type="line"/>
			<point x="193" y="678"/>
			<point x="219" y="699"/>
		</contour>
		<contour>
			<point x="577" y="590" type="line"/>
			<point x="373" y="590" type="line"/>
			<point x="373" y="560" type="line"/>
			<point x="455" y="560" type="line"/>
			<point x="455" y="30" type="line"/>
			<point x="168" y="590" type="line"/>
			<point x="165" y="590" type="line" smooth="yes"/>
			<point x="117" y="590"/>
			<point x="78" y="593"/>
			<point x="30" y="603" type="curve"/>
			<point x="23" y="575" type="line"/>
			<point x="51" y="569"/>
			<point x="92" y="562"/>
			<point x="122" y="560" type="curve"/>
			<point x="122" y="30" type="line"/>
			<point x="30" y="30" type="line"/>
			<point x="30" y="0" type="line"/>
			<point x="234" y="0" type="line"/>
			<point x="234" y="30" type="line"/>
			<point x="152" y="30" type="line"/>
			<point x="153" y="554" type="line"/>
			<point x="437" y="0" type="line"/>
			<point x="485" y="0" type="line"/>
			<point x="485" y="560" type="line"/>
			<point x="577" y="560" type="line"/>
		</contour>
	</outline>
</glyph>
<glyph name="Oslash" format="2">
	<advance width="600"/>
	<unicode hex="00D8"/>
	<note>
		Oslash
	</note>
	<outline>
		<contour>
			<point x="473" y="511" type="curve"/>
			<point x="525" y="584" type="line"/>
			<point x="502" y="603" type="line"/>
			<point x="452" y="532" type="line"/>
			<point x="410" y="568"/>
			<point x="359" y="590"/>
			<point x="300" y="590" type="curve" smooth="yes"/>
			<point x="152" y="590"/>
			<point x="54" y="449"/>
			<point x="56" y="296" type="curve" smooth="yes"/>
			<point x="57" y="210"/>
			<point x="84" y="135"/>
			<point x="130" y="81" type="curve"/>
			<point x="76" y="6" type="line"/>
			<point x="99" y="-13" type="line"/>
			<point x="151" y="60" type="line"/>
			<point x="191" y="23"/>
			<point x="242" y="1"/>
			<point x="300" y="1" type="curve" smooth="yes"/>
			<point x="441" y="1"/>
			<point x="554" y="130"/>
			<point x="554" y="296" type="curve" smooth="yes"/>
			<point x="554" y="378"/>
			<point x="524" y="456"/>
		</contour>
		<contour>
			<point x="86" y="296" type="curve" smooth="yes"/>
			<point x="86" y="451"/>
			<point x="183" y="559"/>
			<point x="300" y="560" type="curve" smooth="yes"/>
			<point x="349" y="560"/>
			<point x="396" y="541"/>
			<point x="434" y="508" type="curve"/>
			<point x="148" y="106" type="line"/>
			<point x="110" y="153"/>
			<point x="86" y="219"/>
		</contour>
		<contour>
			<point x="300" y="31" type="curve" smooth="yes"/>
			<point x="251" y="31"/>
			<point x="205" y="50"/>
			<point x="168" y="84" type="curve"/>
			<point x="456" y="487" type="line"/>
			<point x="497" y="440"/>
			<point x="524" y="374"/>
			<point x="524" y="296" type="curve" smooth="yes"/>
			<point x="524" y="139"/>
			<point x="418" y="32"/>
		</contour>
	</outline>
</glyph>
<glyph name="Ugrave" format="2">
	<advance width="600"/>
	<unicode hex="00D9"/>
	<note>
		Ugrave
	</note>
	<outline>
		<contour>
			<point x="143" y="736" type="line"/>
			<point x="452" y="655" type="line"/>
			<point x="448" y="633" type="line"/>
			<point x="134" y="696" type="line"/>
		</contour>
		<contour>
			<point x="33" y="590" type="line"/>
			<point x="33" y="560" type="line"/>
			<point x="104" y="560" type="line"/>
			<point x="104" y="208" type="line" smooth="yes"/>
			<point x="104" y="75"/>
			<point x="177" y="-13"/>
			<point x="300" y="-13" type="curve" smooth="yes"/>
			<point x="423" y="-13"/>
			<point x="496" y="75"/>
			<point x="496" y="208" type="curve" smooth="yes"/>
			<point x="496" y="560" type="line"/>
			<point x="567" y="560" type="line"/>
			<point x="567" y="590" type="line"/>
			<point x="368" y="590" type="line"/>
			<point x="368" y="560" type="line"/>
			<point x="466" y="560" type="line"/>
			<point x="466" y="208" type="line" smooth="yes"/>
			<point x="466" y="95"/>
			<point x="410" y="17"/>
			<point x="300" y="17" type="curve" smooth="yes"/>
			<point x="190" y="17"/>
			<point x="134" y="95"/>
			<point x="134" y="208" type="curve" smooth="yes"/>
			<point x="134" y="560" type="line"/>
			<point x="232" y="560" type="line"/>
			<point x="232" y="590" type="line"/>
		</contour>
	</outline>
</glyph>
<glyph name="Ucircumflex" format="2">
	<advance width="600"/>
	<unicode hex="00DB"/>
	<note>
		Ucircumflex
	</note>
	<outline>
		<contour>
			<point x="94" y="641" type="line"/>
			<point x="299" y="747" type="line"/>
			<point x="505" y="641" type="line"/>
			<point x="499" y="624" type="line"/>
			<point x="299" y="709" type="line"/>
			<point x="99" y="624" type="line"/>
		</contour>
		<contour>
			<point x="33" y="590" type="line"/>
			<point x="33" y="560" type="line"/>
			<point x="104" y="560" type="line"/>
			<point x="104" y="208" type="line" smooth="yes"/>
			<point x="104" y="75"/>
			<point x="177" y="-13"/>
			<point x="300" y="-13" type="curve" smooth="yes"/>
			<point x="423" y="-13"/>
			<point x="496" y="75"/>
			<point x="496" y="208" type="curve" smooth="yes"/>
			<point x="496" y="560" type="line"/>
			<point x="567" y="560" type="line"/>
			<point x="567" y="590" type="line"/>
			<point x="368" y="590" type="line"/>
			<point x="368" y="560" type="line"/>
			<point x="466" y="560" type="line"/>
			<point x="466" y="208" type="line" smooth="yes"/>
			<point x="466" y="95"/>
			<point x="410" y="17"/>
			<point x="300" y="17" type="curve" smooth="yes"/>
			<point x="190" y="17"/>
			<point x="134" y="95"/>
			<point x="134" y="208" type="curve" smooth="yes"/>
			<point x="134" y="560" type="line"/>
			<point x="232" y="560" type="line"/>
			<point x="232" y="590" type="line"/>
		</contour>
	</outline>
</glyph>
<glyph name="Yacute" format="2">
	<advance width="600"/>
	<unicode hex="00DD"/>
	<note>
		Yacute
	</note>
	<outline>
		<contour>
			<point x="138" y="634" type="line"/>
			<point x="134" y="654" type="line"/>
			<point x="443" y="735" type="line"/>
			<point x="452" y="697" type="line"/>
		</contour>
		<contour>
			<point x="105" y="560" type="line"/>
			<point x="32" y="560" type="line"/>
			<point x="32" y="590" type="line"/>
			<point x="240" y="590" type="line"/>
			<point x="240" y="560" type="line"/>
			<point x="139" y="560" type="line"/>
			<point x="300" y="263" type="line"/>
			<point x="461" y="560" type="line"/>
			<point x="360" y="560" type="line"/>
			<point x="360" y="590" type="line"/>
			<point x="568" y="590" type="line"/>
			<point x="568" y="560" type="line"/>
			<point x="495" y="560" type="line"/>
			<point x="316" y="229" type="line"/>
			<point x="316" y="30" type="line"/>
			<point x="435" y="30" type="line"/>
			<point x="435" y="0" type="line"/>
			<point x="165" y="0" type="line"/>
			<point x="165" y="30" type="line"/>
			<point x="284" y="30" type="line"/>
			<point x="284" y="229" type="line"/>
		</contour>
	</outline>
</glyph>
<glyph name="Thorn" format="2">
	<advance width="600"/>
	<unicode hex="00DE"/>
	<note>
		Thorn
	</note>
	<outline>
		<contour>
			<point x="38" y="0" type="line"/>
			<point x="279" y="0" type="line"/>
			<point x="279" y="30" type="line"/>
			<point x="175" y="30" type="line"/>
			<point x="175" y="134" type="line"/>
			<point x="338" y="135" type="line" smooth="yes"/>
			<point x="458" y="135"/>
			<point x="541" y="195"/>
			<point x="541" y="295" type="curve" smooth="yes"/>
			<point x="541" y="395"/>
			<point x="458" y="455"/>
			<point x="338" y="455" type="curve" smooth="yes"/>
			<point x="175" y="455" type="line"/>
			<point x="175" y="590" type="line"/>
			<point x="38" y="590" type="line"/>
			<point x="38" y="560" type="line"/>
			<point x="145" y="560" type="line"/>
			<point x="145" y="30" type="line"/>
			<point x="38" y="30" type="line"/>
		</contour>
		<contour>
			<point x="175" y="164" type="line"/>
			<point x="175" y="425" type="line"/>
			<point x="338" y="425" type="line" smooth="yes"/>
			<point x="435" y="425"/>
			<point x="511" y="381"/>
			<point x="511" y="295" type="curve" smooth="yes"/>
			<point x="511" y="211"/>
			<point x="435" y="164"/>
			<point x="338" y="164" type="curve" smooth="yes"/>
		</contour>
	</outline>
</glyph>
<glyph name="germandbls" format="2">
	<advance width="600"/>
	<unicode hex="00DF"/>
	<note>
		germandbls
	</note>
	<outline>
		<contour>
			<point x="410" y="-13" type="curve" smooth="yes"/>
			<point x="499" y="-13"/>
			<point x="554" y="79"/>
			<point x="554" y="177" type="curve" smooth="yes"/>
			<point x="554" y="249"/>
			<point x="493" y="323"/>
			<point x="408" y="332" type="curve"/>
			<point x="462" y="343"/>
			<point x="494" y="399"/>
			<point x="494" y="448" type="curve" smooth="yes"/>
			<point x="494" y="533"/>
			<point x="426" y="603"/>
			<point x="338" y="603" type="curve" smooth="yes"/>
			<point x="209" y="603"/>
			<point x="133" y="512"/>
			<point x="133" y="372" type="curve" smooth="yes"/>
			<point x="133" y="30" type="line"/>
			<point x="40" y="30" type="line"/>
			<point x="40" y="0" type="line"/>
			<point x="230" y="0" type="line"/>
			<point x="230" y="30" type="line"/>
			<point x="163" y="30" type="line"/>
			<point x="163" y="372" type="line" smooth="yes"/>
			<point x="163" y="491"/>
			<point x="223" y="573"/>
			<point x="338" y="573" type="curve" smooth="yes"/>
			<point x="405" y="573"/>
			<point x="464" y="520"/>
			<point x="464" y="448" type="curve" smooth="yes"/>
			<point x="464" y="393"/>
			<point x="417" y="343"/>
			<point x="338" y="343" type="curve" smooth="yes"/>
			<point x="245" y="343" type="line"/>
			<point x="245" y="313" type="line"/>
			<point x="349" y="313" type="line" smooth="yes"/>
			<point x="454" y="313"/>
			<point x="524" y="252"/>
			<point x="524" y="177" type="curve" smooth="yes"/>
			<point x="524" y="96"/>
			<point x="484" y="17"/>
			<point x="410" y="17" type="curve" smooth="yes"/>
			<point x="338" y="17"/>
			<point x="279" y="60"/>
			<point x="279" y="150" type="curve"/>
			<point x="289" y="137"/>
			<point x="301" y="131"/>
			<point x="312" y="131" type="curve" smooth="yes"/>
			<point x="337" y="131"/>
			<point x="357" y="153"/>
			<point x="357" y="173" type="curve" smooth="yes"/>
			<point x="357" y="199"/>
			<point x="338" y="221"/>
			<point x="309" y="221" type="curve" smooth="yes"/>
			<point x="274" y="221"/>
			<point x="248" y="188"/>
			<point x="248" y="156" type="curve" smooth="yes"/>
			<point x="248" y="40"/>
			<point x="325" y="-13"/>
		</contour>
	</outline>
</glyph>
<glyph name="ae" format="2">
	<advance width="600"/>
	<unicode hex="00E6"/>
	<note>
		ae
	</note>
	<outline>
		<contour>
			<point x="6" y="112" type="curve" smooth="yes"/>
			<point x="4" y="33"/>
			<point x="71" y="-13"/>
			<point x="127" y="-13" type="curve" smooth="yes"/>
			<point x="197" y="-13"/>
			<point x="239" y="28"/>
			<point x="293" y="89" type="curve"/>
			<point x="321" y="28"/>
			<point x="369" y="-13"/>
			<point x="429" y="-13" type="curve" smooth="yes"/>
			<point x="511" y="-13"/>
			<point x="545" y="43"/>
			<point x="599" y="136" type="curve"/>
			<point x="573" y="151" type="line"/>
			<point x="525" y="66"/>
			<point x="494" y="17"/>
			<point x="429" y="17" type="curve" smooth="yes"/>
			<point x="345" y="17"/>
			<point x="296" y="116"/>
			<point x="296" y="227" type="curve"/>
			<point x="581" y="227" type="line"/>
			<point x="581" y="238" type="line" smooth="yes"/>
			<point x="581" y="356"/>
			<point x="521" y="443"/>
			<point x="429" y="443" type="curve" smooth="yes"/>
			<point x="366" y="443"/>
			<point x="319" y="411"/>
			<point x="296" y="362" type="curve"/>
			<point x="281" y="414"/>
			<point x="220" y="443"/>
			<point x="168" y="443" type="curve" smooth="yes"/>
			<point x="91" y="443"/>
			<point x="21" y="408"/>
			<point x="21" y="332" type="curve" smooth="yes"/>
			<point x="21" y="300"/>
			<point x="40" y="279"/>
			<point x="65" y="279" type="curve" smooth="yes"/>
			<point x="92" y="279"/>
			<point x="117" y="293"/>
			<point x="117" y="325" type="curve" smooth="yes"/>
			<point x="117" y="348"/>
			<point x="100" y="364"/>
			<point x="81" y="364" type="curve" smooth="yes"/>
			<point x="71" y="364"/>
			<point x="61" y="359"/>
			<point x="53" y="354" type="curve"/>
			<point x="61" y="391"/>
			<point x="112" y="413"/>
			<point x="168" y="413" type="curve" smooth="yes"/>
			<point x="215" y="413"/>
			<point x="277" y="386"/>
			<point x="277" y="317" type="curve" smooth="yes"/>
			<point x="277" y="270"/>
			<point x="251" y="243"/>
			<point x="196" y="243" type="curve" smooth="yes"/>
			<point x="89" y="243"/>
			<point x="8" y="204"/>
		</contour>
		<contour>
			<point x="551" y="257" type="curve"/>
			<point x="298" y="257" type="line"/>
			<point x="312" y="354"/>
			<point x="341" y="413"/>
			<point x="429" y="413" type="curve" smooth="yes"/>
			<point x="499" y="413"/>
			<point x="543" y="348"/>
		</contour>
		<contour>
			<point x="36" y="112" type="curve" smooth="yes"/>
			<point x="36" y="184"/>
			<point x="105" y="213"/>
			<point x="196" y="213" type="curve" smooth="yes"/>
			<point x="231" y="213"/>
			<point x="252" y="222"/>
			<point x="267" y="236" type="curve"/>
			<point x="266" y="190"/>
			<point x="268" y="150"/>
			<point x="280" y="117" type="curve"/>
			<point x="229" y="61"/>
			<point x="184" y="17"/>
			<point x="128" y="17" type="curve" smooth="yes"/>
			<point x="86" y="17"/>
			<point x="36" y="50"/>
		</contour>
	</outline>
</glyph>
<glyph name="egrave" format="2">
	<advance width="600"/>
	<unicode hex="00E8"/>
	<note>
		egrave
	</note>
	<outline>
		<contour>
			<point x="66" y="223" type="curve" smooth="yes"/>
			<point x="66" y="96"/>
			<point x="167" y="-13"/>
			<point x="289" y="-13" type="curve" smooth="yes"/>
			<point x="395" y="-13"/>
			<point x="475" y="43"/>
			<point x="529" y="136" type="curve"/>
			<point x="503" y="151" type="line"/>
			<point x="456" y="66"/>
			<point x="378" y="17"/>
			<point x="289" y="17" type="curve" smooth="yes"/>
			<point x="181" y="17"/>
			<point x="96" y="116"/>
			<point x="96" y="227" type="curve"/>
			<point x="501" y="227" type="line"/>
			<point x="501" y="238" type="line" smooth="yes"/>
			<point x="501" y="356"/>
			<point x="405" y="443"/>
			<point x="289" y="443" type="curve" smooth="yes"/>
			<point x="156" y="443"/>
			<point x="66" y="365"/>
		</contour>
		<contour>
			<point x="470" y="257" type="curve"/>
			<point x="98" y="257" type="line"/>
			<point x="112" y="354"/>
			<point x="177" y="413"/>
			<point x="289" y="413" type="curve" smooth="yes"/>
			<point x="383" y="413"/>
			<point x="460" y="348"/>
		</contour>
		<contour>
			<point x="437" y="487" type="line"/>
			<point x="123" y="550" type="line"/>
			<point x="132" y="590" type="line"/>
			<point x="441" y="509" type="line"/>
		</contour>
	</outline>
</glyph>
<glyph name="igrave" format="2">
	<advance width="600"/>
	<unicode hex="00EC"/>
	<note>
		igrave
	</note>
	<outline>
		<contour>
			<point x="146" y="590" type="line"/>
			<point x="455" y="509" type="line"/>
			<point x="451" y="487" type="line"/>
			<point x="137" y="550" type="line"/>
		</contour>
		<contour>
			<point x="320" y="430" type="line"/>
			<point x="320" y="30" type="line"/>
			<point x="509" y="30" type="line"/>
			<point x="509" y="0" type="line"/>
			<point x="90" y="0" type="line"/>
			<point x="90" y="30" type="line"/>
			<point x="290" y="30" type="line"/>
			<point x="290" y="430" type="line"/>
		</contour>
	</outline>
</glyph>
<glyph name="icircumflex" format="2">
	<advance width="600"/>
	<unicode hex="00EE"/>
	<note>
		icircumflex
	</note>
	<outline>
		<contour>
			<point x="97" y="495" type="line"/>
			<point x="302" y="601" type="line"/>
			<point x="508" y="495" type="line"/>
			<point x="502" y="478" type="line"/>
			<point x="302" y="563" type="line"/>
			<point x="102" y="478" type="line"/>
		</contour>
		<contour>
			<point x="320" y="430" type="line"/>
			<point x="320" y="30" type="line"/>
			<point x="509" y="30" type="line"/>
			<point x="509" y="0" type="line"/>
			<point x="90" y="0" type="line"/>
			<point x="90" y="30" type="line"/>
			<point x="290" y="30" type="line"/>
			<point x="290" y="430" type="line"/>
		</contour>
	</outline>
</glyph>
<glyph name="idieresis" format="2">
	<advance width="600"/>
	<unicode hex="00EF"/>
	<outline>
		<contour>
			<point x="321" y="430" type="line"/>
			<point x="291" y="430" type="line"/>
			<point x="291" y="30" type="line"/>
			<point x="90" y="30" type="line"/>
			<point x="90" y="0" type="line"/>
			<point x="509" y="0" type="line"/>
			<point x="509" y="30" type="line"/>
			<point x="321" y="30" type="line"/>
		</contour>
		<contour>
			<point x="216" y="488" type="curve" smooth="yes"/>
			<point x="244" y="488"/>
			<point x="267" y="512"/>
			<point x="267" y="539" type="curve" smooth="yes"/>
			<point x="267" y="566"/>
			<point x="244" y="590"/>
			<point x="216" y="590" type="curve" smooth="yes"/>
			<point x="188" y="590"/>
			<point x="164" y="566"/>
			<point x="164" y="539" type="curve" smooth="yes"/>
			<point x="164" y="512"/>
			<point x="188" y="488"/>
		</contour>
		<contour>
			<point x="397" y="488" type="curve" smooth="yes"/>
			<point x="425" y="488"/>
			<point x="448" y="512"/>
			<point x="448" y="539" type="curve" smooth="yes"/>
			<point x="448" y="566"/>
			<point x="425" y="590"/>
			<point x="397" y="590" type="curve" smooth="yes"/>
			<point x="369" y="590"/>
			<point x="345" y="566"/>
			<point x="345" y="539" type="curve" smooth="yes"/>
			<point x="345" y="512"/>
			<point x="369" y="488"/>
		</contour>
	</outline>
</glyph>
<glyph name="ograve" format="2">
	<advance width="600"/>
	<unicode hex="00F2"/>
	<note>
		ograve
	</note>
	<outline>
		<contour>
			<point x="144" y="590" type="line"/>
			<point x="453" y="509" type="line"/>
			<point x="449" y="487" type="line"/>
			<point x="135" y="550" type="line"/>
		</contour>
		<contour>
			<point x="301" y="-13" type="curve" smooth="yes"/>
			<point x="427" y="-13"/>
			<point x="529" y="88"/>
			<point x="529" y="216" type="curve" smooth="yes"/>
			<point x="529" y="342"/>
			<point x="427" y="443"/>
			<point x="301" y="443" type="curve" smooth="yes"/>
			<point x="174" y="443"/>
			<point x="72" y="342"/>
			<point x="72" y="216" type="curve" smooth="yes"/>
			<point x="72" y="88"/>
			<point x="174" y="-13"/>
		</contour>
		<contour>
			<point x="301" y="17" type="curve" smooth="yes"/>
			<point x="191" y="17"/>
			<point x="102" y="105"/>
			<point x="102" y="216" type="curve" smooth="yes"/>
			<point x="102" y="325"/>
			<point x="191" y="413"/>
			<point x="301" y="413" type="curve" smooth="yes"/>
			<point x="410" y="413"/>
			<point x="499" y="325"/>
			<point x="499" y="216" type="curve" smooth="yes"/>
			<point x="499" y="105"/>
			<point x="410" y="17"/>
		</contour>
	</outline>
</glyph>
<glyph name="divide" format="2">
	<advance width="600"/>
	<unicode hex="00F7"/>
	<note>
		divide
	</note>
	<outline>
		<contour>
			<point x="301" y="322" type="curve" smooth="yes"/>
			<point x="334" y="322"/>
			<point x="360" y="350"/>
			<point x="360" y="381" type="curve" smooth="yes"/>
			<point x="360" y="414"/>
			<point x="334" y="441"/>
			<point x="301" y="441" type="curve" smooth="yes"/>
			<point x="268" y="441"/>
			<point x="240" y="414"/>
			<point x="240" y="381" type="curve" smooth="yes"/>
			<point x="240" y="350"/>
			<point x="268" y="322"/>
		</contour>
		<contour>
			<point x="541" y="230" type="line"/>
			<point x="541" y="200" type="line"/>
			<point x="60" y="200" type="line"/>
			<point x="60" y="230" type="line"/>
		</contour>
		<contour>
			<point x="301" y="-11" type="curve" smooth="yes"/>
			<point x="334" y="-11"/>
			<point x="360" y="16"/>
			<point x="360" y="48" type="curve" smooth="yes"/>
			<point x="360" y="80"/>
			<point x="334" y="108"/>
			<point x="301" y="108" type="curve" smooth="yes"/>
			<point x="268" y="108"/>
			<point x="240" y="80"/>
			<point x="240" y="48" type="curve" smooth="yes"/>
			<point x="240" y="16"/>
			<point x="268" y="-11"/>
		</contour>
	</outline>
</glyph>
<glyph name="oslash" format="2">
	<advance width="600"/>
	<unicode hex="00F8"/>
	<note>
		oslash
	</note>
	<outline>
		<contour>
			<point x="441" y="396" type="curve"/>
			<point x="568" y="582" type="line"/>
			<point x="543" y="598" type="line"/>
			<point x="417" y="413" type="line"/>
			<point x="383" y="433"/>
			<point x="343" y="444"/>
			<point x="301" y="444" type="curve" smooth="yes"/>
			<point x="174" y="444"/>
			<point x="72" y="343"/>
			<point x="72" y="217" type="curve" smooth="yes"/>
			<point x="72" y="143"/>
			<point x="106" y="78"/>
			<point x="160" y="36" type="curve"/>
			<point x="33" y="-150" type="line"/>
			<point x="57" y="-167" type="line"/>
			<point x="184" y="19" type="line"/>
			<point x="218" y="-1"/>
			<point x="258" y="-13"/>
			<point x="301" y="-13" type="curve" smooth="yes"/>
			<point x="427" y="-13"/>
			<point x="529" y="89"/>
			<point x="529" y="217" type="curve" smooth="yes"/>
			<point x="529" y="290"/>
			<point x="495" y="355"/>
		</contour>
		<contour>
			<point x="102" y="217" type="curve" smooth="yes"/>
			<point x="102" y="326"/>
			<point x="191" y="414"/>
			<point x="301" y="414" type="curve" smooth="yes"/>
			<point x="337" y="414"/>
			<point x="371" y="404"/>
			<point x="400" y="388" type="curve"/>
			<point x="177" y="61" type="line"/>
			<point x="131" y="97"/>
			<point x="102" y="153"/>
		</contour>
		<contour>
			<point x="301" y="18" type="curve" smooth="yes"/>
			<point x="265" y="18"/>
			<point x="231" y="28"/>
			<point x="201" y="44" type="curve"/>
			<point x="424" y="371" type="line"/>
			<point x="470" y="335"/>
			<point x="499" y="280"/>
			<point x="499" y="217" type="curve" smooth="yes"/>
			<point x="499" y="106"/>
			<point x="410" y="18"/>
		</contour>
	</outline>
</glyph>
<glyph name="ugrave" format="2">
	<advance width="600"/>
	<unicode hex="00F9"/>
	<note>
		ugrave
	</note>
	<outline>
		<contour>
			<point x="437" y="488" type="line"/>
			<point x="441" y="510" type="line"/>
			<point x="132" y="591" type="line"/>
			<point x="123" y="551" type="line"/>
		</contour>
		<contour>
			<point x="558" y="34" type="line"/>
			<point x="473" y="34" type="line"/>
			<point x="473" y="363" type="line"/>
			<point x="472" y="425"/>
			<point x="447" y="443"/>
			<point x="418" y="443" type="curve" smooth="yes"/>
			<point x="376" y="443"/>
			<point x="353" y="386"/>
			<point x="325" y="323" type="curve"/>
			<point x="352" y="310" type="line"/>
			<point x="376" y="364"/>
			<point x="398" y="413"/>
			<point x="418" y="413" type="curve" smooth="yes"/>
			<point x="434" y="413"/>
			<point x="443" y="397"/>
			<point x="443" y="363" type="curve" smooth="yes"/>
			<point x="443" y="173" type="line"/>
			<point x="345" y="66"/>
			<point x="313" y="17"/>
			<point x="255" y="17" type="curve" smooth="yes"/>
			<point x="201" y="17"/>
			<point x="158" y="50"/>
			<point x="158" y="110" type="curve" smooth="yes"/>
			<point x="158" y="321" type="line"/>
			<point x="158" y="363" type="line"/>
			<point x="157" y="425"/>
			<point x="132" y="443"/>
			<point x="103" y="443" type="curve" smooth="yes"/>
			<point x="61" y="443"/>
			<point x="38" y="386"/>
			<point x="10" y="323" type="curve"/>
			<point x="37" y="310" type="line"/>
			<point x="61" y="364"/>
			<point x="83" y="413"/>
			<point x="103" y="413" type="curve" smooth="yes"/>
			<point x="119" y="413"/>
			<point x="128" y="397"/>
			<point x="128" y="363" type="curve" smooth="yes"/>
			<point x="128" y="110" type="line" smooth="yes"/>
			<point x="128" y="52"/>
			<point x="169" y="-13"/>
			<point x="255" y="-13" type="curve" smooth="yes"/>
			<point x="326" y="-13"/>
			<point x="368" y="44"/>
			<point x="443" y="129" type="curve"/>
			<point x="443" y="0" type="line"/>
			<point x="558" y="1" type="line"/>
		</contour>
	</outline>
</glyph>
<glyph name="thorn" format="2">
	<advance width="600"/>
	<unicode hex="00FE"/>
	<note>
		thorn
	</note>
	<outline>
		<contour>
			<point x="33" y="-127" type="line"/>
			<point x="33" y="-160" type="line"/>
			<point x="264" y="-160" type="line"/>
			<point x="264" y="-127" type="line"/>
			<point x="156" y="-127" type="line"/>
			<point x="154" y="109" type="line"/>
			<point x="205" y="44"/>
			<point x="275" y="-13"/>
			<point x="343" y="-13" type="curve" smooth="yes"/>
			<point x="463" y="-13"/>
			<point x="549" y="90"/>
			<point x="549" y="215" type="curve" smooth="yes"/>
			<point x="549" y="346"/>
			<point x="463" y="443"/>
			<point x="343" y="443" type="curve" smooth="yes"/>
			<point x="275" y="443"/>
			<point x="204" y="390"/>
			<point x="154" y="320" type="curve"/>
			<point x="154" y="590" type="line"/>
			<point x="35" y="590" type="line"/>
			<point x="35" y="560" type="line"/>
			<point x="124" y="560" type="line"/>
			<point x="125" y="-127" type="line"/>
		</contour>
		<contour>
			<point x="155" y="152" type="curve"/>
			<point x="155" y="278" type="line"/>
			<point x="221" y="356"/>
			<point x="275" y="413"/>
			<point x="343" y="413" type="curve" smooth="yes"/>
			<point x="445" y="413"/>
			<point x="519" y="329"/>
			<point x="519" y="215" type="curve" smooth="yes"/>
			<point x="519" y="104"/>
			<point x="445" y="17"/>
			<point x="343" y="17" type="curve" smooth="yes"/>
			<point x="275" y="17"/>
			<point x="219" y="78"/>
		</contour>
	</outline>
</glyph>
<glyph name="dotlessi" format="2">
	<advance width="600"/>
	<unicode hex="0131"/>
	<note>
		dotlessi
	</note>
	<outline>
		<contour>
			<point x="320" y="430" type="line"/>
			<point x="320" y="30" type="line"/>
			<point x="509" y="30" type="line"/>
			<point x="509" y="0" type="line"/>
			<point x="90" y="0" type="line"/>
			<point x="90" y="30" type="line"/>
			<point x="290" y="30" type="line"/>
			<point x="290" y="430" type="line"/>
		</contour>
	</outline>
</glyph>
<glyph name="Lslash" format="2">
	<advance width="600"/>
	<unicode hex="0141"/>
	<note>
		Lslash
	</note>
	<outline>
		<contour>
			<point x="586" y="287" type="line"/>
			<point x="556" y="291" type="line"/>
			<point x="534" y="30" type="line"/>
			<point x="178" y="30" type="line"/>
			<point x="178" y="293" type="line"/>
			<point x="290" y="346" type="line"/>
			<point x="290" y="379" type="line"/>
			<point x="178" y="326" type="line"/>
			<point x="178" y="560" type="line"/>
			<point x="290" y="560" type="line"/>
			<point x="290" y="590" type="line"/>
			<point x="36" y="590" type="line"/>
			<point x="36" y="560" type="line"/>
			<point x="148" y="560" type="line"/>
			<point x="148" y="311" type="line"/>
			<point x="36" y="258" type="line"/>
			<point x="36" y="225" type="line"/>
			<point x="148" y="278" type="line"/>
			<point x="148" y="30" type="line"/>
			<point x="36" y="30" type="line"/>
			<point x="36" y="0" type="line"/>
			<point x="562" y="0" type="line"/>
		</contour>
	</outline>
</glyph>
<glyph name="lslash" format="2">
	<advance width="600"/>
	<unicode hex="0142"/>
	<note>
		lslash
	</note>
	<outline>
		<contour>
			<point x="321" y="293" type="line"/>
			<point x="514" y="385" type="line"/>
			<point x="514" y="418" type="line"/>
			<point x="321" y="326" type="line"/>
			<point x="321" y="590" type="line"/>
			<point x="95" y="590" type="line"/>
			<point x="95" y="560" type="line"/>
			<point x="291" y="560" type="line"/>
			<point x="291" y="312" type="line"/>
			<point x="95" y="218" type="line"/>
			<point x="95" y="185" type="line"/>
			<point x="291" y="279" type="line"/>
			<point x="291" y="30" type="line"/>
			<point x="95" y="30" type="line"/>
			<point x="95" y="0" type="line"/>
			<point x="514" y="0" type="line"/>
			<point x="514" y="30" type="line"/>
			<point x="321" y="30" type="line"/>
		</contour>
	</outline>
</glyph>
<glyph name="eng" format="2">
	<advance width="600"/>
	<unicode hex="014B"/>
	<note>
		eng
	</note>
	<outline>
		<contour>
			<point x="372" y="443" type="curve" smooth="yes"/>
			<point x="305" y="443"/>
			<point x="263" y="386"/>
			<point x="180" y="303" type="curve"/>
			<point x="180" y="363" type="line"/>
			<point x="179" y="425"/>
			<point x="154" y="443"/>
			<point x="125" y="443" type="curve" smooth="yes"/>
			<point x="94" y="443"/>
			<point x="73" y="412"/>
			<point x="53" y="370" type="curve"/>
			<point x="80" y="355" type="line"/>
			<point x="96" y="389"/>
			<point x="111" y="413"/>
			<point x="125" y="413" type="curve" smooth="yes"/>
			<point x="141" y="413"/>
			<point x="150" y="397"/>
			<point x="150" y="363" type="curve" smooth="yes"/>
			<point x="150" y="30" type="line"/>
			<point x="62" y="30" type="line"/>
			<point x="62" y="0" type="line"/>
			<point x="264" y="0" type="line"/>
			<point x="264" y="30" type="line"/>
			<point x="180" y="30" type="line"/>
			<point x="180" y="261" type="line"/>
			<point x="288" y="369"/>
			<point x="318" y="413"/>
			<point x="372" y="413" type="curve" smooth="yes"/>
			<point x="431" y="413"/>
			<point x="468" y="377"/>
			<point x="468" y="310" type="curve" smooth="yes"/>
			<point x="468" y="11" type="line" smooth="yes"/>
			<point x="468" y="-86"/>
			<point x="449" y="-143"/>
			<point x="389" y="-143" type="curve"/>
			<point x="406" y="-135"/>
			<point x="409" y="-121"/>
			<point x="409" y="-107" type="curve" smooth="yes"/>
			<point x="409" y="-84"/>
			<point x="387" y="-71"/>
			<point x="367" y="-71" type="curve" smooth="yes"/>
			<point x="339" y="-71"/>
			<point x="322" y="-92"/>
			<point x="322" y="-123" type="curve" smooth="yes"/>
			<point x="322" y="-148"/>
			<point x="351" y="-173"/>
			<point x="387" y="-173" type="curve" smooth="yes"/>
			<point x="467" y="-173"/>
			<point x="498" y="-113"/>
			<point x="498" y="18" type="curve" smooth="yes"/>
			<point x="498" y="310" type="line" smooth="yes"/>
			<point x="498" y="394"/>
			<point x="450" y="443"/>
		</contour>
	</outline>
</glyph>
<glyph name="Zcaron" format="2">
	<advance width="600"/>
	<unicode hex="017D"/>
	<note>
		Zcaron
	</note>
	<outline>
		<contour>
			<point x="526" y="740" type="line"/>
			<point x="320" y="634" type="line"/>
			<point x="115" y="740" type="line"/>
			<point x="120" y="757" type="line"/>
			<point x="320" y="672" type="line"/>
			<point x="520" y="757" type="line"/>
		</contour>
		<contour>
			<point x="87" y="590" type="line"/>
			<point x="63" y="303" type="line"/>
			<point x="93" y="301" type="line"/>
			<point x="115" y="560" type="line"/>
			<point x="476" y="560" type="line"/>
			<point x="80" y="30" type="line"/>
			<point x="80" y="0" type="line"/>
			<point x="508" y="0" type="line"/>
			<point x="532" y="287" type="line"/>
			<point x="502" y="290" type="line"/>
			<point x="480" y="30" type="line"/>
			<point x="117" y="30" type="line"/>
			<point x="514" y="560" type="line"/>
			<point x="514" y="590" type="line"/>
		</contour>
	</outline>
</glyph>
<glyph name="zcaron" format="2">
	<advance width="600"/>
	<unicode hex="017E"/>
	<note>
		zcaron
	</note>
	<outline>
		<contour>
			<point x="502" y="592" type="line"/>
			<point x="296" y="486" type="line"/>
			<point x="91" y="592" type="line"/>
			<point x="96" y="609" type="line"/>
			<point x="296" y="524" type="line"/>
			<point x="496" y="609" type="line"/>
		</contour>
		<contour>
			<point x="99" y="30" type="line"/>
			<point x="487" y="30" type="line"/>
			<point x="504" y="220" type="line"/>
			<point x="534" y="217" type="line"/>
			<point x="515" y="0" type="line"/>
			<point x="63" y="0" type="line"/>
			<point x="63" y="38" type="line"/>
			<point x="471" y="400" type="line"/>
			<point x="105" y="400" type="line"/>
			<point x="88" y="210" type="line"/>
			<point x="58" y="213" type="line"/>
			<point x="77" y="430" type="line"/>
			<point x="509" y="430" type="line"/>
			<point x="509" y="393" type="line"/>
		</contour>
	</outline>
</glyph>
<glyph name="breve" format="2">
	<advance width="600"/>
	<unicode hex="02D8"/>
	<note>
		breve
	</note>
	<outline>
		<contour>
			<point x="209" y="590" type="curve"/>
			<point x="178" y="590" type="line"/>
			<point x="184" y="532"/>
			<point x="235" y="483"/>
			<point x="300" y="483" type="curve" smooth="yes"/>
			<point x="363" y="483"/>
			<point x="419" y="530"/>
			<point x="421" y="590" type="curve"/>
			<point x="390" y="590" type="line"/>
			<point x="383" y="546"/>
			<point x="344" y="512"/>
			<point x="300" y="512" type="curve" smooth="yes"/>
			<point x="255" y="512"/>
			<point x="214" y="546"/>
		</contour>
	</outline>
</glyph>
<glyph name="dotaccent" format="2">
	<advance width="600"/>
	<unicode hex="02D9"/>
	<note>
		dotaccent
	</note>
	<outline>
		<contour>
			<point x="288" y="492" type="curve" smooth="yes"/>
			<point x="309" y="492"/>
			<point x="325" y="510"/>
			<point x="325" y="531" type="curve" smooth="yes"/>
			<point x="325" y="553"/>
			<point x="309" y="570"/>
			<point x="288" y="570" type="curve" smooth="yes"/>
			<point x="267" y="570"/>
			<point x="250" y="553"/>
			<point x="250" y="531" type="curve" smooth="yes"/>
			<point x="250" y="510"/>
			<point x="267" y="492"/>
		</contour>
	</outline>
</glyph>
<glyph name="ogonek" format="2">
	<advance width="600"/>
	<unicode hex="02DB"/>
	<note>
		ogonek
	</note>
	<outline>
		<contour>
			<point x="264" y="0" type="line"/>
			<point x="239" y="0" type="line"/>
			<point x="212" y="-70" type="line" smooth="yes"/>
			<point x="192" y="-122"/>
			<point x="214" y="-172"/>
			<point x="268" y="-172" type="curve" smooth="yes"/>
			<point x="290" y="-172"/>
			<point x="307" y="-166"/>
			<point x="374" y="-132" type="curve"/>
			<point x="363" y="-110" type="line"/>
			<point x="305" y="-143"/>
			<point x="287" y="-147"/>
			<point x="268" y="-147" type="curve" smooth="yes"/>
			<point x="232" y="-147"/>
			<point x="219" y="-115"/>
			<point x="235" y="-74" type="curve" smooth="yes"/>
		</contour>
	</outline>
</glyph>
<glyph name="pi" format="2">
	<advance width="600"/>
	<unicode hex="03C0"/>
	<note>
		pi
	</note>
	<outline>
		<contour>
			<point x="172" y="400" type="line"/>
			<point x="411" y="400" type="line"/>
			<point x="411" y="67" type="line" smooth="yes"/>
			<point x="412" y="5"/>
			<point x="437" y="-13"/>
			<point x="466" y="-13" type="curve" smooth="yes"/>
			<point x="510" y="-13"/>
			<point x="531" y="44"/>
			<point x="559" y="107" type="curve"/>
			<point x="532" y="120" type="line"/>
			<point x="508" y="66"/>
			<point x="488" y="17"/>
			<point x="466" y="17" type="curve" smooth="yes"/>
			<point x="450" y="17"/>
			<point x="441" y="33"/>
			<point x="441" y="67" type="curve" smooth="yes"/>
			<point x="441" y="400" type="line"/>
			<point x="517" y="400" type="line"/>
			<point x="517" y="430" type="line"/>
			<point x="66" y="430" type="line"/>
			<point x="66" y="400" type="line"/>
			<point x="142" y="400" type="line"/>
			<point x="142" y="0" type="line"/>
			<point x="172" y="0" type="line"/>
		</contour>
	</outline>
</glyph>
<glyph name="endash" format="2">
	<advance width="600"/>
	<unicode hex="2013"/>
	<note>
		endash
	</note>
	<outline>
		<contour>
			<point x="125" y="201" type="line"/>
			<point x="125" y="231" type="line"/>
			<point x="485" y="231" type="line"/>
			<point x="485" y="201" type="line"/>
		</contour>
	</outline>
</glyph>
<glyph name="quoteright" format="2">
	<advance width="600"/>
	<unicode hex="2019"/>
	<note>
		quoteright
	</note>
	<outline>
		<contour>
			<point x="132" y="466" type="curve" smooth="yes"/>
			<point x="165" y="466"/>
			<point x="192" y="494"/>
			<point x="192" y="522" type="curve" smooth="yes"/>
			<point x="192" y="541"/>
			<point x="186" y="558"/>
			<point x="175" y="567" type="curve"/>
			<point x="204" y="558"/>
			<point x="227" y="515"/>
			<point x="227" y="473" type="curve" smooth="yes"/>
			<point x="227" y="408"/>
			<point x="169" y="342"/>
			<point x="102" y="335" type="curve"/>
			<point x="106" y="310" type="line"/>
			<point x="178" y="317"/>
			<point x="252" y="388"/>
			<point x="252" y="473" type="curve" smooth="yes"/>
			<point x="252" y="548"/>
			<point x="205" y="603"/>
			<point x="144" y="603" type="curve" smooth="yes"/>
			<point x="104" y="603"/>
			<point x="66" y="575"/>
			<point x="66" y="534" type="curve" smooth="yes"/>
			<point x="66" y="495"/>
			<point x="95" y="466"/>
		</contour>
	</outline>
</glyph>
<glyph name="quotedblleft" format="2">
	<advance width="600"/>
	<unicode hex="201C"/>
	<note>
		quotedblleft
	</note>
	<outline>
		<contour>
			<point x="186" y="447" type="curve" smooth="yes"/>
			<point x="153" y="447"/>
			<point x="126" y="419"/>
			<point x="126" y="391" type="curve" smooth="yes"/>
			<point x="126" y="372"/>
			<point x="132" y="355"/>
			<point x="143" y="346" type="curve"/>
			<point x="114" y="355"/>
			<point x="91" y="398"/>
			<point x="91" y="440" type="curve" smooth="yes"/>
			<point x="91" y="505"/>
			<point x="149" y="571"/>
			<point x="216" y="578" type="curve"/>
			<point x="212" y="603" type="line"/>
			<point x="140" y="596"/>
			<point x="66" y="525"/>
			<point x="66" y="440" type="curve" smooth="yes"/>
			<point x="66" y="365"/>
			<point x="113" y="310"/>
			<point x="174" y="310" type="curve" smooth="yes"/>
			<point x="214" y="310"/>
			<point x="252" y="338"/>
			<point x="252" y="379" type="curve" smooth="yes"/>
			<point x="252" y="418"/>
			<point x="223" y="447"/>
		</contour>
		<contour>
			<point x="388" y="447" type="curve" smooth="yes"/>
			<point x="355" y="447"/>
			<point x="328" y="419"/>
			<point x="328" y="391" type="curve" smooth="yes"/>
			<point x="328" y="372"/>
			<point x="334" y="355"/>
			<point x="345" y="346" type="curve"/>
			<point x="316" y="355"/>
			<point x="293" y="398"/>
			<point x="293" y="440" type="curve" smooth="yes"/>
			<point x="293" y="505"/>
			<point x="351" y="571"/>
			<point x="418" y="578" type="curve"/>
			<point x="414" y="603" type="line"/>
			<point x="342" y="596"/>
			<point x="268" y="525"/>
			<point x="268" y="440" type="curve" smooth="yes"/>
			<point x="268" y="365"/>
			<point x="315" y="310"/>
			<point x="376" y="310" type="curve" smooth="yes"/>
			<point x="416" y="310"/>
			<point x="454" y="338"/>
			<point x="454" y="379" type="curve" smooth="yes"/>
			<point x="454" y="418"/>
			<point x="425" y="447"/>
		</contour>
	</outline>
</glyph>
<glyph name="dagger" format="2">
	<advance width="600"/>
	<unicode hex="2020"/>
	<note>
		dagger
	</note>
	<outline>
		<contour>
			<point x="450" y="556" type="curve" smooth="yes"/>
			<point x="425" y="556"/>
			<point x="404" y="539"/>
			<point x="404" y="516" type="curve" smooth="yes"/>
			<point x="404" y="496"/>
			<point x="418" y="477"/>
			<point x="441" y="477" type="curve" smooth="yes"/>
			<point x="462" y="477"/>
			<point x="478" y="496"/>
			<point x="473" y="514" type="curve"/>
			<point x="484" y="513"/>
			<point x="494" y="496"/>
			<point x="494" y="477" type="curve" smooth="yes"/>
			<point x="494" y="445"/>
			<point x="451" y="425"/>
			<point x="411" y="441" type="curve" smooth="yes"/>
			<point x="383" y="452" type="line" smooth="yes"/>
			<point x="358" y="462"/>
			<point x="337" y="458"/>
			<point x="321" y="447" type="curve"/>
			<point x="321" y="466"/>
			<point x="319" y="484"/>
			<point x="313" y="496" type="curve"/>
			<point x="331" y="506"/>
			<point x="343" y="525"/>
			<point x="343" y="546" type="curve" smooth="yes"/>
			<point x="343" y="577"/>
			<point x="318" y="603"/>
			<point x="286" y="603" type="curve" smooth="yes"/>
			<point x="254" y="603"/>
			<point x="228" y="577"/>
			<point x="228" y="546" type="curve" smooth="yes"/>
			<point x="228" y="525"/>
			<point x="240" y="506"/>
			<point x="258" y="496" type="curve"/>
			<point x="251" y="484"/>
			<point x="249" y="467"/>
			<point x="249" y="447" type="curve"/>
			<point x="233" y="458"/>
			<point x="212" y="462"/>
			<point x="187" y="452" type="curve" smooth="yes"/>
			<point x="159" y="441" type="line" smooth="yes"/>
			<point x="119" y="425"/>
			<point x="76" y="445"/>
			<point x="76" y="477" type="curve" smooth="yes"/>
			<point x="76" y="496"/>
			<point x="86" y="513"/>
			<point x="97" y="514" type="curve"/>
			<point x="92" y="496"/>
			<point x="108" y="477"/>
			<point x="129" y="477" type="curve" smooth="yes"/>
			<point x="152" y="477"/>
			<point x="166" y="496"/>
			<point x="166" y="516" type="curve" smooth="yes"/>
			<point x="166" y="539"/>
			<point x="145" y="556"/>
			<point x="120" y="556" type="curve" smooth="yes"/>
			<point x="74" y="556"/>
			<point x="46" y="524"/>
			<point x="46" y="477" type="curve" smooth="yes"/>
			<point x="46" y="428"/>
			<point x="108" y="391"/>
			<point x="158" y="409" type="curve" smooth="yes"/>
			<point x="195" y="422" type="line" smooth="yes"/>
			<point x="247" y="441"/>
			<point x="252" y="377"/>
			<point x="254" y="355" type="curve"/>
			<point x="274" y="-22" type="line"/>
			<point x="296" y="-22" type="line"/>
			<point x="316" y="355" type="line"/>
			<point x="318" y="377"/>
			<point x="323" y="441"/>
			<point x="375" y="422" type="curve" smooth="yes"/>
			<point x="412" y="409" type="line" smooth="yes"/>
			<point x="462" y="391"/>
			<point x="524" y="428"/>
			<point x="524" y="477" type="curve" smooth="yes"/>
			<point x="524" y="524"/>
			<point x="496" y="556"/>
		</contour>
	</outline>
</glyph>
<glyph name="perthousand" format="2">
	<advance width="600"/>
	<unicode hex="2030"/>
	<note>
		perthousand
	</note>
	<outline>
		<contour>
			<point x="185" y="575"/>
			<point x="201.016" y="532.085" type="curve"/>
			<point x="220.023" y="513.671"/>
			<point x="243.398" y="496"/>
			<point x="264" y="496" type="curve" smooth="yes"/>
			<point x="316" y="496"/>
			<point x="376" y="554"/>
			<point x="416" y="603" type="curve"/>
			<point x="439" y="584" type="line"/>
			<point x="13" y="-13" type="line"/>
			<point x="-10" y="6" type="line"/>
			<point x="335" y="490" type="line"/>
			<point x="312" y="474"/>
			<point x="288" y="466"/>
			<point x="264" y="466" type="curve" smooth="yes"/>
			<point x="246.5" y="466"/>
			<point x="226" y="474"/>
			<point x="212" y="487" type="curve"/>
			<point x="213" y="480"/>
			<point x="213" y="472"/>
			<point x="213" y="465" type="curve" smooth="yes"/>
			<point x="213" y="388"/>
			<point x="171" y="326"/>
			<point x="115" y="326" type="curve" smooth="yes"/>
			<point x="58" y="326"/>
			<point x="16" y="388"/>
			<point x="16" y="465" type="curve" smooth="yes"/>
			<point x="16" y="541"/>
			<point x="58" y="603"/>
			<point x="115" y="603" type="curve" smooth="yes"/>
			<point x="153" y="603"/>
		</contour>
		<contour>
			<point x="46" y="465" type="curve" smooth="yes"/>
			<point x="46" y="406"/>
			<point x="77" y="357"/>
			<point x="115" y="357" type="curve" smooth="yes"/>
			<point x="152" y="357"/>
			<point x="183" y="406"/>
			<point x="183" y="465" type="curve" smooth="yes"/>
			<point x="183" y="525"/>
			<point x="152" y="574"/>
			<point x="115" y="574" type="curve" smooth="yes"/>
			<point x="77" y="574"/>
			<point x="46" y="525"/>
		</contour>
		<contour>
			<point x="199" y="126" type="curve" smooth="yes"/>
			<point x="199" y="202"/>
			<point x="241" y="264"/>
			<point x="298" y="264" type="curve" smooth="yes"/>
			<point x="354" y="264"/>
			<point x="396" y="202"/>
			<point x="396" y="126" type="curve" smooth="yes"/>
			<point x="396" y="49"/>
			<point x="354" y="-13"/>
			<point x="298" y="-13" type="curve" smooth="yes"/>
			<point x="241" y="-13"/>
			<point x="199" y="49"/>
		</contour>
		<contour>
			<point x="229" y="126" type="curve" smooth="yes"/>
			<point x="229" y="67"/>
			<point x="260" y="18"/>
			<point x="298" y="18" type="curve" smooth="yes"/>
			<point x="335" y="18"/>
			<point x="366" y="67"/>
			<point x="366" y="126" type="curve" smooth="yes"/>
			<point x="366" y="186"/>
			<point x="335" y="235"/>
			<point x="298" y="235" type="curve" smooth="yes"/>
			<point x="260" y="235"/>
			<point x="229" y="186"/>
		</contour>
		<contour>
			<point x="415" y="126" type="curve" smooth="yes"/>
			<point x="415" y="202"/>
			<point x="457" y="264"/>
			<point x="514" y="264" type="curve" smooth="yes"/>
			<point x="570" y="264"/>
			<point x="612" y="202"/>
			<point x="612" y="126" type="curve" smooth="yes"/>
			<point x="612" y="49"/>
			<point x="570" y="-13"/>
			<point x="514" y="-13" type="curve" smooth="yes"/>
			<point x="457" y="-13"/>
			<point x="415" y="49"/>
		</contour>
		<contour>
			<point x="445" y="126" type="curve" smooth="yes"/>
			<point x="445" y="67"/>
			<point x="476" y="18"/>
			<point x="514" y="18" type="curve" smooth="yes"/>
			<point x="551" y="18"/>
			<point x="582" y="67"/>
			<point x="582" y="126" type="curve" smooth="yes"/>
			<point x="582" y="186"/>
			<point x="551" y="235"/>
			<point x="514" y="235" type="curve" smooth="yes"/>
			<point x="476" y="235"/>
			<point x="445" y="186"/>
		</contour>
	</outline>
</glyph>
<glyph name="guilsinglleft" format="2">
	<advance width="600"/>
	<unicode hex="2039"/>
	<note>
		guilsinglleft
	</note>
	<outline>
		<contour>
			<point x="187" y="253" type="curve"/>
			<point x="239" y="208"/>
			<point x="330" y="144"/>
			<point x="391" y="63" type="curve"/>
			<point x="414" y="87" type="line"/>
			<point x="349" y="168"/>
			<point x="289" y="213"/>
			<point x="238" y="253" type="curve"/>
			<point x="289" y="293"/>
			<point x="349" y="338"/>
			<point x="414" y="419" type="curve"/>
			<point x="391" y="443" type="line"/>
			<point x="330" y="362"/>
			<point x="239" y="298"/>
		</contour>
	</outline>
</glyph>
<glyph name="fraction" format="2">
	<advance width="600"/>
	<unicode hex="2044"/>
	<note>
		fraction
	</note>
	<outline>
		<contour>
			<point x="532" y="590" type="line"/>
			<point x="512" y="603" type="line"/>
			<point x="81" y="1" type="line"/>
			<point x="101" y="-13" type="line"/>
		</contour>
	</outline>
</glyph>
<glyph name="Euro" format="2">
	<advance width="600"/>
	<unicode hex="20AC"/>
	<note>
		Euro
	</note>
	<outline>
		<contour>
			<point x="528" y="235" type="curve" smooth="yes"/>
			<point x="493" y="235"/>
			<point x="470" y="210"/>
			<point x="470" y="178" type="curve" smooth="yes"/>
			<point x="470" y="129"/>
			<point x="533" y="111"/>
			<point x="556" y="144" type="curve"/>
			<point x="556" y="68"/>
			<point x="460" y="17"/>
			<point x="374" y="17" type="curve" smooth="yes"/>
			<point x="261" y="17"/>
			<point x="171" y="107"/>
			<point x="146" y="225" type="curve"/>
			<point x="421" y="225" type="line"/>
			<point x="421" y="255" type="line"/>
			<point x="140" y="255" type="line"/>
			<point x="139" y="268"/>
			<point x="138" y="281"/>
			<point x="138" y="295" type="curve" smooth="yes"/>
			<point x="138" y="309"/>
			<point x="139" y="322"/>
			<point x="140" y="335" type="curve"/>
			<point x="421" y="335" type="line"/>
			<point x="421" y="365" type="line"/>
			<point x="146" y="365" type="line"/>
			<point x="171" y="483"/>
			<point x="261" y="573"/>
			<point x="374" y="573" type="curve" smooth="yes"/>
			<point x="460" y="573"/>
			<point x="556" y="522"/>
			<point x="556" y="446" type="curve"/>
			<point x="533" y="479"/>
			<point x="470" y="461"/>
			<point x="470" y="412" type="curve" smooth="yes"/>
			<point x="470" y="380"/>
			<point x="493" y="355"/>
			<point x="528" y="355" type="curve" smooth="yes"/>
			<point x="562" y="355"/>
			<point x="587" y="386"/>
			<point x="587" y="427" type="curve" smooth="yes"/>
			<point x="587" y="536"/>
			<point x="486" y="603"/>
			<point x="374" y="603" type="curve" smooth="yes"/>
			<point x="237" y="603"/>
			<point x="139" y="501"/>
			<point x="114" y="365" type="curve"/>
			<point x="12" y="365" type="line"/>
			<point x="12" y="335" type="line"/>
			<point x="110" y="335" type="line"/>
			<point x="109" y="322"/>
			<point x="108" y="309"/>
			<point x="108" y="295" type="curve" smooth="yes"/>
			<point x="108" y="281"/>
			<point x="109" y="268"/>
			<point x="110" y="255" type="curve"/>
			<point x="12" y="255" type="line"/>
			<point x="12" y="225" type="line"/>
			<point x="114" y="225" type="line"/>
			<point x="139" y="89"/>
			<point x="237" y="-13"/>
			<point x="374" y="-13" type="curve" smooth="yes"/>
			<point x="486" y="-13"/>
			<point x="587" y="54"/>
			<point x="587" y="163" type="curve" smooth="yes"/>
			<point x="587" y="204"/>
			<point x="562" y="235"/>
		</contour>
	</outline>
</glyph>
<glyph name="uni2116" format="2">
	<advance width="600"/>
	<unicode hex="2116"/>
	<note>
		uni2116
	</note>
	<outline>
		<contour>
			<point x="492" y="439" type="curve" smooth="yes"/>
			<point x="537" y="439"/>
			<point x="574" y="476"/>
			<point x="574" y="521" type="curve" smooth="yes"/>
			<point x="574" y="566"/>
			<point x="537" y="603"/>
			<point x="492" y="603" type="curve" smooth="yes"/>
			<point x="447" y="603"/>
			<point x="410" y="566"/>
			<point x="410" y="521" type="curve" smooth="yes"/>
			<point x="410" y="476"/>
			<point x="447" y="439"/>
		</contour>
		<contour>
			<point x="380" y="560" type="line"/>
			<point x="380" y="590" type="line"/>
			<point x="243" y="590" type="line"/>
			<point x="243" y="560" type="line"/>
			<point x="308" y="560" type="line"/>
			<point x="308" y="34" type="line"/>
			<point x="120" y="590" type="line"/>
			<point x="24" y="590" type="line"/>
			<point x="24" y="560" type="line"/>
			<point x="68" y="560" type="line"/>
			<point x="68" y="30" type="line"/>
			<point x="24" y="30" type="line"/>
			<point x="24" y="0" type="line"/>
			<point x="161" y="0" type="line"/>
			<point x="161" y="30" type="line"/>
			<point x="98" y="30" type="line"/>
			<point x="98" y="560" type="line"/>
			<point x="287" y="0" type="line"/>
			<point x="338" y="0" type="line"/>
			<point x="338" y="560" type="line"/>
		</contour>
		<contour>
			<point x="492" y="469" type="curve" smooth="yes"/>
			<point x="463" y="469"/>
			<point x="440" y="492"/>
			<point x="440" y="521" type="curve" smooth="yes"/>
			<point x="440" y="550"/>
			<point x="463" y="573"/>
			<point x="492" y="573" type="curve" smooth="yes"/>
			<point x="521" y="573"/>
			<point x="544" y="550"/>
			<point x="544" y="521" type="curve" smooth="yes"/>
			<point x="544" y="492"/>
			<point x="521" y="469"/>
		</contour>
		<contour>
			<point x="572" y="380" type="line"/>
			<point x="572" y="410" type="line"/>
			<point x="412" y="410" type="line"/>
			<point x="412" y="380" type="line"/>
		</contour>
	</outline>
</glyph>
<glyph name="trademark" format="2">
	<advance width="600"/>
	<unicode hex="2122"/>
	<note>
		trademark
	</note>
	<outline>
		<contour>
			<point x="242" y="478" type="line"/>
			<point x="231" y="571" type="line"/>
			<point x="157" y="571" type="line"/>
			<point x="157" y="408" type="line"/>
			<point x="208" y="408" type="line"/>
			<point x="208" y="389" type="line"/>
			<point x="87" y="389" type="line"/>
			<point x="87" y="408" type="line"/>
			<point x="138" y="408" type="line"/>
			<point x="138" y="571" type="line"/>
			<point x="64" y="571" type="line"/>
			<point x="53" y="478" type="line"/>
			<point x="34" y="480" type="line"/>
			<point x="46" y="590" type="line"/>
			<point x="249" y="590" type="line"/>
			<point x="261" y="480" type="line"/>
		</contour>
		<contour>
			<point x="423" y="456" type="line"/>
			<point x="493" y="590" type="line"/>
			<point x="566" y="590" type="line"/>
			<point x="566" y="571" type="line"/>
			<point x="519" y="571" type="line"/>
			<point x="519" y="408" type="line"/>
			<point x="566" y="408" type="line"/>
			<point x="566" y="389" type="line"/>
			<point x="464" y="389" type="line"/>
			<point x="464" y="408" type="line"/>
			<point x="500" y="408" type="line"/>
			<point x="500" y="564" type="line"/>
			<point x="432" y="432" type="line"/>
			<point x="414" y="432" type="line"/>
			<point x="346" y="564" type="line"/>
			<point x="346" y="408" type="line"/>
			<point x="382" y="408" type="line"/>
			<point x="382" y="389" type="line"/>
			<point x="280" y="389" type="line"/>
			<point x="280" y="408" type="line"/>
			<point x="327" y="408" type="line"/>
			<point x="327" y="571" type="line"/>
			<point x="280" y="571" type="line"/>
			<point x="280" y="590" type="line"/>
			<point x="353" y="590" type="line"/>
		</contour>
	</outline>
</glyph>
<glyph name="oneeighth" format="2">
	<advance width="600"/>
	<unicode hex="215B"/>
	<note>
		oneeighth
	</note>
	<outline>
		<contour>
			<point x="532" y="590" type="line"/>
			<point x="512" y="603" type="line"/>
			<point x="81" y="1" type="line"/>
			<point x="101" y="-13" type="line"/>
		</contour>
		<contour>
			<point x="40" y="455" type="curve"/>
			<point x="54" y="436" type="line"/>
			<point x="109" y="479"/>
			<point x="122" y="493"/>
			<point x="159" y="551" type="curve"/>
			<point x="159" y="347" type="line"/>
			<point x="58" y="347" type="line"/>
			<point x="58" y="323" type="line"/>
			<point x="262" y="323" type="line"/>
			<point x="262" y="347" type="line"/>
			<point x="183" y="347" type="line"/>
			<point x="183" y="590" type="line"/>
			<point x="151" y="590" type="line"/>
			<point x="123" y="531"/>
			<point x="87" y="492"/>
		</contour>
		<contour>
			<point x="459" y="273" type="curve" smooth="yes"/>
			<point x="516" y="273"/>
			<point x="548" y="237"/>
			<point x="548" y="202" type="curve" smooth="yes"/>
			<point x="548" y="161"/>
			<point x="517" y="143"/>
			<point x="500" y="142" type="curve"/>
			<point x="521" y="142"/>
			<point x="562" y="112"/>
			<point x="562" y="71" type="curve" smooth="yes"/>
			<point x="562" y="17"/>
			<point x="516" y="-13"/>
			<point x="459" y="-13" type="curve" smooth="yes"/>
			<point x="402" y="-13"/>
			<point x="356" y="17"/>
			<point x="356" y="71" type="curve" smooth="yes"/>
			<point x="356" y="112"/>
			<point x="397" y="142"/>
			<point x="418" y="142" type="curve"/>
			<point x="401" y="143"/>
			<point x="370" y="161"/>
			<point x="370" y="202" type="curve" smooth="yes"/>
			<point x="370" y="237"/>
			<point x="402" y="273"/>
		</contour>
		<contour>
			<point x="459" y="153" type="curve" smooth="yes"/>
			<point x="501" y="153"/>
			<point x="524" y="174"/>
			<point x="524" y="202" type="curve" smooth="yes"/>
			<point x="524" y="229"/>
			<point x="497" y="249"/>
			<point x="459" y="249" type="curve" smooth="yes"/>
			<point x="421" y="249"/>
			<point x="394" y="229"/>
			<point x="394" y="202" type="curve" smooth="yes"/>
			<point x="394" y="174"/>
			<point x="417" y="153"/>
		</contour>
		<contour>
			<point x="459" y="11" type="curve" smooth="yes"/>
			<point x="507" y="11"/>
			<point x="538" y="32"/>
			<point x="538" y="71" type="curve" smooth="yes"/>
			<point x="538" y="106"/>
			<point x="502" y="132"/>
			<point x="459" y="132" type="curve" smooth="yes"/>
			<point x="416" y="132"/>
			<point x="380" y="106"/>
			<point x="380" y="71" type="curve" smooth="yes"/>
			<point x="380" y="32"/>
			<point x="411" y="11"/>
		</contour>
	</outline>
</glyph>
<glyph name="threeeighths" format="2">
	<advance width="600"/>
	<unicode hex="215C"/>
	<note>
		threeeighths
	</note>
	<outline>
		<contour>
			<point x="532" y="590" type="line"/>
			<point x="512" y="603" type="line"/>
			<point x="81" y="1" type="line"/>
			<point x="101" y="-13" type="line"/>
		</contour>
		<contour>
			<point x="70" y="389" type="curve"/>
			<point x="70" y="362"/>
			<point x="110" y="338"/>
			<point x="159" y="338" type="curve" smooth="yes"/>
			<point x="202" y="338"/>
			<point x="257" y="364"/>
			<point x="257" y="415" type="curve" smooth="yes"/>
			<point x="257" y="461"/>
			<point x="207" y="484"/>
			<point x="159" y="478" type="curve"/>
			<point x="143" y="465" type="line"/>
			<point x="128" y="484" type="line"/>
			<point x="228" y="566" type="line"/>
			<point x="87" y="566" type="line"/>
			<point x="75" y="514" type="line"/>
			<point x="51" y="517" type="line"/>
			<point x="67" y="590" type="line"/>
			<point x="273" y="590" type="line"/>
			<point x="273" y="572" type="line"/>
			<point x="186" y="501" type="line"/>
			<point x="240" y="501"/>
			<point x="281" y="464"/>
			<point x="281" y="415" type="curve" smooth="yes"/>
			<point x="281" y="348"/>
			<point x="214" y="314"/>
			<point x="159" y="314" type="curve" smooth="yes"/>
			<point x="106" y="314"/>
			<point x="49" y="341"/>
			<point x="49" y="390" type="curve" smooth="yes"/>
			<point x="49" y="411"/>
			<point x="62" y="427"/>
			<point x="84" y="427" type="curve" smooth="yes"/>
			<point x="103" y="427"/>
			<point x="115" y="416"/>
			<point x="115" y="399" type="curve" smooth="yes"/>
			<point x="115" y="382"/>
			<point x="104" y="374"/>
			<point x="91" y="374" type="curve" smooth="yes"/>
			<point x="81" y="374"/>
			<point x="74" y="379"/>
		</contour>
		<contour>
			<point x="459" y="273" type="curve" smooth="yes"/>
			<point x="516" y="273"/>
			<point x="548" y="237"/>
			<point x="548" y="202" type="curve" smooth="yes"/>
			<point x="548" y="161"/>
			<point x="517" y="143"/>
			<point x="500" y="142" type="curve"/>
			<point x="521" y="142"/>
			<point x="562" y="112"/>
			<point x="562" y="71" type="curve" smooth="yes"/>
			<point x="562" y="17"/>
			<point x="516" y="-13"/>
			<point x="459" y="-13" type="curve" smooth="yes"/>
			<point x="402" y="-13"/>
			<point x="356" y="17"/>
			<point x="356" y="71" type="curve" smooth="yes"/>
			<point x="356" y="112"/>
			<point x="397" y="142"/>
			<point x="418" y="142" type="curve"/>
			<point x="401" y="143"/>
			<point x="370" y="161"/>
			<point x="370" y="202" type="curve" smooth="yes"/>
			<point x="370" y="237"/>
			<point x="402" y="273"/>
		</contour>
		<contour>
			<point x="459" y="153" type="curve" smooth="yes"/>
			<point x="501" y="153"/>
			<point x="524" y="174"/>
			<point x="524" y="202" type="curve" smooth="yes"/>
			<point x="524" y="229"/>
			<point x="497" y="249"/>
			<point x="459" y="249" type="curve" smooth="yes"/>
			<point x="421" y="249"/>
			<point x="394" y="229"/>
			<point x="394" y="202" type="curve" smooth="yes"/>
			<point x="394" y="174"/>
			<point x="417" y="153"/>
		</contour>
		<contour>
			<point x="459" y="11" type="curve" smooth="yes"/>
			<point x="507" y="11"/>
			<point x="538" y="32"/>
			<point x="538" y="71" type="curve" smooth="yes"/>
			<point x="538" y="106"/>
			<point x="502" y="132"/>
			<point x="459" y="132" type="curve" smooth="yes"/>
			<point x="416" y="132"/>
			<point x="380" y="106"/>
			<point x="380" y="71" type="curve" smooth="yes"/>
			<point x="380" y="32"/>
			<point x="411" y="11"/>
		</contour>
	</outline>
</glyph>
<glyph name="fiveeighths" format="2">
	<advance width="600"/>
	<unicode hex="215D"/>
	<note>
		fiveeighths
	</note>
	<outline>
		<contour>
			<point x="532" y="590" type="line"/>
			<point x="512" y="603" type="line"/>
			<point x="81" y="1" type="line"/>
			<point x="101" y="-13" type="line"/>
		</contour>
		<contour>
			<point x="78" y="389" type="curve"/>
			<point x="84" y="359"/>
			<point x="117" y="340"/>
			<point x="166" y="340" type="curve" smooth="yes"/>
			<point x="204" y="340"/>
			<point x="246" y="369"/>
			<point x="246" y="412" type="curve" smooth="yes"/>
			<point x="246" y="464"/>
			<point x="204" y="487"/>
			<point x="166" y="487" type="curve" smooth="yes"/>
			<point x="139" y="487"/>
			<point x="112" y="471"/>
			<point x="94" y="454" type="curve"/>
			<point x="67" y="468" type="line"/>
			<point x="78" y="590" type="line"/>
			<point x="251" y="590" type="line"/>
			<point x="251" y="566" type="line"/>
			<point x="100" y="566" type="line"/>
			<point x="93" y="483" type="line"/>
			<point x="104" y="494"/>
			<point x="131" y="511"/>
			<point x="166" y="511" type="curve" smooth="yes"/>
			<point x="223" y="511"/>
			<point x="270" y="472"/>
			<point x="270" y="412" type="curve" smooth="yes"/>
			<point x="270" y="350"/>
			<point x="216" y="316"/>
			<point x="166" y="316" type="curve" smooth="yes"/>
			<point x="108" y="316"/>
			<point x="57" y="346"/>
			<point x="57" y="390" type="curve" smooth="yes"/>
			<point x="57" y="411"/>
			<point x="70" y="427"/>
			<point x="92" y="427" type="curve" smooth="yes"/>
			<point x="111" y="427"/>
			<point x="123" y="416"/>
			<point x="123" y="399" type="curve" smooth="yes"/>
			<point x="123" y="382"/>
			<point x="112" y="374"/>
			<point x="99" y="374" type="curve" smooth="yes"/>
			<point x="89" y="374"/>
			<point x="80" y="379"/>
		</contour>
		<contour>
			<point x="460" y="273" type="curve" smooth="yes"/>
			<point x="517" y="273"/>
			<point x="549" y="237"/>
			<point x="549" y="202" type="curve" smooth="yes"/>
			<point x="549" y="161"/>
			<point x="518" y="143"/>
			<point x="501" y="142" type="curve"/>
			<point x="522" y="142"/>
			<point x="563" y="112"/>
			<point x="563" y="71" type="curve" smooth="yes"/>
			<point x="563" y="17"/>
			<point x="517" y="-13"/>
			<point x="460" y="-13" type="curve" smooth="yes"/>
			<point x="403" y="-13"/>
			<point x="357" y="17"/>
			<point x="357" y="71" type="curve" smooth="yes"/>
			<point x="357" y="112"/>
			<point x="398" y="142"/>
			<point x="419" y="142" type="curve"/>
			<point x="402" y="143"/>
			<point x="371" y="161"/>
			<point x="371" y="202" type="curve" smooth="yes"/>
			<point x="371" y="237"/>
			<point x="403" y="273"/>
		</contour>
		<contour>
			<point x="460" y="153" type="curve" smooth="yes"/>
			<point x="502" y="153"/>
			<point x="525" y="174"/>
			<point x="525" y="202" type="curve" smooth="yes"/>
			<point x="525" y="229"/>
			<point x="498" y="249"/>
			<point x="460" y="249" type="curve" smooth="yes"/>
			<point x="422" y="249"/>
			<point x="395" y="229"/>
			<point x="395" y="202" type="curve" smooth="yes"/>
			<point x="395" y="174"/>
			<point x="418" y="153"/>
		</contour>
		<contour>
			<point x="460" y="11" type="curve" smooth="yes"/>
			<point x="508" y="11"/>
			<point x="539" y="32"/>
			<point x="539" y="71" type="curve" smooth="yes"/>
			<point x="539" y="106"/>
			<point x="503" y="132"/>
			<point x="460" y="132" type="curve" smooth="yes"/>
			<point x="417" y="132"/>
			<point x="381" y="106"/>
			<point x="381" y="71" type="curve" smooth="yes"/>
			<point x="381" y="32"/>
			<point x="412" y="11"/>
		</contour>
	</outline>
</glyph>
<glyph name="arrowleft" format="2">
	<advance width="600"/>
	<unicode hex="2190"/>
	<note>
		arrowleft
	</note>
	<outline>
		<contour>
			<point x="14" y="224" type="curve"/>
			<point x="14" y="204" type="line"/>
			<point x="97" y="164"/>
			<point x="173" y="108"/>
			<point x="215" y="32" type="curve"/>
			<point x="237" y="49" type="line"/>
			<point x="201" y="115"/>
			<point x="127" y="179"/>
			<point x="74" y="199" type="curve"/>
			<point x="586" y="198" type="line"/>
			<point x="586" y="228" type="line"/>
			<point x="74" y="229" type="line"/>
			<point x="127" y="249"/>
			<point x="201" y="313"/>
			<point x="237" y="379" type="curve"/>
			<point x="215" y="396" type="line"/>
			<point x="173" y="320"/>
			<point x="97" y="264"/>
		</contour>
	</outline>
</glyph>
<glyph name="arrowdown" format="2">
	<advance width="600"/>
	<unicode hex="2193"/>
	<note>
		arrowdown
	</note>
	<outline>
		<contour>
			<point x="290" y="0" type="curve"/>
			<point x="310" y="0" type="line"/>
			<point x="350" y="83"/>
			<point x="406" y="159"/>
			<point x="482" y="201" type="curve"/>
			<point x="465" y="223" type="line"/>
			<point x="399" y="187"/>
			<point x="335" y="113"/>
			<point x="315" y="60" type="curve"/>
			<point x="314" y="572" type="line"/>
			<point x="284" y="572" type="line"/>
			<point x="285" y="60" type="line"/>
			<point x="265" y="113"/>
			<point x="201" y="187"/>
			<point x="135" y="223" type="curve"/>
			<point x="118" y="201" type="line"/>
			<point x="194" y="159"/>
			<point x="250" y="83"/>
		</contour>
	</outline>
</glyph>
<glyph name="uni2198" format="2">
	<advance width="600"/>
	<unicode hex="2198"/>
	<note>
		uni2198
	</note>
	<outline>
		<contour>
			<point x="490" y="3" type="curve"/>
			<point x="504" y="17" type="line"/>
			<point x="473" y="104"/>
			<point x="459" y="197"/>
			<point x="483" y="281" type="curve"/>
			<point x="456" y="284" type="line"/>
			<point x="434" y="212"/>
			<point x="442" y="114"/>
			<point x="465" y="63" type="curve"/>
			<point x="102" y="424" type="line"/>
			<point x="81" y="403" type="line"/>
			<point x="444" y="42" type="line"/>
			<point x="392" y="65"/>
			<point x="294" y="72"/>
			<point x="222" y="51" type="curve"/>
			<point x="226" y="23" type="line"/>
			<point x="309" y="47"/>
			<point x="403" y="33"/>
		</contour>
	</outline>
</glyph>
<glyph name="partialdiff" format="2">
	<advance width="600"/>
	<unicode hex="2202"/>
	<note>
		partialdiff
	</note>
	<outline>
		<contour>
			<point x="214" y="603" type="line"/>
			<point x="207" y="574" type="line"/>
			<point x="236" y="566" type="line" smooth="yes"/>
			<point x="378" y="527"/>
			<point x="455" y="434"/>
			<point x="480" y="292" type="curve"/>
			<point x="444" y="350"/>
			<point x="378" y="391"/>
			<point x="300" y="391" type="curve" smooth="yes"/>
			<point x="194" y="391"/>
			<point x="108" y="300"/>
			<point x="108" y="191" type="curve" smooth="yes"/>
			<point x="108" y="68"/>
			<point x="203" y="-14"/>
			<point x="305" y="-14" type="curve" smooth="yes"/>
			<point x="428" y="-14"/>
			<point x="510" y="84"/>
			<point x="510" y="216" type="curve" smooth="yes"/>
			<point x="510" y="395"/>
			<point x="437" y="543"/>
			<point x="244" y="595" type="curve" smooth="yes"/>
		</contour>
		<contour>
			<point x="480" y="206" type="curve" smooth="yes"/>
			<point x="480" y="110"/>
			<point x="416" y="16"/>
			<point x="305" y="16" type="curve" smooth="yes"/>
			<point x="224" y="16"/>
			<point x="138" y="84"/>
			<point x="138" y="191" type="curve" smooth="yes"/>
			<point x="138" y="288"/>
			<point x="211" y="361"/>
			<point x="300" y="361" type="curve" smooth="yes"/>
			<point x="394" y="361"/>
			<point x="480" y="290"/>
		</contour>
	</outline>
</glyph>
<glyph name="minus" format="2">
	<advance width="600"/>
	<unicode hex="2212"/>
	<note>
		minus
	</note>
	<outline>
		<contour>
			<point x="517" y="230" type="line"/>
			<point x="517" y="200" type="line"/>
			<point x="87" y="200" type="line"/>
			<point x="87" y="230" type="line"/>
		</contour>
	</outline>
</glyph>
<glyph name="radical" format="2">
	<advance width="600"/>
	<unicode hex="221A"/>
	<note>
		radical
	</note>
	<outline>
		<contour>
			<point x="130" y="177" type="line"/>
			<point x="120" y="205" type="line"/>
			<point x="281" y="262" type="line"/>
			<point x="373" y="-131" type="line"/>
			<point x="546" y="603" type="line"/>
			<point x="575" y="596" type="line"/>
			<point x="397" y="-160" type="line"/>
			<point x="348" y="-160" type="line"/>
			<point x="259" y="223" type="line"/>
		</contour>
	</outline>
</glyph>
<glyph name="integral" format="2">
	<advance width="600"/>
	<unicode hex="222B"/>
	<note>
		integral
	</note>
	<outline>
		<contour>
			<point x="290" y="310" type="curve" smooth="yes"/>
			<point x="283" y="169" type="line" smooth="yes"/>
			<point x="272" y="-48"/>
			<point x="253" y="-143"/>
			<point x="197" y="-143" type="curve" smooth="yes"/>
			<point x="144" y="-143"/>
			<point x="122" y="-83"/>
			<point x="125" y="-27" type="curve"/>
			<point x="133" y="-45"/>
			<point x="145" y="-56"/>
			<point x="170" y="-56" type="curve" smooth="yes"/>
			<point x="195" y="-56"/>
			<point x="217" y="-32"/>
			<point x="217" y="-10" type="curve" smooth="yes"/>
			<point x="217" y="23"/>
			<point x="192" y="44"/>
			<point x="159" y="44" type="curve" smooth="yes"/>
			<point x="125" y="44"/>
			<point x="99" y="10"/>
			<point x="99" y="-34" type="curve" smooth="yes"/>
			<point x="99" y="-104"/>
			<point x="128" y="-173"/>
			<point x="196" y="-173" type="curve" smooth="yes"/>
			<point x="278" y="-173"/>
			<point x="301" y="-76"/>
			<point x="313" y="169" type="curve" smooth="yes"/>
			<point x="320" y="310" type="line" smooth="yes"/>
			<point x="329" y="482"/>
			<point x="353" y="573"/>
			<point x="404" y="573" type="curve" smooth="yes"/>
			<point x="457" y="573"/>
			<point x="479" y="513"/>
			<point x="476" y="457" type="curve"/>
			<point x="468" y="475"/>
			<point x="456" y="486"/>
			<point x="431" y="486" type="curve" smooth="yes"/>
			<point x="406" y="486"/>
			<point x="384" y="462"/>
			<point x="384" y="440" type="curve" smooth="yes"/>
			<point x="384" y="407"/>
			<point x="409" y="386"/>
			<point x="442" y="386" type="curve" smooth="yes"/>
			<point x="476" y="386"/>
			<point x="502" y="420"/>
			<point x="502" y="464" type="curve" smooth="yes"/>
			<point x="502" y="534"/>
			<point x="473" y="603"/>
			<point x="405" y="603" type="curve" smooth="yes"/>
			<point x="318" y="603"/>
			<point x="298" y="475"/>
		</contour>
	</outline>
</glyph>
<glyph name="uni2610" format="2">
	<advance width="600"/>
	<unicode hex="2610"/>
	<outline>
		<contour>
			<point x="85" y="0" type="line"/>
			<point x="515" y="0" type="line"/>
			<point x="515" y="430" type="line"/>
			<point x="85" y="430" type="line"/>
		</contour>
		<contour>
			<point x="115" y="30" type="line"/>
			<point x="115" y="400" type="line"/>
			<point x="485" y="400" type="line"/>
			<point x="485" y="30" type="line"/>
		</contour>
	</outline>
</glyph>
<glyph name="fi" format="2">
	<advance width="600"/>
	<unicode hex="FB01"/>
	<note>
		fi
	</note>
	<outline>
		<contour>
			<point x="482" y="470" type="curve"/>
			<point x="472" y="486"/>
			<point x="458" y="488"/>
			<point x="442" y="488" type="curve" smooth="yes"/>
			<point x="420" y="488"/>
			<point x="393" y="464"/>
			<point x="393" y="439" type="curve" smooth="yes"/>
			<point x="393" y="405"/>
			<point x="419" y="389"/>
			<point x="450" y="389" type="curve" smooth="yes"/>
			<point x="484" y="389"/>
			<point x="510" y="420"/>
			<point x="510" y="469" type="curve" smooth="yes"/>
			<point x="510" y="539"/>
			<point x="437" y="603"/>
			<point x="340" y="603" type="curve" smooth="yes"/>
			<point x="235" y="603"/>
			<point x="164" y="542"/>
			<point x="150" y="430" type="curve"/>
			<point x="56" y="430" type="line"/>
			<point x="56" y="400" type="line"/>
			<point x="149" y="400" type="line"/>
			<point x="149" y="30" type="line"/>
			<point x="56" y="30" type="line"/>
			<point x="56" y="0" type="line"/>
			<point x="272" y="0" type="line"/>
			<point x="272" y="30" type="line"/>
			<point x="179" y="30" type="line"/>
			<point x="179" y="400" type="line"/>
			<point x="302" y="400" type="line"/>
			<point x="302" y="430" type="line"/>
			<point x="180" y="430" type="line"/>
			<point x="193" y="522"/>
			<point x="248" y="573"/>
			<point x="339" y="573" type="curve" smooth="yes"/>
			<point x="415" y="573"/>
			<point x="479" y="530"/>
		</contour>
		<contour>
			<point x="466" y="339" type="line"/>
			<point x="436" y="339" type="line"/>
			<point x="436" y="30" type="line"/>
			<point x="363" y="30" type="line"/>
			<point x="363" y="0" type="line"/>
			<point x="539" y="0" type="line"/>
			<point x="539" y="30" type="line"/>
			<point x="466" y="30" type="line"/>
		</contour>
	</outline>
</glyph>
<glyph name="fl" format="2">
	<advance width="600"/>
	<unicode hex="FB02"/>
	<note>
		fl
	</note>
	<outline>
		<contour>
			<point x="545" y="30" type="line"/>
			<point x="461" y="30" type="line"/>
			<point x="461" y="603" type="line"/>
			<point x="332" y="603" type="line" smooth="yes"/>
			<point x="228" y="602"/>
			<point x="158" y="541"/>
			<point x="144" y="430" type="curve"/>
			<point x="50" y="430" type="line"/>
			<point x="50" y="400" type="line"/>
			<point x="143" y="400" type="line"/>
			<point x="143" y="30" type="line"/>
			<point x="50" y="30" type="line"/>
			<point x="50" y="0" type="line"/>
			<point x="266" y="0" type="line"/>
			<point x="266" y="30" type="line"/>
			<point x="173" y="30" type="line"/>
			<point x="173" y="400" type="line"/>
			<point x="296" y="400" type="line"/>
			<point x="296" y="430" type="line"/>
			<point x="174" y="430" type="line"/>
			<point x="187" y="522"/>
			<point x="242" y="573"/>
			<point x="333" y="573" type="curve" smooth="yes"/>
			<point x="431" y="573" type="line"/>
			<point x="431" y="30" type="line"/>
			<point x="343" y="30" type="line"/>
			<point x="343" y="0" type="line"/>
			<point x="545" y="0" type="line"/>
		</contour>
	</outline>
</glyph>
<glyph name="AE.duo" format="2">
	<advance width="900"/>
	<note>
		AE.duo
	</note>
	<outline>
		<contour>
			<point x="826" y="217" type="line"/>
			<point x="796" y="220" type="line"/>
			<point x="778" y="30" type="line"/>
			<point x="461" y="30" type="line"/>
			<point x="461" y="277" type="line"/>
			<point x="639" y="277" type="line"/>
			<point x="639" y="162" type="line"/>
			<point x="669" y="162" type="line"/>
			<point x="669" y="427" type="line"/>
			<point x="639" y="427" type="line"/>
			<point x="639" y="307" type="line"/>
			<point x="461" y="307" type="line"/>
			<point x="461" y="560" type="line"/>
			<point x="778" y="560" type="line"/>
			<point x="794" y="370" type="line"/>
			<point x="824" y="373" type="line"/>
			<point x="805" y="590" type="line"/>
			<point x="349" y="590" type="line" smooth="yes"/>
			<point x="298" y="590"/>
			<point x="257" y="592"/>
			<point x="207" y="603" type="curve"/>
			<point x="200" y="575" type="line"/>
			<point x="232" y="568"/>
			<point x="264" y="565"/>
			<point x="299" y="562" type="curve"/>
			<point x="118" y="30" type="line"/>
			<point x="51" y="30" type="line"/>
			<point x="51" y="0" type="line"/>
			<point x="239" y="0" type="line"/>
			<point x="239" y="30" type="line"/>
			<point x="150" y="30" type="line"/>
			<point x="234" y="277" type="line"/>
			<point x="431" y="277" type="line"/>
			<point x="431" y="30" type="line"/>
			<point x="337" y="30" type="line"/>
			<point x="337" y="0" type="line"/>
			<point x="805" y="0" type="line"/>
		</contour>
		<contour>
			<point x="431" y="307" type="line"/>
			<point x="244" y="307" type="line"/>
			<point x="330" y="560" type="line"/>
			<point x="431" y="560" type="line"/>
		</contour>
	</outline>
</glyph>
<glyph name="Homme" format="2">
	<advance width="600"/>
	<note>
		Homme
	</note>
	<outline>
		<contour>
			<point x="589" y="562" type="curve"/>
			<point x="575" y="576" type="line"/>
			<point x="488" y="545"/>
			<point x="395" y="531"/>
			<point x="311" y="555" type="curve"/>
			<point x="308" y="528" type="line"/>
			<point x="380" y="506"/>
			<point x="478" y="514"/>
			<point x="529" y="537" type="curve"/>
			<point x="409" y="416" type="line"/>
			<point x="377" y="433"/>
			<point x="340" y="443"/>
			<point x="301" y="443" type="curve" smooth="yes"/>
			<point x="174" y="443"/>
			<point x="72" y="342"/>
			<point x="72" y="216" type="curve" smooth="yes"/>
			<point x="72" y="88"/>
			<point x="174" y="-13"/>
			<point x="301" y="-13" type="curve" smooth="yes"/>
			<point x="427" y="-13"/>
			<point x="529" y="88"/>
			<point x="529" y="216" type="curve" smooth="yes"/>
			<point x="529" y="292"/>
			<point x="492" y="359"/>
			<point x="435" y="400" type="curve"/>
			<point x="550" y="516" type="line"/>
			<point x="527" y="464"/>
			<point x="520" y="366"/>
			<point x="541" y="294" type="curve"/>
			<point x="569" y="298" type="line"/>
			<point x="545" y="381"/>
			<point x="559" y="475"/>
		</contour>
		<contour>
			<point x="499" y="216" type="curve" smooth="yes"/>
			<point x="499" y="105"/>
			<point x="410" y="17"/>
			<point x="301" y="17" type="curve" smooth="yes"/>
			<point x="191" y="17"/>
			<point x="102" y="105"/>
			<point x="102" y="216" type="curve" smooth="yes"/>
			<point x="102" y="325"/>
			<point x="191" y="413"/>
			<point x="301" y="413" type="curve" smooth="yes"/>
			<point x="410" y="413"/>
			<point x="499" y="325"/>
		</contour>
	</outline>
</glyph>
<glyph name="I.duo" format="2">
	<advance width="300"/>
	<note>
		I.duo
	</note>
	<outline>
		<contour>
			<point x="255" y="560" type="line"/>
			<point x="165" y="560" type="line"/>
			<point x="165" y="30" type="line"/>
			<point x="255" y="30" type="line"/>
			<point x="255" y="0" type="line"/>
			<point x="44" y="0" type="line"/>
			<point x="44" y="30" type="line"/>
			<point x="134" y="30" type="line"/>
			<point x="134" y="560" type="line"/>
			<point x="44" y="560" type="line"/>
			<point x="44" y="590" type="line"/>
			<point x="255" y="590" type="line"/>
		</contour>
	</outline>
</glyph>
<glyph name="LeftRightArrow" format="2">
	<advance width="600"/>
	<note>
		LeftRightArrow
	</note>
	<outline>
		<contour>
			<point x="395" y="396" type="curve"/>
			<point x="373" y="379" type="line"/>
			<point x="409" y="313"/>
			<point x="483" y="249"/>
			<point x="536" y="229" type="curve"/>
			<point x="64" y="229" type="line"/>
			<point x="117" y="249"/>
			<point x="191" y="313"/>
			<point x="227" y="379" type="curve"/>
			<point x="205" y="396" type="line"/>
			<point x="163" y="320"/>
			<point x="87" y="264"/>
			<point x="4" y="224" type="curve"/>
			<point x="4" y="204" type="line"/>
			<point x="87" y="164"/>
			<point x="163" y="108"/>
			<point x="205" y="32" type="curve"/>
			<point x="227" y="49" type="line"/>
			<point x="192" y="114"/>
			<point x="119" y="177"/>
			<point x="66" y="198" type="curve"/>
			<point x="534" y="198" type="line"/>
			<point x="481" y="177"/>
			<point x="408" y="114"/>
			<point x="373" y="49" type="curve"/>
			<point x="395" y="32" type="line"/>
			<point x="437" y="108"/>
			<point x="513" y="164"/>
			<point x="596" y="204" type="curve"/>
			<point x="596" y="224" type="line"/>
			<point x="513" y="264"/>
			<point x="437" y="320"/>
		</contour>
	</outline>
</glyph>
<glyph name="M.Mme" format="2">
	<advance width="600"/>
	<note>
		M.Mme
	</note>
	<outline>
		<contour>
			<point x="590" y="85" type="curve"/>
			<point x="566" y="102" type="line"/>
			<point x="532" y="54"/>
			<point x="504" y="16"/>
			<point x="482" y="16" type="curve" smooth="yes"/>
			<point x="464" y="16"/>
			<point x="460" y="35"/>
			<point x="466" y="70" type="curve" smooth="yes"/>
			<point x="557" y="590" type="line"/>
			<point x="527" y="590" type="line"/>
			<point x="327" y="124" type="line"/>
			<point x="410" y="590" type="line"/>
			<point x="380" y="590" type="line"/>
			<point x="258" y="284" type="line" smooth="yes"/>
			<point x="178" y="82"/>
			<point x="151" y="17"/>
			<point x="96" y="17" type="curve" smooth="yes"/>
			<point x="43" y="17"/>
			<point x="22" y="72"/>
			<point x="44" y="123" type="curve"/>
			<point x="47" y="92"/>
			<point x="67" y="78"/>
			<point x="88" y="77" type="curve" smooth="yes"/>
			<point x="110" y="76"/>
			<point x="140" y="94"/>
			<point x="141" y="126" type="curve" smooth="yes"/>
			<point x="142" y="156"/>
			<point x="111" y="181"/>
			<point x="86" y="181" type="curve" smooth="yes"/>
			<point x="41" y="181"/>
			<point x="9" y="132"/>
			<point x="9" y="84" type="curve" smooth="yes"/>
			<point x="9" y="32"/>
			<point x="40" y="-13"/>
			<point x="93" y="-13" type="curve" smooth="yes"/>
			<point x="171" y="-13"/>
			<point x="191" y="40"/>
			<point x="284" y="273" type="curve" smooth="yes"/>
			<point x="355" y="452" type="line"/>
			<point x="274" y="0" type="line"/>
			<point x="305" y="0" type="line"/>
			<point x="506" y="471" type="line"/>
			<point x="437" y="75" type="line"/>
			<point x="424" y="15"/>
			<point x="449" y="-13"/>
			<point x="477" y="-13" type="curve" smooth="yes"/>
			<point x="526" y="-13"/>
			<point x="549" y="29"/>
		</contour>
	</outline>
</glyph>
<glyph name="OE.duo" format="2">
	<advance width="900"/>
	<note>
		OE.duo
	</note>
	<outline>
		<contour>
			<point x="889" y="204" type="line"/>
			<point x="859" y="207" type="line"/>
			<point x="841" y="17" type="line"/>
			<point x="544" y="17" type="line"/>
			<point x="544" y="277" type="line"/>
			<point x="702" y="277" type="line"/>
			<point x="702" y="162" type="line"/>
			<point x="732" y="162" type="line"/>
			<point x="732" y="427" type="line"/>
			<point x="702" y="427" type="line"/>
			<point x="702" y="307" type="line"/>
			<point x="544" y="307" type="line"/>
			<point x="544" y="573" type="line"/>
			<point x="841" y="573" type="line"/>
			<point x="857" y="383" type="line"/>
			<point x="887" y="386" type="line"/>
			<point x="868" y="603" type="line"/>
			<point x="514" y="603" type="line"/>
			<point x="514" y="442" type="line"/>
			<point x="473" y="536"/>
			<point x="390" y="603"/>
			<point x="277" y="603" type="curve" smooth="yes"/>
			<point x="111" y="603"/>
			<point x="8" y="458"/>
			<point x="10" y="296" type="curve" smooth="yes"/>
			<point x="12" y="120"/>
			<point x="119" y="-13"/>
			<point x="277" y="-13" type="curve" smooth="yes"/>
			<point x="386" y="-13"/>
			<point x="471" y="50"/>
			<point x="514" y="147" type="curve"/>
			<point x="514" y="-13" type="line"/>
			<point x="868" y="-13" type="line"/>
		</contour>
		<contour>
			<point x="277" y="17" type="curve" smooth="yes"/>
			<point x="142" y="16"/>
			<point x="38" y="128"/>
			<point x="40" y="296" type="curve" smooth="yes"/>
			<point x="42" y="463"/>
			<point x="143" y="572"/>
			<point x="277" y="573" type="curve" smooth="yes"/>
			<point x="411" y="574"/>
			<point x="512" y="463"/>
			<point x="514" y="296" type="curve" smooth="yes"/>
			<point x="514" y="287" type="line" smooth="yes"/>
			<point x="512" y="124"/>
			<point x="409" y="18"/>
		</contour>
	</outline>
</glyph>
<glyph name="W.duo" format="2">
	<advance width="900"/>
	<note>
		W.duo
	</note>
	<outline>
		<contour>
			<point x="889" y="590" type="line"/>
			<point x="702" y="590" type="line"/>
			<point x="702" y="558" type="line"/>
			<point x="779" y="558" type="line"/>
			<point x="646" y="30" type="line"/>
			<point x="627" y="30" type="line"/>
			<point x="490" y="590" type="line"/>
			<point x="415" y="590" type="line"/>
			<point x="278" y="30" type="line"/>
			<point x="259" y="30" type="line"/>
			<point x="127" y="558" type="line"/>
			<point x="203" y="558" type="line"/>
			<point x="203" y="590" type="line"/>
			<point x="17" y="590" type="line"/>
			<point x="17" y="558" type="line"/>
			<point x="95" y="558" type="line"/>
			<point x="232" y="0" type="line"/>
			<point x="301" y="0" type="line"/>
			<point x="444" y="559" type="line"/>
			<point x="460" y="559" type="line"/>
			<point x="603" y="0" type="line"/>
			<point x="674" y="0" type="line"/>
			<point x="810" y="558" type="line"/>
			<point x="889" y="558" type="line"/>
		</contour>
	</outline>
</glyph>
<glyph name="asterisk.duo" format="2">
	<advance width="300"/>
	<note>
		asterisk.duo
	</note>
	<outline>
		<contour>
			<point x="135" y="474" type="curve" smooth="yes"/>
			<point x="141" y="477"/>
			<point x="129" y="546"/>
			<point x="119" y="562" type="curve" smooth="yes"/>
			<point x="109" y="578"/>
			<point x="92" y="585"/>
			<point x="76" y="575" type="curve" smooth="yes"/>
			<point x="60" y="565"/>
			<point x="57" y="547"/>
			<point x="66" y="531" type="curve" smooth="yes"/>
			<point x="75" y="515"/>
			<point x="129" y="471"/>
		</contour>
		<contour>
			<point x="164" y="474" type="curve" smooth="yes"/>
			<point x="170" y="471"/>
			<point x="224" y="515"/>
			<point x="233" y="531" type="curve" smooth="yes"/>
			<point x="242" y="547"/>
			<point x="239" y="565"/>
			<point x="223" y="575" type="curve" smooth="yes"/>
			<point x="207" y="585"/>
			<point x="190" y="578"/>
			<point x="180" y="562" type="curve" smooth="yes"/>
			<point x="170" y="546"/>
			<point x="158" y="477"/>
		</contour>
		<contour>
			<point x="177" y="450" type="curve" smooth="yes"/>
			<point x="178" y="444"/>
			<point x="243" y="420"/>
			<point x="261" y="421" type="curve" smooth="yes"/>
			<point x="279" y="422"/>
			<point x="293" y="433"/>
			<point x="294" y="452" type="curve" smooth="yes"/>
			<point x="295" y="471"/>
			<point x="279" y="482"/>
			<point x="260" y="482" type="curve" smooth="yes"/>
			<point x="241" y="482"/>
			<point x="176" y="457"/>
		</contour>
		<contour>
			<point x="122" y="452" type="curve" smooth="yes"/>
			<point x="122" y="459"/>
			<point x="56" y="482"/>
			<point x="38" y="481" type="curve" smooth="yes"/>
			<point x="20" y="480"/>
			<point x="6" y="469"/>
			<point x="5" y="450" type="curve" smooth="yes"/>
			<point x="4" y="431"/>
			<point x="20" y="420"/>
			<point x="39" y="420" type="curve" smooth="yes"/>
			<point x="58" y="420"/>
			<point x="122" y="446"/>
		</contour>
		<contour>
			<point x="134" y="428" type="curve" smooth="yes"/>
			<point x="128" y="431"/>
			<point x="75" y="387"/>
			<point x="66" y="371" type="curve" smooth="yes"/>
			<point x="57" y="355"/>
			<point x="60" y="337"/>
			<point x="76" y="327" type="curve" smooth="yes"/>
			<point x="92" y="317"/>
			<point x="109" y="324"/>
			<point x="119" y="340" type="curve" smooth="yes"/>
			<point x="129" y="356"/>
			<point x="140" y="425"/>
		</contour>
		<contour>
			<point x="165" y="428" type="curve" smooth="yes"/>
			<point x="159" y="425"/>
			<point x="170" y="356"/>
			<point x="180" y="340" type="curve" smooth="yes"/>
			<point x="190" y="324"/>
			<point x="207" y="317"/>
			<point x="223" y="327" type="curve" smooth="yes"/>
			<point x="239" y="337"/>
			<point x="242" y="355"/>
			<point x="233" y="371" type="curve" smooth="yes"/>
			<point x="224" y="387"/>
			<point x="171" y="431"/>
		</contour>
	</outline>
</glyph>
<glyph name="braceright.duo" format="2">
	<advance width="300"/>
	<note>
		braceright.duo
	</note>
	<outline>
		<contour>
			<point x="283" y="198" type="curve"/>
			<point x="283" y="228" type="line"/>
			<point x="229" y="249"/>
			<point x="219" y="279"/>
			<point x="229" y="333" type="curve" smooth="yes"/>
			<point x="243" y="409" type="line" smooth="yes"/>
			<point x="264" y="522"/>
			<point x="200" y="601"/>
			<point x="128" y="601" type="curve" smooth="yes"/>
			<point x="61" y="601"/>
			<point x="23" y="554"/>
			<point x="23" y="489" type="curve" smooth="yes"/>
			<point x="23" y="459"/>
			<point x="43" y="433"/>
			<point x="71" y="433" type="curve" smooth="yes"/>
			<point x="97" y="433"/>
			<point x="119" y="449"/>
			<point x="119" y="477" type="curve" smooth="yes"/>
			<point x="119" y="499"/>
			<point x="101" y="520"/>
			<point x="79" y="520" type="curve" smooth="yes"/>
			<point x="70" y="520"/>
			<point x="59" y="517"/>
			<point x="52" y="509" type="curve"/>
			<point x="59" y="549"/>
			<point x="87" y="571"/>
			<point x="127" y="571" type="curve" smooth="yes"/>
			<point x="182" y="571"/>
			<point x="228" y="505"/>
			<point x="213" y="413" type="curve" smooth="yes"/>
			<point x="200" y="335" type="line" smooth="yes"/>
			<point x="189" y="268"/>
			<point x="202" y="230"/>
			<point x="247" y="213" type="curve"/>
			<point x="202" y="198"/>
			<point x="189" y="158"/>
			<point x="200" y="91" type="curve" smooth="yes"/>
			<point x="213" y="13" type="line" smooth="yes"/>
			<point x="229" y="-81"/>
			<point x="182" y="-147"/>
			<point x="127" y="-147" type="curve" smooth="yes"/>
			<point x="87" y="-147"/>
			<point x="59" y="-125"/>
			<point x="52" y="-85" type="curve"/>
			<point x="59" y="-93"/>
			<point x="70" y="-96"/>
			<point x="79" y="-96" type="curve" smooth="yes"/>
			<point x="101" y="-96"/>
			<point x="119" y="-75"/>
			<point x="119" y="-53" type="curve" smooth="yes"/>
			<point x="119" y="-25"/>
			<point x="97" y="-9"/>
			<point x="71" y="-9" type="curve" smooth="yes"/>
			<point x="43" y="-9"/>
			<point x="23" y="-35"/>
			<point x="23" y="-65" type="curve" smooth="yes"/>
			<point x="23" y="-130"/>
			<point x="61" y="-177"/>
			<point x="128" y="-177" type="curve" smooth="yes"/>
			<point x="200" y="-177"/>
			<point x="264" y="-98"/>
			<point x="243" y="17" type="curve" smooth="yes"/>
			<point x="229" y="93" type="line" smooth="yes"/>
			<point x="219" y="147"/>
			<point x="229" y="177"/>
		</contour>
	</outline>
</glyph>
<glyph name="dotlessi.duo" format="2">
	<advance width="300"/>
	<note>
		dotlessi.duo
	</note>
	<outline>
		<contour>
			<point x="168" y="430" type="line"/>
			<point x="135" y="430" type="line"/>
			<point x="135" y="33" type="line"/>
			<point x="40" y="33" type="line"/>
			<point x="40" y="0" type="line"/>
			<point x="263" y="0" type="line"/>
			<point x="263" y="33" type="line"/>
			<point x="168" y="33" type="line"/>
		</contour>
	</outline>
</glyph>
<glyph name="eight.numr" format="2">
	<advance width="600"/>
	<note>
		eight.numr
	</note>
	<outline>
		<contour>
			<point x="128" y="273" type="curve" smooth="yes"/>
			<point x="185" y="273"/>
			<point x="217" y="237"/>
			<point x="217" y="202" type="curve" smooth="yes"/>
			<point x="217" y="161"/>
			<point x="186" y="143"/>
			<point x="169" y="142" type="curve"/>
			<point x="190" y="142"/>
			<point x="231" y="112"/>
			<point x="231" y="71" type="curve" smooth="yes"/>
			<point x="231" y="17"/>
			<point x="185" y="-13"/>
			<point x="128" y="-13" type="curve" smooth="yes"/>
			<point x="71" y="-13"/>
			<point x="25" y="17"/>
			<point x="25" y="71" type="curve" smooth="yes"/>
			<point x="25" y="112"/>
			<point x="66" y="142"/>
			<point x="87" y="142" type="curve"/>
			<point x="70" y="143"/>
			<point x="39" y="161"/>
			<point x="39" y="202" type="curve" smooth="yes"/>
			<point x="39" y="237"/>
			<point x="71" y="273"/>
		</contour>
		<contour>
			<point x="128" y="153" type="curve" smooth="yes"/>
			<point x="170" y="153"/>
			<point x="193" y="174"/>
			<point x="193" y="202" type="curve" smooth="yes"/>
			<point x="193" y="229"/>
			<point x="166" y="249"/>
			<point x="128" y="249" type="curve" smooth="yes"/>
			<point x="90" y="249"/>
			<point x="63" y="229"/>
			<point x="63" y="202" type="curve" smooth="yes"/>
			<point x="63" y="174"/>
			<point x="86" y="153"/>
		</contour>
		<contour>
			<point x="128" y="11" type="curve" smooth="yes"/>
			<point x="176" y="11"/>
			<point x="207" y="32"/>
			<point x="207" y="71" type="curve" smooth="yes"/>
			<point x="207" y="106"/>
			<point x="171" y="132"/>
			<point x="128" y="132" type="curve" smooth="yes"/>
			<point x="85" y="132"/>
			<point x="49" y="106"/>
			<point x="49" y="71" type="curve" smooth="yes"/>
			<point x="49" y="32"/>
			<point x="80" y="11"/>
		</contour>
	</outline>
</glyph>
<glyph name="eight.osf" format="2">
	<advance width="600"/>
	<note>
		eight.osf
	</note>
	<outline>
		<contour>
			<point x="300" y="603" type="curve" smooth="yes"/>
			<point x="198" y="603"/>
			<point x="110" y="549"/>
			<point x="110" y="459" type="curve" smooth="yes"/>
			<point x="110" y="396"/>
			<point x="153" y="351"/>
			<point x="209" y="331" type="curve"/>
			<point x="153" y="320"/>
			<point x="78" y="256"/>
			<point x="78" y="168" type="curve" smooth="yes"/>
			<point x="78" y="61"/>
			<point x="187" y="-14"/>
			<point x="300" y="-14" type="curve" smooth="yes"/>
			<point x="413" y="-14"/>
			<point x="522" y="61"/>
			<point x="522" y="168" type="curve" smooth="yes"/>
			<point x="522" y="256"/>
			<point x="447" y="320"/>
			<point x="391" y="331" type="curve"/>
			<point x="447" y="351"/>
			<point x="490" y="396"/>
			<point x="490" y="459" type="curve" smooth="yes"/>
			<point x="490" y="549"/>
			<point x="402" y="603"/>
		</contour>
		<contour>
			<point x="300" y="342" type="curve" smooth="yes"/>
			<point x="220" y="342"/>
			<point x="140" y="389"/>
			<point x="140" y="459" type="curve" smooth="yes"/>
			<point x="140" y="529"/>
			<point x="213" y="573"/>
			<point x="300" y="573" type="curve" smooth="yes"/>
			<point x="387" y="573"/>
			<point x="460" y="529"/>
			<point x="460" y="459" type="curve" smooth="yes"/>
			<point x="460" y="389"/>
			<point x="380" y="342"/>
		</contour>
		<contour>
			<point x="300" y="16" type="curve" smooth="yes"/>
			<point x="203" y="16"/>
			<point x="108" y="78"/>
			<point x="108" y="168" type="curve" smooth="yes"/>
			<point x="108" y="256"/>
			<point x="196" y="320"/>
			<point x="300" y="320" type="curve" smooth="yes"/>
			<point x="404" y="320"/>
			<point x="492" y="256"/>
			<point x="492" y="168" type="curve" smooth="yes"/>
			<point x="492" y="78"/>
			<point x="397" y="16"/>
		</contour>
	</outline>
</glyph>
<glyph name="ellipsis.duo" format="2">
	<advance width="900"/>
	<note>
		ellipsis.duo
	</note>
	<outline>
		<contour>
			<point x="188" y="-13" type="curve" smooth="yes"/>
			<point x="224" y="-13"/>
			<point x="253" y="17"/>
			<point x="253" y="53" type="curve" smooth="yes"/>
			<point x="253" y="89"/>
			<point x="224" y="120"/>
			<point x="188" y="120" type="curve" smooth="yes"/>
			<point x="151" y="120"/>
			<point x="120" y="89"/>
			<point x="120" y="53" type="curve" smooth="yes"/>
			<point x="120" y="18"/>
			<point x="151" y="-13"/>
		</contour>
		<contour>
			<point x="452" y="-13" type="curve" smooth="yes"/>
			<point x="488" y="-13"/>
			<point x="517" y="17"/>
			<point x="517" y="53" type="curve" smooth="yes"/>
			<point x="517" y="89"/>
			<point x="488" y="120"/>
			<point x="452" y="120" type="curve" smooth="yes"/>
			<point x="415" y="120"/>
			<point x="384" y="89"/>
			<point x="384" y="53" type="curve" smooth="yes"/>
			<point x="384" y="18"/>
			<point x="415" y="-13"/>
		</contour>
		<contour>
			<point x="715" y="-13" type="curve" smooth="yes"/>
			<point x="751" y="-13"/>
			<point x="780" y="17"/>
			<point x="780" y="53" type="curve" smooth="yes"/>
			<point x="780" y="89"/>
			<point x="751" y="120"/>
			<point x="715" y="120" type="curve" smooth="yes"/>
			<point x="678" y="120"/>
			<point x="647" y="89"/>
			<point x="647" y="53" type="curve" smooth="yes"/>
			<point x="647" y="18"/>
			<point x="678" y="-13"/>
		</contour>
	</outline>
</glyph>
<glyph name="exclam.duo" format="2">
	<advance width="300"/>
	<note>
		exclam.duo
	</note>
	<outline>
		<contour>
			<point x="140" y="139" type="line"/>
			<point x="154" y="139" type="line"/>
			<point x="174" y="552" type="line" smooth="yes"/>
			<point x="175" y="580"/>
			<point x="170" y="603"/>
			<point x="148" y="603" type="curve" smooth="yes"/>
			<point x="125" y="603"/>
			<point x="120" y="580"/>
			<point x="120" y="552" type="curve"/>
		</contour>
		<contour>
			<point x="148" y="-13" type="curve" smooth="yes"/>
			<point x="176" y="-13"/>
			<point x="199" y="11"/>
			<point x="199" y="38" type="curve" smooth="yes"/>
			<point x="199" y="65"/>
			<point x="176" y="89"/>
			<point x="148" y="89" type="curve" smooth="yes"/>
			<point x="120" y="89"/>
			<point x="96" y="65"/>
			<point x="96" y="38" type="curve" smooth="yes"/>
			<point x="96" y="11"/>
			<point x="120" y="-13"/>
		</contour>
	</outline>
</glyph>
<glyph name="exclamdown.duo" format="2">
	<advance width="300"/>
	<note>
		exclamdown.duo
	</note>
	<outline>
		<contour>
			<point x="148" y="590" type="curve" smooth="yes"/>
			<point x="120" y="590"/>
			<point x="96" y="566"/>
			<point x="96" y="539" type="curve" smooth="yes"/>
			<point x="96" y="512"/>
			<point x="120" y="488"/>
			<point x="148" y="488" type="curve" smooth="yes"/>
			<point x="176" y="488"/>
			<point x="199" y="512"/>
			<point x="199" y="539" type="curve" smooth="yes"/>
			<point x="199" y="566"/>
			<point x="176" y="590"/>
		</contour>
		<contour>
			<point x="174" y="38" type="curve" smooth="yes"/>
			<point x="154" y="438" type="line"/>
			<point x="140" y="438" type="line"/>
			<point x="120" y="38" type="line"/>
			<point x="120" y="10"/>
			<point x="125" y="-13"/>
			<point x="148" y="-13" type="curve" smooth="yes"/>
			<point x="170" y="-13"/>
			<point x="175" y="10"/>
		</contour>
	</outline>
</glyph>
<glyph name="f12" format="2">
	<advance width="600"/>
	<note>
		f12
	</note>
	<outline>
		<contour>
			<point x="459" y="542" type="line"/>
			<point x="477" y="529" type="line"/>
			<point x="126" y="39" type="line"/>
			<point x="110" y="52" type="line"/>
		</contour>
	</outline>
</glyph>
<glyph name="fb.duo" format="2">
	<advance width="900"/>
	<note>
		fb.duo
	</note>
	<outline>
		<contour>
			<point x="658" y="443" type="curve" smooth="yes"/>
			<point x="590" y="443"/>
			<point x="519" y="390"/>
			<point x="469" y="320" type="curve"/>
			<point x="470" y="603" type="line"/>
			<point x="341" y="603" type="line" smooth="yes"/>
			<point x="238" y="602"/>
			<point x="168" y="541"/>
			<point x="154" y="430" type="curve"/>
			<point x="60" y="430" type="line"/>
			<point x="60" y="400" type="line"/>
			<point x="153" y="400" type="line"/>
			<point x="153" y="30" type="line"/>
			<point x="60" y="30" type="line"/>
			<point x="60" y="0" type="line"/>
			<point x="276" y="0" type="line"/>
			<point x="276" y="30" type="line"/>
			<point x="183" y="30" type="line"/>
			<point x="183" y="400" type="line"/>
			<point x="306" y="400" type="line"/>
			<point x="306" y="430" type="line"/>
			<point x="184" y="430" type="line"/>
			<point x="197" y="522"/>
			<point x="252" y="573"/>
			<point x="343" y="573" type="curve" smooth="yes"/>
			<point x="440" y="573" type="line"/>
			<point x="440" y="0" type="line"/>
			<point x="470" y="0" type="line"/>
			<point x="469" y="109" type="line"/>
			<point x="520" y="44"/>
			<point x="590" y="-13"/>
			<point x="658" y="-13" type="curve" smooth="yes"/>
			<point x="778" y="-13"/>
			<point x="864" y="90"/>
			<point x="864" y="215" type="curve" smooth="yes"/>
			<point x="864" y="346"/>
			<point x="778" y="443"/>
		</contour>
		<contour>
			<point x="658" y="17" type="curve" smooth="yes"/>
			<point x="590" y="17"/>
			<point x="534" y="78"/>
			<point x="470" y="152" type="curve"/>
			<point x="470" y="278" type="line"/>
			<point x="536" y="356"/>
			<point x="590" y="413"/>
			<point x="658" y="413" type="curve" smooth="yes"/>
			<point x="760" y="413"/>
			<point x="834" y="329"/>
			<point x="834" y="215" type="curve" smooth="yes"/>
			<point x="834" y="104"/>
			<point x="760" y="17"/>
		</contour>
	</outline>
</glyph>
<glyph name="fh.duo" format="2">
	<advance width="900"/>
	<note>
		fh.duo
	</note>
	<outline>
		<contour>
			<point x="876" y="30" type="line"/>
			<point x="789" y="30" type="line"/>
			<point x="789" y="310" type="line" smooth="yes"/>
			<point x="789" y="394"/>
			<point x="741" y="443"/>
			<point x="663" y="443" type="curve" smooth="yes"/>
			<point x="596" y="443"/>
			<point x="554" y="386"/>
			<point x="471" y="303" type="curve"/>
			<point x="471" y="603" type="line"/>
			<point x="342" y="603" type="line" smooth="yes"/>
			<point x="238" y="602"/>
			<point x="168" y="541"/>
			<point x="154" y="430" type="curve"/>
			<point x="60" y="430" type="line"/>
			<point x="60" y="400" type="line"/>
			<point x="153" y="400" type="line"/>
			<point x="153" y="30" type="line"/>
			<point x="60" y="30" type="line"/>
			<point x="60" y="0" type="line"/>
			<point x="276" y="0" type="line"/>
			<point x="276" y="30" type="line"/>
			<point x="183" y="30" type="line"/>
			<point x="183" y="400" type="line"/>
			<point x="306" y="400" type="line"/>
			<point x="306" y="430" type="line"/>
			<point x="184" y="430" type="line"/>
			<point x="197" y="522"/>
			<point x="252" y="573"/>
			<point x="343" y="573" type="curve" smooth="yes"/>
			<point x="441" y="573" type="line"/>
			<point x="441" y="30" type="line"/>
			<point x="353" y="30" type="line"/>
			<point x="353" y="0" type="line"/>
			<point x="555" y="0" type="line"/>
			<point x="555" y="30" type="line"/>
			<point x="471" y="30" type="line"/>
			<point x="471" y="261" type="line"/>
			<point x="579" y="369"/>
			<point x="609" y="413"/>
			<point x="663" y="413" type="curve" smooth="yes"/>
			<point x="722" y="413"/>
			<point x="759" y="377"/>
			<point x="759" y="310" type="curve" smooth="yes"/>
			<point x="759" y="30" type="line"/>
			<point x="675" y="30" type="line"/>
			<point x="675" y="0" type="line"/>
			<point x="876" y="0" type="line"/>
		</contour>
	</outline>
</glyph>
<glyph name="five.numr" format="2">
	<advance width="600"/>
	<note>
		five.numr
	</note>
	<outline>
		<contour>
			<point x="46" y="60" type="curve"/>
			<point x="52" y="30"/>
			<point x="85" y="11"/>
			<point x="134" y="11" type="curve" smooth="yes"/>
			<point x="172" y="11"/>
			<point x="214" y="40"/>
			<point x="214" y="83" type="curve" smooth="yes"/>
			<point x="214" y="135"/>
			<point x="172" y="158"/>
			<point x="134" y="158" type="curve" smooth="yes"/>
			<point x="107" y="158"/>
			<point x="80" y="142"/>
			<point x="62" y="125" type="curve"/>
			<point x="35" y="139" type="line"/>
			<point x="46" y="261" type="line"/>
			<point x="219" y="261" type="line"/>
			<point x="219" y="237" type="line"/>
			<point x="68" y="237" type="line"/>
			<point x="61" y="154" type="line"/>
			<point x="72" y="165"/>
			<point x="99" y="182"/>
			<point x="134" y="182" type="curve" smooth="yes"/>
			<point x="191" y="182"/>
			<point x="238" y="143"/>
			<point x="238" y="83" type="curve" smooth="yes"/>
			<point x="238" y="21"/>
			<point x="184" y="-13"/>
			<point x="134" y="-13" type="curve" smooth="yes"/>
			<point x="76" y="-13"/>
			<point x="25" y="17"/>
			<point x="25" y="61" type="curve" smooth="yes"/>
			<point x="25" y="82"/>
			<point x="38" y="98"/>
			<point x="60" y="98" type="curve" smooth="yes"/>
			<point x="79" y="98"/>
			<point x="91" y="87"/>
			<point x="91" y="70" type="curve" smooth="yes"/>
			<point x="91" y="53"/>
			<point x="80" y="45"/>
			<point x="67" y="45" type="curve" smooth="yes"/>
			<point x="57" y="45"/>
			<point x="48" y="50"/>
		</contour>
	</outline>
</glyph>
<glyph name="five.osf" format="2">
	<advance width="600"/>
	<note>
		five.osf
	</note>
	<outline>
		<contour>
			<point x="332" y="261" type="curve" smooth="yes"/>
			<point x="409" y="261"/>
			<point x="491" y="221"/>
			<point x="491" y="112" type="curve" smooth="yes"/>
			<point x="491" y="-36"/>
			<point x="239" y="-142"/>
			<point x="75" y="-142" type="curve"/>
			<point x="75" y="-173" type="line"/>
			<point x="264" y="-169"/>
			<point x="521" y="-63"/>
			<point x="521" y="111" type="curve" smooth="yes"/>
			<point x="521" y="237"/>
			<point x="432" y="291"/>
			<point x="332" y="291" type="curve" smooth="yes"/>
			<point x="253" y="291"/>
			<point x="177" y="248"/>
			<point x="147" y="224" type="curve"/>
			<point x="182" y="463" type="line"/>
			<point x="496" y="463" type="line"/>
			<point x="496" y="493" type="line"/>
			<point x="156" y="493" type="line"/>
			<point x="114" y="208" type="line"/>
			<point x="149" y="188" type="line"/>
			<point x="185" y="215"/>
			<point x="255" y="261"/>
		</contour>
	</outline>
</glyph>
<glyph name="four.dnom" format="2">
	<advance width="600"/>
	<note>
		four.dnom
	</note>
	<outline>
		<contour>
			<point x="25" y="368" type="line"/>
			<point x="192" y="368" type="line"/>
			<point x="192" y="321" type="line"/>
			<point x="216" y="321" type="line"/>
			<point x="216" y="368" type="line"/>
			<point x="290" y="368" type="line"/>
			<point x="290" y="392" type="line"/>
			<point x="216" y="392" type="line"/>
			<point x="216" y="520" type="line"/>
			<point x="192" y="520" type="line"/>
			<point x="192" y="392" type="line"/>
			<point x="53" y="392" type="line"/>
			<point x="116" y="476"/>
			<point x="145" y="528"/>
			<point x="166" y="596" type="curve"/>
			<point x="144" y="603" type="line"/>
			<point x="122" y="530"/>
			<point x="80" y="464"/>
			<point x="25" y="395" type="curve"/>
		</contour>
	</outline>
</glyph>
<glyph name="four.numr" format="2">
	<advance width="600"/>
	<note>
		four.numr
	</note>
	<outline>
		<contour>
			<point x="25" y="33" type="line"/>
			<point x="192" y="33" type="line"/>
			<point x="192" y="-14" type="line"/>
			<point x="216" y="-14" type="line"/>
			<point x="216" y="33" type="line"/>
			<point x="290" y="33" type="line"/>
			<point x="290" y="57" type="line"/>
			<point x="216" y="57" type="line"/>
			<point x="216" y="185" type="line"/>
			<point x="192" y="185" type="line"/>
			<point x="192" y="57" type="line"/>
			<point x="53" y="57" type="line"/>
			<point x="116" y="141"/>
			<point x="145" y="193"/>
			<point x="166" y="261" type="curve"/>
			<point x="144" y="268" type="line"/>
			<point x="122" y="195"/>
			<point x="80" y="129"/>
			<point x="25" y="60" type="curve"/>
		</contour>
	</outline>
</glyph>
<glyph name="ft" format="2">
	<advance width="600"/>
	<note>
		ft
	</note>
	<outline>
		<contour>
			<point x="110" y="400" type="line"/>
			<point x="110" y="30" type="line"/>
			<point x="23" y="30" type="line"/>
			<point x="23" y="0" type="line"/>
			<point x="239" y="0" type="line"/>
			<point x="239" y="30" type="line"/>
			<point x="140" y="30" type="line"/>
			<point x="140" y="400" type="line"/>
			<point x="281" y="400" type="line"/>
			<point x="281" y="430" type="line"/>
			<point x="141" y="430" type="line"/>
			<point x="152" y="522"/>
			<point x="203" y="573"/>
			<point x="295" y="573" type="curve" smooth="yes"/>
			<point x="373" y="573" type="line"/>
			<point x="373" y="87" type="line" smooth="yes"/>
			<point x="373" y="28"/>
			<point x="386" y="-14"/>
			<point x="450" y="-14" type="curve" smooth="yes"/>
			<point x="496" y="-14"/>
			<point x="544" y="39"/>
			<point x="571" y="86" type="curve" smooth="yes"/>
			<point x="590" y="119" type="line"/>
			<point x="566" y="132" type="line"/>
			<point x="561" y="123" type="line" smooth="yes"/>
			<point x="526" y="60"/>
			<point x="481" y="16"/>
			<point x="450" y="16" type="curve" smooth="yes"/>
			<point x="417" y="16"/>
			<point x="403" y="42"/>
			<point x="403" y="87" type="curve" smooth="yes"/>
			<point x="403" y="400" type="line"/>
			<point x="528" y="400" type="line"/>
			<point x="528" y="430" type="line"/>
			<point x="403" y="430" type="line"/>
			<point x="403" y="603" type="line"/>
			<point x="296" y="603" type="line" smooth="yes"/>
			<point x="192" y="603"/>
			<point x="121" y="541"/>
			<point x="111" y="430" type="curve"/>
			<point x="14" y="430" type="line"/>
			<point x="14" y="400" type="line"/>
		</contour>
	</outline>
</glyph>
<glyph name="i.duo" format="2">
	<advance width="300"/>
	<note>
		i.duo
	</note>
	<outline>
		<contour>
			<point x="148" y="488" type="curve" smooth="yes"/>
			<point x="176" y="488"/>
			<point x="199" y="512"/>
			<point x="199" y="539" type="curve" smooth="yes"/>
			<point x="199" y="566"/>
			<point x="176" y="590"/>
			<point x="148" y="590" type="curve" smooth="yes"/>
			<point x="120" y="590"/>
			<point x="96" y="566"/>
			<point x="96" y="539" type="curve" smooth="yes"/>
			<point x="96" y="512"/>
			<point x="120" y="488"/>
		</contour>
		<contour>
			<point x="165" y="430" type="line"/>
			<point x="40" y="430" type="line"/>
			<point x="40" y="400" type="line"/>
			<point x="135" y="400" type="line"/>
			<point x="135" y="30" type="line"/>
			<point x="40" y="30" type="line"/>
			<point x="40" y="0" type="line"/>
			<point x="263" y="0" type="line"/>
			<point x="263" y="30" type="line"/>
			<point x="165" y="30" type="line"/>
		</contour>
	</outline>
</glyph>
<glyph name="ialternate.duo" format="2">
	<advance width="300"/>
	<outline>
		<contour>
			<point x="168" y="430" type="line"/>
			<point x="135" y="430" type="line"/>
			<point x="135" y="33" type="line"/>
			<point x="40" y="33" type="line"/>
			<point x="40" y="0" type="line"/>
			<point x="263" y="0" type="line"/>
			<point x="263" y="33" type="line"/>
			<point x="168" y="33" type="line"/>
		</contour>
		<contour>
			<point x="153" y="488" type="curve" smooth="yes"/>
			<point x="181" y="488"/>
			<point x="204" y="512"/>
			<point x="204" y="539" type="curve" smooth="yes"/>
			<point x="204" y="566"/>
			<point x="181" y="590"/>
			<point x="153" y="590" type="curve" smooth="yes"/>
			<point x="125" y="590"/>
			<point x="101" y="566"/>
			<point x="101" y="539" type="curve" smooth="yes"/>
			<point x="101" y="512"/>
			<point x="125" y="488"/>
		</contour>
	</outline>
</glyph>
<glyph name="ialternate" format="2">
	<advance width="600"/>
	<outline>
		<contour>
			<point x="320" y="430" type="line"/>
			<point x="320" y="30" type="line"/>
			<point x="509" y="30" type="line"/>
			<point x="509" y="0" type="line"/>
			<point x="90" y="0" type="line"/>
			<point x="90" y="30" type="line"/>
			<point x="290" y="30" type="line"/>
			<point x="290" y="430" type="line"/>
		</contour>
		<contour>
			<point x="307" y="488" type="curve" smooth="yes"/>
			<point x="335" y="488"/>
			<point x="358" y="512"/>
			<point x="358" y="539" type="curve" smooth="yes"/>
			<point x="358" y="566"/>
			<point x="335" y="590"/>
			<point x="307" y="590" type="curve" smooth="yes"/>
			<point x="279" y="590"/>
			<point x="255" y="566"/>
			<point x="255" y="539" type="curve" smooth="yes"/>
			<point x="255" y="512"/>
			<point x="279" y="488"/>
		</contour>
	</outline>
</glyph>
<glyph name="idieresis.duo" format="2">
	<advance width="300"/>
	<outline>
		<contour>
			<point x="168" y="430" type="line"/>
			<point x="135" y="430" type="line"/>
			<point x="135" y="33" type="line"/>
			<point x="40" y="33" type="line"/>
			<point x="40" y="0" type="line"/>
			<point x="263" y="0" type="line"/>
			<point x="263" y="33" type="line"/>
			<point x="168" y="33" type="line"/>
		</contour>
		<contour>
			<point x="60" y="488" type="curve" smooth="yes"/>
			<point x="88" y="488"/>
			<point x="111" y="512"/>
			<point x="111" y="539" type="curve" smooth="yes"/>
			<point x="111" y="566"/>
			<point x="88" y="590"/>
			<point x="60" y="590" type="curve" smooth="yes"/>
			<point x="32" y="590"/>
			<point x="8" y="566"/>
			<point x="8" y="539" type="curve" smooth="yes"/>
			<point x="8" y="512"/>
			<point x="32" y="488"/>
		</contour>
		<contour>
			<point x="241" y="488" type="curve" smooth="yes"/>
			<point x="269" y="488"/>
			<point x="292" y="512"/>
			<point x="292" y="539" type="curve" smooth="yes"/>
			<point x="292" y="566"/>
			<point x="269" y="590"/>
			<point x="241" y="590" type="curve" smooth="yes"/>
			<point x="213" y="590"/>
			<point x="189" y="566"/>
			<point x="189" y="539" type="curve" smooth="yes"/>
			<point x="189" y="512"/>
			<point x="213" y="488"/>
		</contour>
	</outline>
</glyph>
<glyph name="infinity.duo" format="2">
	<advance width="900"/>
	<note>
		infinity.duo
	</note>
	<outline>
		<contour>
			<point x="455" y="175" type="curve"/>
			<point x="401" y="254"/>
			<point x="345" y="315"/>
			<point x="268" y="315" type="curve" smooth="yes"/>
			<point x="175" y="315"/>
			<point x="112" y="239"/>
			<point x="112" y="151" type="curve" smooth="yes"/>
			<point x="112" y="58"/>
			<point x="183" y="-13"/>
			<point x="268" y="-13" type="curve" smooth="yes"/>
			<point x="346" y="-13"/>
			<point x="399" y="50"/>
			<point x="455" y="127" type="curve"/>
			<point x="511" y="50"/>
			<point x="564" y="-13"/>
			<point x="642" y="-13" type="curve" smooth="yes"/>
			<point x="727" y="-13"/>
			<point x="798" y="58"/>
			<point x="798" y="151" type="curve" smooth="yes"/>
			<point x="798" y="239"/>
			<point x="735" y="315"/>
			<point x="642" y="315" type="curve" smooth="yes"/>
			<point x="565" y="315"/>
			<point x="509" y="254"/>
		</contour>
		<contour>
			<point x="437" y="151" type="curve"/>
			<point x="382" y="78"/>
			<point x="335" y="17"/>
			<point x="268" y="17" type="curve" smooth="yes"/>
			<point x="195" y="17"/>
			<point x="142" y="83"/>
			<point x="142" y="151" type="curve" smooth="yes"/>
			<point x="142" y="219"/>
			<point x="195" y="285"/>
			<point x="268" y="285" type="curve" smooth="yes"/>
			<point x="323" y="285"/>
			<point x="361" y="252"/>
		</contour>
		<contour>
			<point x="473" y="151" type="curve"/>
			<point x="549" y="252"/>
			<point x="587" y="285"/>
			<point x="642" y="285" type="curve" smooth="yes"/>
			<point x="715" y="285"/>
			<point x="768" y="219"/>
			<point x="768" y="151" type="curve" smooth="yes"/>
			<point x="768" y="83"/>
			<point x="715" y="17"/>
			<point x="642" y="17" type="curve" smooth="yes"/>
			<point x="575" y="17"/>
			<point x="528" y="78"/>
		</contour>
	</outline>
</glyph>
<glyph name="j.duo" format="2">
	<advance width="300"/>
	<note>
		j.duo
	</note>
	<outline>
		<contour>
			<point x="199" y="488" type="curve" smooth="yes"/>
			<point x="227" y="488"/>
			<point x="250" y="512"/>
			<point x="250" y="539" type="curve" smooth="yes"/>
			<point x="250" y="566"/>
			<point x="227" y="590"/>
			<point x="199" y="590" type="curve" smooth="yes"/>
			<point x="171" y="590"/>
			<point x="147" y="566"/>
			<point x="147" y="539" type="curve" smooth="yes"/>
			<point x="147" y="512"/>
			<point x="171" y="488"/>
		</contour>
		<contour>
			<point x="67" y="-123" type="curve" smooth="yes"/>
			<point x="67" y="-148"/>
			<point x="96" y="-173"/>
			<point x="132" y="-173" type="curve" smooth="yes"/>
			<point x="214" y="-173"/>
			<point x="243" y="-115"/>
			<point x="243" y="18" type="curve" smooth="yes"/>
			<point x="243" y="364" type="line" smooth="yes"/>
			<point x="243" y="421"/>
			<point x="218" y="443"/>
			<point x="185" y="443" type="curve" smooth="yes"/>
			<point x="156" y="443"/>
			<point x="140" y="423"/>
			<point x="108" y="381" type="curve" smooth="yes"/>
			<point x="102" y="373" type="line"/>
			<point x="128" y="357" type="line"/>
			<point x="153" y="391"/>
			<point x="171" y="413"/>
			<point x="185" y="413" type="curve" smooth="yes"/>
			<point x="204" y="413"/>
			<point x="213" y="400"/>
			<point x="213" y="364" type="curve" smooth="yes"/>
			<point x="213" y="18" type="line" smooth="yes"/>
			<point x="213" y="-97"/>
			<point x="192" y="-143"/>
			<point x="134" y="-143" type="curve"/>
			<point x="151" y="-135"/>
			<point x="155" y="-123"/>
			<point x="155" y="-109" type="curve" smooth="yes"/>
			<point x="155" y="-86"/>
			<point x="132" y="-71"/>
			<point x="112" y="-71" type="curve" smooth="yes"/>
			<point x="84" y="-71"/>
			<point x="67" y="-92"/>
		</contour>
	</outline>
</glyph>
<glyph name="lslash.duo" format="2">
	<advance width="300"/>
	<note>
		lslash.duo
	</note>
	<outline>
		<contour>
			<point x="272" y="0" type="line"/>
			<point x="49" y="0" type="line"/>
			<point x="49" y="30" type="line"/>
			<point x="146" y="30" type="line"/>
			<point x="146" y="275" type="line"/>
			<point x="49" y="229" type="line"/>
			<point x="49" y="260" type="line"/>
			<point x="146" y="307" type="line"/>
			<point x="146" y="560" type="line"/>
			<point x="49" y="560" type="line"/>
			<point x="49" y="590" type="line"/>
			<point x="176" y="590" type="line"/>
			<point x="176" y="322" type="line"/>
			<point x="272" y="367" type="line"/>
			<point x="272" y="336" type="line"/>
			<point x="176" y="290" type="line"/>
			<point x="176" y="30" type="line"/>
			<point x="272" y="30" type="line"/>
		</contour>
	</outline>
</glyph>
<glyph name="nine.numr" format="2">
	<advance width="600"/>
	<note>
		nine.numr
	</note>
	<outline>
		<contour>
			<point x="55" y="43" type="curve"/>
			<point x="59" y="33"/>
			<point x="66" y="28"/>
			<point x="76" y="28" type="curve" smooth="yes"/>
			<point x="89" y="28"/>
			<point x="102" y="36"/>
			<point x="102" y="53" type="curve" smooth="yes"/>
			<point x="102" y="70"/>
			<point x="88" y="81"/>
			<point x="69" y="81" type="curve" smooth="yes"/>
			<point x="50" y="81"/>
			<point x="35" y="65"/>
			<point x="35" y="44" type="curve" smooth="yes"/>
			<point x="35" y="13"/>
			<point x="66" y="-13"/>
			<point x="111" y="-13" type="curve" smooth="yes"/>
			<point x="180" y="-13"/>
			<point x="235" y="51"/>
			<point x="235" y="140" type="curve" smooth="yes"/>
			<point x="235" y="230"/>
			<point x="193" y="273"/>
			<point x="124" y="273" type="curve" smooth="yes"/>
			<point x="69" y="273"/>
			<point x="25" y="231"/>
			<point x="25" y="183" type="curve" smooth="yes"/>
			<point x="25" y="127"/>
			<point x="65" y="97"/>
			<point x="122" y="97" type="curve" smooth="yes"/>
			<point x="160" y="97"/>
			<point x="190" y="120"/>
			<point x="213" y="142" type="curve"/>
			<point x="208" y="55"/>
			<point x="165" y="12"/>
			<point x="111" y="12" type="curve" smooth="yes"/>
			<point x="86" y="12"/>
			<point x="60" y="18"/>
		</contour>
		<contour>
			<point x="49" y="182" type="curve" smooth="yes"/>
			<point x="49" y="218"/>
			<point x="77" y="249"/>
			<point x="124" y="249" type="curve" smooth="yes"/>
			<point x="163" y="249"/>
			<point x="199" y="233"/>
			<point x="210" y="174" type="curve"/>
			<point x="187" y="148"/>
			<point x="161" y="121"/>
			<point x="122" y="121" type="curve" smooth="yes"/>
			<point x="75" y="121"/>
			<point x="49" y="146"/>
		</contour>
	</outline>
</glyph>
<glyph name="nine.osf" format="2">
	<advance width="600"/>
	<note>
		nine.osf
	</note>
	<outline>
		<contour>
			<point x="90" y="305" type="curve" smooth="yes"/>
			<point x="90" y="193"/>
			<point x="181" y="118"/>
			<point x="291" y="118" type="curve" smooth="yes"/>
			<point x="368" y="118"/>
			<point x="443" y="158"/>
			<point x="487" y="216" type="curve"/>
			<point x="478" y="19"/>
			<point x="243" y="-143"/>
			<point x="84" y="-143" type="curve"/>
			<point x="84" y="-173" type="line"/>
			<point x="261" y="-173"/>
			<point x="516" y="5"/>
			<point x="516" y="227" type="curve" smooth="yes"/>
			<point x="516" y="357"/>
			<point x="444" y="493"/>
			<point x="291" y="493" type="curve" smooth="yes"/>
			<point x="181" y="493"/>
			<point x="90" y="417"/>
		</contour>
		<contour>
			<point x="120" y="305" type="curve" smooth="yes"/>
			<point x="120" y="399"/>
			<point x="198" y="463"/>
			<point x="291" y="463" type="curve" smooth="yes"/>
			<point x="418" y="463"/>
			<point x="484" y="341"/>
			<point x="485" y="256" type="curve"/>
			<point x="438" y="191"/>
			<point x="362" y="148"/>
			<point x="291" y="148" type="curve" smooth="yes"/>
			<point x="195" y="148"/>
			<point x="120" y="214"/>
		</contour>
	</outline>
</glyph>
